<svg xmlns="http://www.w3.org/2000/svg" width="84.634" height="79.515" viewBox="0 0 84.634 79.515">
  <path id="Caminho_31" data-name="Caminho 31" d="M6.409,16.545l.339-1.633.657-1.879.657-1.585.965-1.7.714-.975L10.716,7.6l2.055-1.829L14.939,4.6h1.582l1.077.8.538.953V7.431L17.93,8.508l-.621,1.235-.787,1-.911,1.077-.671,1.21-.364,1.358V17.04l.364.828.505,1.077.58.621.911.87,1.532,1.035,1.657,1.035,1.657.65,1.574.8,1.7.775,1.74.513,1.739.489h1.131l.808-.7,1.077-1.077,1.831-1.777,1.885-1.4,2.154-1.4,1.831-.431,3.015-.377h8.13l2.477.377,1.508.431,1.346.754,1.454.646,1.562.915,1.292.969,1.131.969,1.131,1.292.646.7,2.477-.377,1.669-.323,1.885-.538,1.561-.754,1.508-.7,1.508-.754,1.433-.969,1.42-1.131,1.077-1.2.65-1,.223-1.02V15.588l-.223-1.147-.287-.733-.605-1.243L76.7,11.449l-.911-1.367-.812-1.352L74.587,7.6V5.961l.392-.711,1.176-.515,1.039,0,1.216,0,1.127.319L82.258,7.6l1,1.127,1.1,1.519.956,1.691.77,1.958.426,1.689.207,3.291L86.517,20.9l-.471,1.6-.641,1.64-.566,1.414-1.15,1.734-1.037,1.169-1.489,1.3-2.206,1.508h4.336l1.659.4,1,.471,1.565.811.622.584.452.754v3.507l-.358.961-.471,1.075-.792,1.4-1.188,1.433-.9,1.037-1.339,1.357-3.2,1.508-4.016.207-3-.094-5.429-.3L67.8,48.458l-.434,2.036-.339,1.112-.452,1-.415,1.584-.434,1.169-.3.85-2.113,4.41-.264.837-.509,1.067-.377.829v.509l.377.679.773,1.64v2.375l-.132,1.98-.358,2L61.84,75.3l-.867,1.678L59.732,78.9l-2.39,2.69-1.419.416-2.654.419-.838.447-1.411.754-1.4.363-1.648.126H44.6l-1.076-.126-.936-.223-1.117-.6-1.257-.67-3.073-.084L34.9,81.492,32.97,79.608,31.73,77.469l-1.092-2.147-.813-1.94-.65-1.908.071-5.666.445-1.277.711-.541v-1.2l-.59-1.534-1.2-2.549-.921-2.054-.826-2.2-.8-2.786-.594-2.623L25.1,46.63H13.427l-2.516-.8L8.456,44.175,6.706,42.181,5.141,39.94l-.921-2.087-.263-.962.049-1.463.215-.982.767-.921.982-.706L7.09,32.2l1.489-.563,1.8-.221h3.022l-2.054-1.228L8.415,27.242l-.759-1.07-.642-1.443-.458-1.57-.147-1.1v-5.51Z" transform="translate(-3.957 -4.603)" fill="#010101"/>
</svg>
