<svg xmlns="http://www.w3.org/2000/svg" width="26.862" height="34.922" viewBox="0 0 26.862 34.922">
  <path id="Icon_ionic-ios-water" data-name="Icon ionic-ios-water" d="M28.24,11.635a37.538,37.538,0,0,0-7.622-8.109.718.718,0,0,0-.873-.008,37.078,37.078,0,0,0-7.6,8.1c-3.131,4.365-5.288,9.1-5.389,14.346,0,.1-.008.21-.008.311a10.97,10.97,0,0,0,.915,4.373,11.8,11.8,0,0,0,1.276,2.208A13.857,13.857,0,0,0,20.173,38.3c7.421,0,13.439-5.381,13.439-12.021C33.612,20.928,31.345,16.017,28.24,11.635ZM21.02,33.821h-.042a.736.736,0,0,1-.218-1.435A10.451,10.451,0,0,0,28.013,25.6a.73.73,0,0,1,1.41.26v.118A8.145,8.145,0,0,1,21.02,33.821Z" transform="translate(-6.75 -3.374)"/>
</svg>
