<svg xmlns="http://www.w3.org/2000/svg" width="70.741" height="56" viewBox="0 0 70.741 56">
  <path id="Icon_map-art-gallery" data-name="Icon map-art-gallery" d="M30.506,4.32C11.889,4.32.72,19.253.72,26.721S4.443,39.788,11.889,39.788,23.06,41.654,23.06,47.254A12.741,12.741,0,0,0,36.091,60.32c24.2,0,35.37-13.066,35.37-26.132C71.459,11.787,52.84,4.32,30.506,4.32Zm-4.654,7.467A4.667,4.667,0,1,1,21.2,16.453a4.66,4.66,0,0,1,4.654-4.666Zm14.891,0a4.667,4.667,0,1,1-4.653,4.666,4.66,4.66,0,0,1,4.653-4.666Zm14.894,7.466a4.667,4.667,0,1,1-4.653,4.667A4.66,4.66,0,0,1,55.636,19.253ZM12.821,22.988a4.666,4.666,0,1,1-4.654,4.664A4.657,4.657,0,0,1,12.821,22.988ZM36.09,41.654a5.6,5.6,0,1,1-5.584,5.6,5.591,5.591,0,0,1,5.584-5.6Z" transform="translate(-0.72 -4.32)"/>
</svg>
