<svg xmlns="http://www.w3.org/2000/svg" width="97.5" height="94.697" viewBox="0 0 97.5 94.697">
  <g id="Grupo_101" data-name="Grupo 101" transform="translate(406.618 -4508.335)">
    <rect id="Retângulo_173" data-name="Retângulo 173" width="68.859" height="39.509" rx="13" transform="translate(-395.962 4564.03) rotate(-42)"/>
    <path id="Caminho_32" data-name="Caminho 32" d="M29.9-8.248,28.976-13.4,23.021-20l-6.6-3.819-1.553-7.509a7.721,7.721,0,0,0-1.738-3.114c-.7-.779-1.837-2.26-2.566-2.949C8.6-39.254,7.076-39.164,7.076-39.164H5.98l-.855.668s-1.169,4.94-2.229,8.43A46.125,46.125,0,0,1,.884-24.536l16.247,17.8L29.9-8.248" transform="translate(-339.018 4547.5)"/>
    <path id="Caminho_33" data-name="Caminho 33" d="M-10.126,34.145h-1.748l-1.553-1.1-2.46-2.266-2.524-2.719-2.071-2.395-1.748-2.978-1.295-2.719-.583-3.107h-4.207l-2.395-1.295-2.33-2.007-2.848-2.783-1.23-2.395V6.312l.453-1.553,14.435-2.2L-6.63,19.97-7.291,23l-1.3,6.664-.728,3.945-.8.54" transform="translate(-369.5 4568.887)"/>
  </g>
</svg>
