<svg xmlns="http://www.w3.org/2000/svg" width="69.827" height="77.392" viewBox="0 0 69.827 77.392">
  <g id="Grupo_105" data-name="Grupo 105" transform="translate(-1161 -1472.011)">
    <ellipse id="Elipse_33" data-name="Elipse 33" cx="21.5" cy="38" rx="21.5" ry="38" transform="translate(1161 1473)"/>
    <ellipse id="Elipse_34" data-name="Elipse 34" cx="10" cy="23" rx="10" ry="23" transform="translate(1173 1488)" fill="#fff"/>
    <g id="Elipse_35" data-name="Elipse 35" transform="translate(1177 1491)" stroke="#000" stroke-width="1">
      <ellipse cx="6" cy="19.5" rx="6" ry="19.5" stroke="none"/>
      <ellipse cx="6" cy="19.5" rx="5.5" ry="19" fill="none"/>
    </g>
    <path id="Caminho_58" data-name="Caminho 58" d="M-31.667,0A23.208,23.208,0,0,1-17.179,12.159a60.235,60.235,0,0,1,5.285,15.047,47.232,47.232,0,0,1,.587,7.487c.139,4.071,0,7.193,0,7.193A68.815,68.815,0,0,1-12.7,52.749,57.537,57.537,0,0,1-16,62.585s-3.425,6.338-7.34,9.689a19.636,19.636,0,0,1-4.146,2.685,18.942,18.942,0,0,1-4.3,1.433H-48.369a23.059,23.059,0,0,0,7.225-7.818,52.659,52.659,0,0,0,3.323-6.955,48.79,48.79,0,0,0,2.975-10.793,105.863,105.863,0,0,0,.786-14.886,55.082,55.082,0,0,0-4.4-21.947A36.9,36.9,0,0,0-49.426.389L-31.667,0" transform="translate(1241.565 1472.511)" stroke="#000" stroke-width="1"/>
  </g>
</svg>
