<svg xmlns="http://www.w3.org/2000/svg" xmlns:xlink="http://www.w3.org/1999/xlink" width="595.89" height="433.074" viewBox="0 0 595.89 433.074">
  <defs>
    <linearGradient id="linear-gradient" x1="0.5" y1="1" x2="0.5" gradientUnits="objectBoundingBox">
      <stop offset="0" stop-color="gray" stop-opacity="0.251"/>
      <stop offset="0.54" stop-color="gray" stop-opacity="0.122"/>
      <stop offset="1" stop-color="gray" stop-opacity="0.102"/>
    </linearGradient>
    <linearGradient id="linear-gradient-4" x1="0.5" y1="1.001" x2="0.5" y2="0" xlink:href="#linear-gradient"/>
    <linearGradient id="linear-gradient-5" x1="0" y1="0.5" x2="1" y2="0.5" xlink:href="#linear-gradient"/>
    <linearGradient id="linear-gradient-6" x1="1.414" y1="1" x2="1.414" y2="0" xlink:href="#linear-gradient"/>
    <linearGradient id="linear-gradient-8" x1="0.501" y1="1.001" x2="0.501" y2="0" xlink:href="#linear-gradient"/>
  </defs>
  <g id="Grupo_427" data-name="Grupo 427" transform="translate(-0.012 0.009)">
    <path id="Caminho_225" data-name="Caminho 225" d="M141.611,98.708a40.95,40.95,0,0,0-13.1,1.272c-11.281,3.466-16.628,14.808-14.89,24.608s8.89,18.339,16.31,26.143,15.46,15.52,19.529,24.849c2.029,4.656,2.978,9.872.916,14.522-3.181,7.168-12.773,11.171-21.981,12.005s-18.455-.79-27.7-1.333a34.814,34.814,0,0,0-11.517.8,30.477,30.477,0,0,0-10.42,5.9C66.761,216.993,57.153,230,58.721,243.636c1.755,15.482,17.407,27.717,34.551,34.282,5.676,2.194,11.681,3.938,16.678,7.042,13.162,8.188,16.118,23.544,14.808,37.1s-5.775,27.12-3.291,40.551c2.923,15.625,15.86,29.741,33.311,36.333,15.548,5.874,35.006,5.484,48.81-2.8,6.729-4.047,11.819-9.669,16.244-15.482a124.9,124.9,0,0,0,16.151-27.97c1.925-4.656,3.735-9.663,8.226-12.9,2.742-1.991,6.3-3.1,9.811-3.971,10.6-2.611,21.756-3.323,32.45-5.649s21.427-6.663,27.24-14.413c8.226-10.969,4.387-25.019,4.426-37.918.066-29.429,21.449-55.77,29.341-84.458,2.578-9.373,3.537-19.743-2.221-28.107-3.91-5.676-10.508-9.773-17.44-12.937-15.252-6.96-32.587-10.058-49.638-13.074-23.7-4.19-52.473-4.733-70.84-18.29C189.741,107.982,165.626,98.708,141.611,98.708Z" transform="translate(-57.471 -74.601)" fill="#6c63ff" opacity="0.2"/>
    <g id="Grupo_423" data-name="Grupo 423" transform="translate(13.603 176.414)" opacity="0.5">
      <path id="Caminho_226" data-name="Caminho 226" d="M82.78,391.819a6.659,6.659,0,0,0-.6,7.184c3.016,5.758,10.475,4.574,14.1,10.086a10.08,10.08,0,0,1,1.563,5.095c.137,3.121-.828,5.578-1.327,8.325a14.073,14.073,0,0,0,1.437,9.51,16.793,16.793,0,0,0,7.678,6.85c2.808,1.239,5.484,1.558,8.172,2.161a50.3,50.3,0,0,1,9.691,3.291,18.294,18.294,0,0,1,4.135,2.413,30.113,30.113,0,0,1,4.185,4.508l11.665,14.4a41.232,41.232,0,0,0,4.936,5.4,29.734,29.734,0,0,0,6.428,3.954c4.656,2.32,9.526,4.695,13.568,4.426s6.85-4.168,4.936-9.619c-1.81-5.188-6.91-9.559-9.225-14.736-3.647-8.161,1.13-14.259-1.925-22.431-2.929-7.853-11.139-13.118-16.382-20.292-3.762-5.1-5.857-11.034-9.246-16.393a44.869,44.869,0,0,0-19.195-16.524,37.254,37.254,0,0,0-19.283-2.671c-2.5.274-4.963.74-6.74,2.238-1.887,1.59-1.645,4.563-2.874,6.674C87.063,388.1,84.376,389.472,82.78,391.819Z" transform="translate(-81.383 -376.455)" fill="#6c63ff"/>
      <path id="Caminho_227" data-name="Caminho 227" d="M97.28,384.33s58.4,54.6,81.946,97.1" transform="translate(-88.562 -380.011)" fill="none" stroke="#535461" stroke-miterlimit="10" stroke-width="2"/>
      <path id="Caminho_228" data-name="Caminho 228" d="M83.24,417.767s23.336-4.535,39.487,13.656" transform="translate(-82.222 -394.884)" fill="none" stroke="#535461" stroke-miterlimit="10" stroke-width="2"/>
      <path id="Caminho_229" data-name="Caminho 229" d="M113.48,471.782s25.776-18.027,34.693-7.541" transform="translate(-95.877 -414.617)" fill="none" stroke="#535461" stroke-miterlimit="10" stroke-width="2"/>
      <path id="Caminho_230" data-name="Caminho 230" d="M146.515,381.63s-2.715,13.8,7.053,36.339" transform="translate(-110.638 -378.792)" fill="none" stroke="#535461" stroke-miterlimit="10" stroke-width="2"/>
      <path id="Caminho_231" data-name="Caminho 231" d="M211.7,479.28s-2.281,9.049-20.621,2.4" transform="translate(-130.919 -422.888)" fill="none" stroke="#535461" stroke-miterlimit="10" stroke-width="2"/>
      <path id="Caminho_232" data-name="Caminho 232" d="M194.73,521.118s11.193-12.937,6.1-19.288" transform="translate(-132.568 -433.071)" fill="none" stroke="#535461" stroke-miterlimit="10" stroke-width="2"/>
    </g>
    <path id="Caminho_233" data-name="Caminho 233" d="M60.615,262.074c-2.742,3.241-5.309,7.727-3.291,12.153,3.883,8.687,18.257,4.437,23.385,12.526a11.946,11.946,0,0,1,1.388,8.013c-.691,5.161-3.247,9.543-5.013,14.259s-2.682,10.42-.192,15.4c2.4,4.821,7.448,7.864,12.34,9.076s9.795.938,14.681,1.1a81.276,81.276,0,0,1,17.193,2.534,23.752,23.752,0,0,1,7.009,2.819,31.174,31.174,0,0,1,6.488,6.241l17.55,20.451a41.824,41.824,0,0,0,7.6,7.5c3.334,2.32,7.13,3.5,10.864,4.634,8.034,2.457,16.453,4.936,24.131,3.252s14.122-9.022,12.2-17.517c-1.826-8.089-10.064-13.826-12.839-21.751-4.387-12.488,6.444-24.07,3.192-36.777-3.115-12.186-16.924-18.471-24.6-28.787-5.484-7.393-7.645-16.639-12.438-24.5-6.921-11.352-18.987-18.871-31-21.729s-24.092-1.525-35.357,1.333c-4.771,1.212-9.543,2.742-13.327,5.769-4.02,3.219-4.481,8.106-7.409,11.989C69.78,254.566,64.312,257.686,60.615,262.074Z" transform="translate(-56.59 -133.622)" fill="#6c63ff"/>
    <path id="Caminho_234" data-name="Caminho 234" d="M95.07,251.4s93.052,73.215,124.361,136.887" transform="translate(-73.961 -143.57)" fill="none" stroke="#535461" stroke-miterlimit="10" stroke-width="2"/>
    <path id="Caminho_235" data-name="Caminho 235" d="M58.46,308.554s45.174-14.616,69.946,10.782" transform="translate(-57.429 -167.489)" fill="none" stroke="#535461" stroke-miterlimit="10" stroke-width="2"/>
    <path id="Caminho_236" data-name="Caminho 236" d="M96.26,385.181s53.806-37.841,67.407-23.083" transform="translate(-74.499 -192.015)" fill="none" stroke="#535461" stroke-miterlimit="10" stroke-width="2"/>
    <path id="Caminho_237" data-name="Caminho 237" d="M185.934,231.88s-9.274,23.8,2.194,58.385" transform="translate(-113.394 -134.755)" fill="none" stroke="#535461" stroke-miterlimit="10" stroke-width="2"/>
    <path id="Caminho_238" data-name="Caminho 238" d="M280.432,369.69S273.407,385.446,241,379.935" transform="translate(-139.859 -196.986)" fill="none" stroke="#535461" stroke-miterlimit="10" stroke-width="2"/>
    <path id="Caminho_239" data-name="Caminho 239" d="M231.69,448.1s24.937-24.942,17.314-34" transform="translate(-135.655 -217.041)" fill="none" stroke="#535461" stroke-miterlimit="10" stroke-width="2"/>
    <ellipse id="Elipse_87" data-name="Elipse 87" cx="255.018" cy="68.29" rx="255.018" ry="68.29" transform="translate(83.898 286.815)" fill="#6c63ff" opacity="0.1"/>
    <path id="Caminho_240" data-name="Caminho 240" d="M1014.035,55.53s-19.65,19.65-8.555,48.81-19.019,77.652-19.019,77.652.324-.049.921-.154c40.359-7.13,60.415-53.285,37.973-87.578C1017.013,81.514,1010.163,66.564,1014.035,55.53Z" transform="translate(-476.489 -55.12)" fill="#6c63ff"/>
    <path id="Caminho_241" data-name="Caminho 241" d="M1014.035,55.53s-11.095,24.087,0,43.737,1.9,74.8-27.575,82.725" transform="translate(-476.489 -55.12)" fill="none" stroke="#535461" stroke-miterlimit="10" stroke-width="2"/>
    <path id="Caminho_242" data-name="Caminho 242" d="M1044.913,200.258s-22.425-3.57-24.465,16.524-43.117,22.88-43.117,22.88l.768.51c33.915,22.261,66.36,14.182,61.424-15.356C1037.728,213.8,1037.876,202.748,1044.913,200.258Z" transform="translate(-472.366 -120.364)" fill="#6c63ff"/>
    <path id="Caminho_243" data-name="Caminho 243" d="M1044.913,200.258s-22.425-3.57-24.465,16.524-43.117,22.88-43.117,22.88l.768.51c33.915,22.261,66.36,14.182,61.424-15.356C1037.728,213.8,1037.876,202.748,1044.913,200.258Z" transform="translate(-472.366 -120.364)" fill="#f5f5f5" opacity="0.2"/>
    <path id="Caminho_244" data-name="Caminho 244" d="M1044.913,200.46s-17.407,3.839-15.976,19.645-25.847,34.8-51.607,19.743" transform="translate(-472.366 -120.567)" fill="none" stroke="#535461" stroke-miterlimit="10" stroke-width="2"/>
    <path id="Caminho_245" data-name="Caminho 245" d="M300.933,270.042s-7.272-24.679,1.366-42.854a38.987,38.987,0,0,0,3.153-24.46,65.576,65.576,0,0,0-3.461-11.479" transform="translate(-165.631 -116.408)" fill="none" stroke="#535461" stroke-miterlimit="10" stroke-width="2"/>
    <path id="Caminho_246" data-name="Caminho 246" d="M305.969,165.784c0,3.027-5.484,11.8-5.484,11.8S295,168.806,295,165.784a5.484,5.484,0,1,1,10.969,0Z" transform="translate(-164.244 -102.431)" fill="#6c63ff"/>
    <path id="Caminho_247" data-name="Caminho 247" d="M322.452,193.72c-1.645,2.539-11.012,6.927-11.012,6.927s.17-10.343,1.815-12.883a5.484,5.484,0,1,1,9.2,5.956Z" transform="translate(-171.668 -113.607)" fill="#6c63ff"/>
    <path id="Caminho_248" data-name="Caminho 248" d="M320.093,244.454c-2.7,1.36-13,.422-13,.422s5.369-8.841,8.067-10.2a5.484,5.484,0,1,1,4.936,9.784Z" transform="translate(-169.704 -135.702)" fill="#6c63ff"/>
    <path id="Caminho_249" data-name="Caminho 249" d="M310.865,284.188c-2.435,1.8-12.745,2.611-12.745,2.611s3.8-9.619,6.23-11.418a5.484,5.484,0,1,1,6.515,8.808Z" transform="translate(-165.653 -153.839)" fill="#6c63ff"/>
    <path id="Caminho_250" data-name="Caminho 250" d="M288.945,206.665c2.194,2.106,12.279,4.294,12.279,4.294s-2.473-10.042-4.645-12.148a5.484,5.484,0,1,0-7.634,7.859Z" transform="translate(-160.673 -119.039)" fill="#6c63ff"/>
    <path id="Caminho_251" data-name="Caminho 251" d="M277.688,252.307c2.7,1.36,13,.422,13,.422s-5.369-8.841-8.067-10.2a5.484,5.484,0,0,0-4.936,9.784Z" transform="translate(-155.159 -139.343)" fill="#6c63ff"/>
    <path id="Caminho_252" data-name="Caminho 252" d="M274.343,299.048c2.435,1.8,12.745,2.611,12.745,2.611s-3.8-9.619-6.23-11.418a5.484,5.484,0,0,0-6.515,8.808Z" transform="translate(-154.007 -160.692)" fill="#6c63ff"/>
    <path id="Caminho_253" data-name="Caminho 253" d="M726.933,403.067H680.267a15.554,15.554,0,0,0,1.645-6.949v-212.5A15.625,15.625,0,0,0,666.288,168H305.055a15.625,15.625,0,0,0-15.625,15.625V396.118a15.553,15.553,0,0,0,1.645,6.949H242.76a4.13,4.13,0,0,0-4.13,4.13v3.329a23.111,23.111,0,0,0,23.111,23.111H707.984A23.111,23.111,0,0,0,731.1,410.525V407.2a4.13,4.13,0,0,0-4.163-4.13ZM439.4,416.284l-4-4.546H534.72l-4.431,4.546Z" transform="translate(-138.789 -105.908)" fill="url(#linear-gradient)"/>
    <rect id="Retângulo_319" data-name="Retângulo 319" width="383.592" height="238.231" rx="23.26" transform="translate(155.068 65.091)" fill="#535461"/>
    <rect id="Retângulo_320" data-name="Retângulo 320" width="366.634" height="194.62" transform="translate(163.146 99.818)" fill="#f1f1f4"/>
    <circle id="Elipse_88" data-name="Elipse 88" cx="3.23" cy="3.23" r="3.23" transform="translate(343.233 79.625)" fill="#fff"/>
    <path id="Caminho_254" data-name="Caminho 254" d="M546.44,592.39l-12.614,12.921H444.981L433.6,592.39H252.806a4.036,4.036,0,0,0-4.036,4.036v3.258a22.584,22.584,0,0,0,22.612,22.584H707.49a22.584,22.584,0,0,0,22.584-22.584v-3.258a4.036,4.036,0,0,0-4.036-4.036Z" transform="translate(-143.368 -297.552)" fill="#535461"/>
    <rect id="Retângulo_321" data-name="Retângulo 321" width="100.236" height="75.54" transform="translate(185.538 114.647)" fill="#fff"/>
    <rect id="Retângulo_322" data-name="Retângulo 322" width="33.41" height="18.882" transform="translate(195.344 121.185)" fill="#6c63ff" opacity="0.2"/>
    <rect id="Retângulo_323" data-name="Retângulo 323" width="39.223" height="4.36" transform="translate(236.745 121.185)" fill="#e6e8ec"/>
    <rect id="Retângulo_324" data-name="Retângulo 324" width="27.602" height="4.36" transform="translate(236.745 128.446)" fill="#e6e8ec"/>
    <rect id="Retângulo_325" data-name="Retângulo 325" width="39.223" height="4.36" transform="translate(236.745 135.707)" fill="#e6e8ec"/>
    <rect id="Retângulo_326" data-name="Retângulo 326" width="80.624" height="4.36" transform="translate(195.344 142.974)" fill="#e6e8ec"/>
    <rect id="Retângulo_327" data-name="Retângulo 327" width="80.624" height="4.36" transform="translate(195.344 150.235)" fill="#e6e8ec"/>
    <rect id="Retângulo_328" data-name="Retângulo 328" width="80.624" height="4.36" transform="translate(195.344 157.501)" fill="#e6e8ec"/>
    <rect id="Retângulo_329" data-name="Retângulo 329" width="74.087" height="4.36" transform="translate(195.344 164.763)" fill="#e6e8ec"/>
    <rect id="Retângulo_330" data-name="Retângulo 330" width="80.624" height="4.36" transform="translate(195.344 172.024)" fill="#e6e8ec"/>
    <rect id="Retângulo_331" data-name="Retângulo 331" width="80.624" height="4.36" transform="translate(195.344 179.29)" fill="#e6e8ec"/>
    <rect id="Retângulo_332" data-name="Retângulo 332" width="100.236" height="75.54" transform="translate(295.942 114.647)" fill="#fff"/>
    <rect id="Retângulo_333" data-name="Retângulo 333" width="33.41" height="18.882" transform="translate(305.742 121.185)" fill="#6c63ff" opacity="0.2"/>
    <rect id="Retângulo_334" data-name="Retângulo 334" width="39.223" height="4.36" transform="translate(347.148 121.185)" fill="#e6e8ec"/>
    <rect id="Retângulo_335" data-name="Retângulo 335" width="27.602" height="4.36" transform="translate(347.148 128.446)" fill="#e6e8ec"/>
    <rect id="Retângulo_336" data-name="Retângulo 336" width="39.223" height="4.36" transform="translate(347.148 135.707)" fill="#e6e8ec"/>
    <rect id="Retângulo_337" data-name="Retângulo 337" width="80.624" height="4.36" transform="translate(305.742 142.974)" fill="#e6e8ec"/>
    <rect id="Retângulo_338" data-name="Retângulo 338" width="80.624" height="4.36" transform="translate(305.742 150.235)" fill="#e6e8ec"/>
    <rect id="Retângulo_339" data-name="Retângulo 339" width="80.624" height="4.36" transform="translate(305.742 157.501)" fill="#e6e8ec"/>
    <rect id="Retângulo_340" data-name="Retângulo 340" width="74.087" height="4.36" transform="translate(305.742 164.763)" fill="#e6e8ec"/>
    <rect id="Retângulo_341" data-name="Retângulo 341" width="80.624" height="4.36" transform="translate(305.742 172.024)" fill="#e6e8ec"/>
    <rect id="Retângulo_342" data-name="Retângulo 342" width="80.624" height="4.36" transform="translate(305.742 179.29)" fill="#e6e8ec"/>
    <rect id="Retângulo_343" data-name="Retângulo 343" width="100.236" height="75.54" transform="translate(406.34 114.647)" fill="#fff"/>
    <rect id="Retângulo_344" data-name="Retângulo 344" width="33.41" height="18.882" transform="translate(416.146 121.185)" fill="#6c63ff" opacity="0.2"/>
    <rect id="Retângulo_345" data-name="Retângulo 345" width="39.223" height="4.36" transform="translate(457.547 121.185)" fill="#e6e8ec"/>
    <rect id="Retângulo_346" data-name="Retângulo 346" width="27.602" height="4.36" transform="translate(457.547 128.446)" fill="#e6e8ec"/>
    <rect id="Retângulo_347" data-name="Retângulo 347" width="39.223" height="4.36" transform="translate(457.547 135.707)" fill="#e6e8ec"/>
    <rect id="Retângulo_348" data-name="Retângulo 348" width="80.624" height="4.36" transform="translate(416.146 142.974)" fill="#e6e8ec"/>
    <rect id="Retângulo_349" data-name="Retângulo 349" width="80.624" height="4.36" transform="translate(416.146 150.235)" fill="#e6e8ec"/>
    <rect id="Retângulo_350" data-name="Retângulo 350" width="80.624" height="4.36" transform="translate(416.146 157.501)" fill="#e6e8ec"/>
    <rect id="Retângulo_351" data-name="Retângulo 351" width="74.087" height="4.36" transform="translate(416.146 164.763)" fill="#e6e8ec"/>
    <rect id="Retângulo_352" data-name="Retângulo 352" width="80.624" height="4.36" transform="translate(416.146 172.024)" fill="#e6e8ec"/>
    <rect id="Retângulo_353" data-name="Retângulo 353" width="80.624" height="4.36" transform="translate(416.146 179.29)" fill="#e6e8ec"/>
    <rect id="Retângulo_354" data-name="Retângulo 354" width="100.236" height="75.54" transform="translate(185.538 199.626)" fill="#fff"/>
    <rect id="Retângulo_355" data-name="Retângulo 355" width="33.41" height="18.882" transform="translate(195.344 206.163)" fill="#6c63ff" opacity="0.2"/>
    <rect id="Retângulo_356" data-name="Retângulo 356" width="39.223" height="4.36" transform="translate(236.745 206.163)" fill="#e6e8ec"/>
    <rect id="Retângulo_357" data-name="Retângulo 357" width="27.602" height="4.36" transform="translate(236.745 213.43)" fill="#e6e8ec"/>
    <rect id="Retângulo_358" data-name="Retângulo 358" width="39.223" height="4.36" transform="translate(236.745 220.691)" fill="#e6e8ec"/>
    <rect id="Retângulo_359" data-name="Retângulo 359" width="80.624" height="4.36" transform="translate(195.344 227.952)" fill="#e6e8ec"/>
    <rect id="Retângulo_360" data-name="Retângulo 360" width="80.624" height="4.36" transform="translate(195.344 235.219)" fill="#e6e8ec"/>
    <rect id="Retângulo_361" data-name="Retângulo 361" width="80.624" height="4.36" transform="translate(195.344 242.48)" fill="#e6e8ec"/>
    <rect id="Retângulo_362" data-name="Retângulo 362" width="74.087" height="4.36" transform="translate(195.344 249.747)" fill="#e6e8ec"/>
    <rect id="Retângulo_363" data-name="Retângulo 363" width="80.624" height="4.36" transform="translate(195.344 257.008)" fill="#e6e8ec"/>
    <rect id="Retângulo_364" data-name="Retângulo 364" width="80.624" height="4.36" transform="translate(195.344 264.269)" fill="#e6e8ec"/>
    <rect id="Retângulo_365" data-name="Retângulo 365" width="100.236" height="75.54" transform="translate(295.942 199.626)" fill="#fff"/>
    <rect id="Retângulo_366" data-name="Retângulo 366" width="33.41" height="18.882" transform="translate(305.742 206.163)" fill="#6c63ff" opacity="0.2"/>
    <rect id="Retângulo_367" data-name="Retângulo 367" width="39.223" height="4.36" transform="translate(347.148 206.163)" fill="#e6e8ec"/>
    <rect id="Retângulo_368" data-name="Retângulo 368" width="27.602" height="4.36" transform="translate(347.148 213.43)" fill="#e6e8ec"/>
    <rect id="Retângulo_369" data-name="Retângulo 369" width="39.223" height="4.36" transform="translate(347.148 220.691)" fill="#e6e8ec"/>
    <rect id="Retângulo_370" data-name="Retângulo 370" width="80.624" height="4.36" transform="translate(305.742 227.952)" fill="#e6e8ec"/>
    <rect id="Retângulo_371" data-name="Retângulo 371" width="80.624" height="4.36" transform="translate(305.742 235.219)" fill="#e6e8ec"/>
    <rect id="Retângulo_372" data-name="Retângulo 372" width="80.624" height="4.36" transform="translate(305.742 242.48)" fill="#e6e8ec"/>
    <rect id="Retângulo_373" data-name="Retângulo 373" width="74.087" height="4.36" transform="translate(305.742 249.747)" fill="#e6e8ec"/>
    <rect id="Retângulo_374" data-name="Retângulo 374" width="80.624" height="4.36" transform="translate(305.742 257.008)" fill="#e6e8ec"/>
    <rect id="Retângulo_375" data-name="Retângulo 375" width="80.624" height="4.36" transform="translate(305.742 264.269)" fill="#e6e8ec"/>
    <rect id="Retângulo_376" data-name="Retângulo 376" width="100.236" height="75.54" transform="translate(406.34 199.626)" opacity="0.1"/>
    <path id="Caminho_255" data-name="Caminho 255" d="M359.63,310.18H204.973a14.166,14.166,0,0,0-14.193,14.16V538.633a14.166,14.166,0,0,0,14.188,14.149H359.624a14.166,14.166,0,0,0,14.188-14.149V324.34a14.166,14.166,0,0,0-14.182-14.16Z" transform="translate(-117.181 -170.113)" fill="url(#linear-gradient)"/>
    <rect id="Retângulo_377" data-name="Retângulo 377" width="178.677" height="237.513" rx="20" transform="translate(75.781 142.974)" fill="#535461"/>
    <rect id="Retângulo_378" data-name="Retângulo 378" width="160.519" height="192.58" transform="translate(84.858 165.443)" fill="#f1f1f4"/>
    <circle id="Elipse_89" data-name="Elipse 89" cx="2.177" cy="2.177" r="2.177" transform="translate(162.214 151.694)" fill="#fff"/>
    <circle id="Elipse_90" data-name="Elipse 90" cx="6.537" cy="6.537" r="6.537" transform="translate(157.854 362.328)" fill="#fff"/>
    <rect id="Retângulo_379" data-name="Retângulo 379" width="45.783" height="34.507" transform="translate(91.796 185.12)" fill="#fff"/>
    <rect id="Retângulo_380" data-name="Retângulo 380" width="15.263" height="8.627" transform="translate(96.276 188.109)" fill="#6c63ff" opacity="0.2"/>
    <rect id="Retângulo_381" data-name="Retângulo 381" width="17.917" height="1.991" transform="translate(115.186 188.109)" fill="#e6e8ec"/>
    <rect id="Retângulo_382" data-name="Retângulo 382" width="12.608" height="1.991" transform="translate(115.186 191.427)" fill="#e6e8ec"/>
    <rect id="Retângulo_383" data-name="Retângulo 383" width="17.917" height="1.991" transform="translate(115.186 194.745)" fill="#e6e8ec"/>
    <rect id="Retângulo_384" data-name="Retângulo 384" width="36.827" height="1.991" transform="translate(96.276 198.063)" fill="#e6e8ec"/>
    <rect id="Retângulo_385" data-name="Retângulo 385" width="36.827" height="1.991" transform="translate(96.276 201.381)" fill="#e6e8ec"/>
    <rect id="Retângulo_386" data-name="Retângulo 386" width="36.827" height="1.991" transform="translate(96.276 204.699)" fill="#e6e8ec"/>
    <rect id="Retângulo_387" data-name="Retângulo 387" width="33.843" height="1.991" transform="translate(96.276 208.017)" fill="#e6e8ec"/>
    <rect id="Retângulo_388" data-name="Retângulo 388" width="36.827" height="1.991" transform="translate(96.276 211.335)" fill="#e6e8ec"/>
    <rect id="Retângulo_389" data-name="Retângulo 389" width="36.827" height="1.991" transform="translate(96.276 214.653)" fill="#e6e8ec"/>
    <rect id="Retângulo_390" data-name="Retângulo 390" width="45.783" height="34.507" transform="translate(142.229 185.12)" fill="#fff"/>
    <rect id="Retângulo_391" data-name="Retângulo 391" width="15.263" height="8.627" transform="translate(146.704 188.109)" fill="#6c63ff" opacity="0.2"/>
    <rect id="Retângulo_392" data-name="Retângulo 392" width="17.917" height="1.991" transform="translate(165.619 188.109)" fill="#e6e8ec"/>
    <rect id="Retângulo_393" data-name="Retângulo 393" width="12.608" height="1.991" transform="translate(165.619 191.427)" fill="#e6e8ec"/>
    <rect id="Retângulo_394" data-name="Retângulo 394" width="17.917" height="1.991" transform="translate(165.619 194.745)" fill="#e6e8ec"/>
    <rect id="Retângulo_395" data-name="Retângulo 395" width="36.827" height="1.991" transform="translate(146.704 198.063)" fill="#e6e8ec"/>
    <rect id="Retângulo_396" data-name="Retângulo 396" width="36.827" height="1.991" transform="translate(146.704 201.381)" fill="#e6e8ec"/>
    <rect id="Retângulo_397" data-name="Retângulo 397" width="36.827" height="1.991" transform="translate(146.704 204.699)" fill="#e6e8ec"/>
    <rect id="Retângulo_398" data-name="Retângulo 398" width="33.843" height="1.991" transform="translate(146.704 208.017)" fill="#e6e8ec"/>
    <rect id="Retângulo_399" data-name="Retângulo 399" width="36.827" height="1.991" transform="translate(146.704 211.335)" fill="#e6e8ec"/>
    <rect id="Retângulo_400" data-name="Retângulo 400" width="36.827" height="1.991" transform="translate(146.704 214.653)" fill="#e6e8ec"/>
    <rect id="Retângulo_401" data-name="Retângulo 401" width="45.783" height="34.507" transform="translate(192.657 185.12)" fill="#fff"/>
    <rect id="Retângulo_402" data-name="Retângulo 402" width="15.263" height="8.627" transform="translate(197.137 188.109)" fill="#6c63ff" opacity="0.2"/>
    <rect id="Retângulo_403" data-name="Retângulo 403" width="17.917" height="1.991" transform="translate(216.047 188.109)" fill="#e6e8ec"/>
    <rect id="Retângulo_404" data-name="Retângulo 404" width="12.608" height="1.991" transform="translate(216.047 191.427)" fill="#e6e8ec"/>
    <rect id="Retângulo_405" data-name="Retângulo 405" width="17.917" height="1.991" transform="translate(216.047 194.745)" fill="#e6e8ec"/>
    <rect id="Retângulo_406" data-name="Retângulo 406" width="36.827" height="1.991" transform="translate(197.137 198.063)" fill="#e6e8ec"/>
    <rect id="Retângulo_407" data-name="Retângulo 407" width="36.827" height="1.991" transform="translate(197.137 201.381)" fill="#e6e8ec"/>
    <rect id="Retângulo_408" data-name="Retângulo 408" width="36.827" height="1.991" transform="translate(197.137 204.699)" fill="#e6e8ec"/>
    <rect id="Retângulo_409" data-name="Retângulo 409" width="33.843" height="1.991" transform="translate(197.137 208.017)" fill="#e6e8ec"/>
    <rect id="Retângulo_410" data-name="Retângulo 410" width="36.827" height="1.991" transform="translate(197.137 211.335)" fill="#e6e8ec"/>
    <rect id="Retângulo_411" data-name="Retângulo 411" width="36.827" height="1.991" transform="translate(197.137 214.653)" fill="#e6e8ec"/>
    <rect id="Retângulo_412" data-name="Retângulo 412" width="45.783" height="34.507" transform="translate(91.796 223.938)" fill="#fff"/>
    <rect id="Retângulo_413" data-name="Retângulo 413" width="15.263" height="8.627" transform="translate(96.276 226.927)" fill="#6c63ff" opacity="0.2"/>
    <rect id="Retângulo_414" data-name="Retângulo 414" width="17.917" height="1.991" transform="translate(115.186 226.927)" fill="#e6e8ec"/>
    <rect id="Retângulo_415" data-name="Retângulo 415" width="12.608" height="1.991" transform="translate(115.186 230.245)" fill="#e6e8ec"/>
    <rect id="Retângulo_416" data-name="Retângulo 416" width="17.917" height="1.991" transform="translate(115.186 233.563)" fill="#e6e8ec"/>
    <rect id="Retângulo_417" data-name="Retângulo 417" width="36.827" height="1.991" transform="translate(96.276 236.881)" fill="#e6e8ec"/>
    <rect id="Retângulo_418" data-name="Retângulo 418" width="36.827" height="1.991" transform="translate(96.276 240.199)" fill="#e6e8ec"/>
    <rect id="Retângulo_419" data-name="Retângulo 419" width="36.827" height="1.991" transform="translate(96.276 243.517)" fill="#e6e8ec"/>
    <rect id="Retângulo_420" data-name="Retângulo 420" width="33.843" height="1.991" transform="translate(96.276 246.835)" fill="#e6e8ec"/>
    <rect id="Retângulo_421" data-name="Retângulo 421" width="36.827" height="1.991" transform="translate(96.276 250.153)" fill="#e6e8ec"/>
    <rect id="Retângulo_422" data-name="Retângulo 422" width="36.827" height="1.991" transform="translate(96.276 253.471)" fill="#e6e8ec"/>
    <rect id="Retângulo_423" data-name="Retângulo 423" width="45.783" height="34.507" transform="translate(142.229 223.938)" fill="#fff"/>
    <rect id="Retângulo_424" data-name="Retângulo 424" width="15.263" height="8.627" transform="translate(146.704 226.927)" fill="#6c63ff" opacity="0.2"/>
    <rect id="Retângulo_425" data-name="Retângulo 425" width="17.917" height="1.991" transform="translate(165.619 226.927)" fill="#e6e8ec"/>
    <rect id="Retângulo_426" data-name="Retângulo 426" width="12.608" height="1.991" transform="translate(165.619 230.245)" fill="#e6e8ec"/>
    <rect id="Retângulo_427" data-name="Retângulo 427" width="17.917" height="1.991" transform="translate(165.619 233.563)" fill="#e6e8ec"/>
    <rect id="Retângulo_428" data-name="Retângulo 428" width="36.827" height="1.991" transform="translate(146.704 236.881)" fill="#e6e8ec"/>
    <rect id="Retângulo_429" data-name="Retângulo 429" width="36.827" height="1.991" transform="translate(146.704 240.199)" fill="#e6e8ec"/>
    <rect id="Retângulo_430" data-name="Retângulo 430" width="36.827" height="1.991" transform="translate(146.704 243.517)" fill="#e6e8ec"/>
    <rect id="Retângulo_431" data-name="Retângulo 431" width="33.843" height="1.991" transform="translate(146.704 246.835)" fill="#e6e8ec"/>
    <rect id="Retângulo_432" data-name="Retângulo 432" width="36.827" height="1.991" transform="translate(146.704 250.153)" fill="#e6e8ec"/>
    <rect id="Retângulo_433" data-name="Retângulo 433" width="36.827" height="1.991" transform="translate(146.704 253.471)" fill="#e6e8ec"/>
    <rect id="Retângulo_434" data-name="Retângulo 434" width="45.783" height="34.507" transform="translate(192.657 223.938)" fill="#fff"/>
    <rect id="Retângulo_435" data-name="Retângulo 435" width="15.263" height="8.627" transform="translate(197.137 226.927)" fill="#6c63ff" opacity="0.2"/>
    <rect id="Retângulo_436" data-name="Retângulo 436" width="17.917" height="1.991" transform="translate(216.047 226.927)" fill="#e6e8ec"/>
    <rect id="Retângulo_437" data-name="Retângulo 437" width="12.608" height="1.991" transform="translate(216.047 230.245)" fill="#e6e8ec"/>
    <rect id="Retângulo_438" data-name="Retângulo 438" width="17.917" height="1.991" transform="translate(216.047 233.563)" fill="#e6e8ec"/>
    <rect id="Retângulo_439" data-name="Retângulo 439" width="36.827" height="1.991" transform="translate(197.137 236.881)" fill="#e6e8ec"/>
    <rect id="Retângulo_440" data-name="Retângulo 440" width="36.827" height="1.991" transform="translate(197.137 240.199)" fill="#e6e8ec"/>
    <rect id="Retângulo_441" data-name="Retângulo 441" width="36.827" height="1.991" transform="translate(197.137 243.517)" fill="#e6e8ec"/>
    <rect id="Retângulo_442" data-name="Retângulo 442" width="33.843" height="1.991" transform="translate(197.137 246.835)" fill="#e6e8ec"/>
    <rect id="Retângulo_443" data-name="Retângulo 443" width="36.827" height="1.991" transform="translate(197.137 250.153)" fill="#e6e8ec"/>
    <rect id="Retângulo_444" data-name="Retângulo 444" width="36.827" height="1.991" transform="translate(197.137 253.471)" fill="#e6e8ec"/>
    <rect id="Retângulo_445" data-name="Retângulo 445" width="45.783" height="34.507" transform="translate(91.796 264.291)" fill="#fff"/>
    <rect id="Retângulo_446" data-name="Retângulo 446" width="15.263" height="8.627" transform="translate(96.276 267.28)" fill="#6c63ff" opacity="0.2"/>
    <rect id="Retângulo_447" data-name="Retângulo 447" width="17.917" height="1.991" transform="translate(115.186 267.28)" fill="#e6e8ec"/>
    <rect id="Retângulo_448" data-name="Retângulo 448" width="12.608" height="1.991" transform="translate(115.186 270.598)" fill="#e6e8ec"/>
    <rect id="Retângulo_449" data-name="Retângulo 449" width="17.917" height="1.991" transform="translate(115.186 273.916)" fill="#e6e8ec"/>
    <rect id="Retângulo_450" data-name="Retângulo 450" width="36.827" height="1.991" transform="translate(96.276 277.234)" fill="#e6e8ec"/>
    <rect id="Retângulo_451" data-name="Retângulo 451" width="36.827" height="1.991" transform="translate(96.276 280.552)" fill="#e6e8ec"/>
    <rect id="Retângulo_452" data-name="Retângulo 452" width="36.827" height="1.991" transform="translate(96.276 283.87)" fill="#e6e8ec"/>
    <rect id="Retângulo_453" data-name="Retângulo 453" width="33.843" height="1.991" transform="translate(96.276 287.188)" fill="#e6e8ec"/>
    <rect id="Retângulo_454" data-name="Retângulo 454" width="36.827" height="1.991" transform="translate(96.276 290.506)" fill="#e6e8ec"/>
    <rect id="Retângulo_455" data-name="Retângulo 455" width="36.827" height="1.991" transform="translate(96.276 293.824)" fill="#e6e8ec"/>
    <rect id="Retângulo_456" data-name="Retângulo 456" width="45.783" height="34.507" transform="translate(142.229 264.291)" fill="#fff"/>
    <rect id="Retângulo_457" data-name="Retângulo 457" width="15.263" height="8.627" transform="translate(146.704 267.28)" fill="#6c63ff" opacity="0.2"/>
    <rect id="Retângulo_458" data-name="Retângulo 458" width="17.917" height="1.991" transform="translate(165.619 267.28)" fill="#e6e8ec"/>
    <rect id="Retângulo_459" data-name="Retângulo 459" width="12.608" height="1.991" transform="translate(165.619 270.598)" fill="#e6e8ec"/>
    <rect id="Retângulo_460" data-name="Retângulo 460" width="17.917" height="1.991" transform="translate(165.619 273.916)" fill="#e6e8ec"/>
    <rect id="Retângulo_461" data-name="Retângulo 461" width="36.827" height="1.991" transform="translate(146.704 277.234)" fill="#e6e8ec"/>
    <rect id="Retângulo_462" data-name="Retângulo 462" width="36.827" height="1.991" transform="translate(146.704 280.552)" fill="#e6e8ec"/>
    <rect id="Retângulo_463" data-name="Retângulo 463" width="36.827" height="1.991" transform="translate(146.704 283.87)" fill="#e6e8ec"/>
    <rect id="Retângulo_464" data-name="Retângulo 464" width="33.843" height="1.991" transform="translate(146.704 287.188)" fill="#e6e8ec"/>
    <rect id="Retângulo_465" data-name="Retângulo 465" width="36.827" height="1.991" transform="translate(146.704 290.506)" fill="#e6e8ec"/>
    <rect id="Retângulo_466" data-name="Retângulo 466" width="36.827" height="1.991" transform="translate(146.704 293.824)" fill="#e6e8ec"/>
    <rect id="Retângulo_467" data-name="Retângulo 467" width="45.783" height="34.507" transform="translate(192.657 264.291)" fill="#fff"/>
    <rect id="Retângulo_468" data-name="Retângulo 468" width="15.263" height="8.627" transform="translate(197.137 267.28)" fill="#6c63ff" opacity="0.2"/>
    <rect id="Retângulo_469" data-name="Retângulo 469" width="17.917" height="1.991" transform="translate(216.047 267.28)" fill="#e6e8ec"/>
    <rect id="Retângulo_470" data-name="Retângulo 470" width="12.608" height="1.991" transform="translate(216.047 270.598)" fill="#e6e8ec"/>
    <rect id="Retângulo_471" data-name="Retângulo 471" width="17.917" height="1.991" transform="translate(216.047 273.916)" fill="#e6e8ec"/>
    <rect id="Retângulo_472" data-name="Retângulo 472" width="36.827" height="1.991" transform="translate(197.137 277.234)" fill="#e6e8ec"/>
    <rect id="Retângulo_473" data-name="Retângulo 473" width="36.827" height="1.991" transform="translate(197.137 280.552)" fill="#e6e8ec"/>
    <rect id="Retângulo_474" data-name="Retângulo 474" width="36.827" height="1.991" transform="translate(197.137 283.87)" fill="#e6e8ec"/>
    <rect id="Retângulo_475" data-name="Retângulo 475" width="33.843" height="1.991" transform="translate(197.137 287.188)" fill="#e6e8ec"/>
    <rect id="Retângulo_476" data-name="Retângulo 476" width="36.827" height="1.991" transform="translate(197.137 290.506)" fill="#e6e8ec"/>
    <rect id="Retângulo_477" data-name="Retângulo 477" width="36.827" height="1.991" transform="translate(197.137 293.824)" fill="#e6e8ec"/>
    <rect id="Retângulo_478" data-name="Retângulo 478" width="45.783" height="34.507" transform="translate(91.796 303.109)" fill="#fff"/>
    <rect id="Retângulo_479" data-name="Retângulo 479" width="15.263" height="8.627" transform="translate(96.276 306.098)" fill="#6c63ff" opacity="0.2"/>
    <rect id="Retângulo_480" data-name="Retângulo 480" width="17.917" height="1.991" transform="translate(115.186 306.098)" fill="#e6e8ec"/>
    <rect id="Retângulo_481" data-name="Retângulo 481" width="12.608" height="1.991" transform="translate(115.186 309.416)" fill="#e6e8ec"/>
    <rect id="Retângulo_482" data-name="Retângulo 482" width="17.917" height="1.991" transform="translate(115.186 312.734)" fill="#e6e8ec"/>
    <rect id="Retângulo_483" data-name="Retângulo 483" width="36.827" height="1.991" transform="translate(96.276 316.052)" fill="#e6e8ec"/>
    <rect id="Retângulo_484" data-name="Retângulo 484" width="36.827" height="1.991" transform="translate(96.276 319.369)" fill="#e6e8ec"/>
    <rect id="Retângulo_485" data-name="Retângulo 485" width="36.827" height="1.991" transform="translate(96.276 322.687)" fill="#e6e8ec"/>
    <rect id="Retângulo_486" data-name="Retângulo 486" width="33.843" height="1.991" transform="translate(96.276 326.005)" fill="#e6e8ec"/>
    <rect id="Retângulo_487" data-name="Retângulo 487" width="36.827" height="1.991" transform="translate(96.276 329.323)" fill="#e6e8ec"/>
    <rect id="Retângulo_488" data-name="Retângulo 488" width="36.827" height="1.991" transform="translate(96.276 332.641)" fill="#e6e8ec"/>
    <rect id="Retângulo_489" data-name="Retângulo 489" width="45.783" height="34.507" transform="translate(142.229 303.109)" fill="#fff"/>
    <rect id="Retângulo_490" data-name="Retângulo 490" width="15.263" height="8.627" transform="translate(146.704 306.098)" fill="#6c63ff" opacity="0.2"/>
    <rect id="Retângulo_491" data-name="Retângulo 491" width="17.917" height="1.991" transform="translate(165.619 306.098)" fill="#e6e8ec"/>
    <rect id="Retângulo_492" data-name="Retângulo 492" width="12.608" height="1.991" transform="translate(165.619 309.416)" fill="#e6e8ec"/>
    <rect id="Retângulo_493" data-name="Retângulo 493" width="17.917" height="1.991" transform="translate(165.619 312.734)" fill="#e6e8ec"/>
    <rect id="Retângulo_494" data-name="Retângulo 494" width="36.827" height="1.991" transform="translate(146.704 316.052)" fill="#e6e8ec"/>
    <rect id="Retângulo_495" data-name="Retângulo 495" width="36.827" height="1.991" transform="translate(146.704 319.369)" fill="#e6e8ec"/>
    <rect id="Retângulo_496" data-name="Retângulo 496" width="36.827" height="1.991" transform="translate(146.704 322.687)" fill="#e6e8ec"/>
    <rect id="Retângulo_497" data-name="Retângulo 497" width="33.843" height="1.991" transform="translate(146.704 326.005)" fill="#e6e8ec"/>
    <rect id="Retângulo_498" data-name="Retângulo 498" width="36.827" height="1.991" transform="translate(146.704 329.323)" fill="#e6e8ec"/>
    <rect id="Retângulo_499" data-name="Retângulo 499" width="36.827" height="1.991" transform="translate(146.704 332.641)" fill="#e6e8ec"/>
    <rect id="Retângulo_500" data-name="Retângulo 500" width="45.783" height="34.507" transform="translate(192.657 303.109)" opacity="0.1"/>
    <path id="Caminho_256" data-name="Caminho 256" d="M211.842,442.62H132.43a7.854,7.854,0,0,0-7.87,7.837v173.9a7.853,7.853,0,0,0,7.87,7.837h79.412a7.853,7.853,0,0,0,7.87-7.837v-173.9a7.853,7.853,0,0,0-7.87-7.842Z" transform="translate(-87.278 -229.919)" fill="url(#linear-gradient)"/>
    <rect id="Retângulo_501" data-name="Retângulo 501" width="93.699" height="187.397" rx="11" transform="translate(38.011 214.159)" fill="#535461"/>
    <rect id="Retângulo_502" data-name="Retângulo 502" width="79.895" height="152.528" transform="translate(44.911 231.588)" fill="#f1f1f4"/>
    <circle id="Elipse_91" data-name="Elipse 91" cx="0.724" cy="0.724" r="0.724" transform="translate(74.69 222.15)" fill="#fff"/>
    <rect id="Retângulo_503" data-name="Retângulo 503" width="15.981" height="1.453" rx="0.727" transform="translate(79.05 222.144)" fill="#fff"/>
    <circle id="Elipse_92" data-name="Elipse 92" cx="5.084" cy="5.084" r="5.084" transform="translate(79.412 386.299)" fill="#fff"/>
    <rect id="Retângulo_504" data-name="Retângulo 504" width="54.481" height="41.061" transform="translate(57.618 240.72)" opacity="0.1"/>
    <rect id="Retângulo_505" data-name="Retângulo 505" width="54.481" height="41.061" transform="translate(57.618 286.914)" fill="#fff"/>
    <rect id="Retângulo_506" data-name="Retângulo 506" width="18.158" height="10.267" transform="translate(62.948 290.467)" fill="#6c63ff" opacity="0.2"/>
    <rect id="Retângulo_507" data-name="Retângulo 507" width="21.317" height="2.369" transform="translate(85.45 290.467)" fill="#e6e8ec"/>
    <rect id="Retângulo_508" data-name="Retângulo 508" width="15.005" height="2.369" transform="translate(85.45 294.416)" fill="#e6e8ec"/>
    <rect id="Retângulo_509" data-name="Retângulo 509" width="21.317" height="2.369" transform="translate(85.45 298.359)" fill="#e6e8ec"/>
    <rect id="Retângulo_510" data-name="Retângulo 510" width="43.825" height="2.369" transform="translate(62.948 302.308)" fill="#e6e8ec"/>
    <rect id="Retângulo_511" data-name="Retângulo 511" width="43.825" height="2.369" transform="translate(62.948 306.257)" fill="#e6e8ec"/>
    <rect id="Retângulo_512" data-name="Retângulo 512" width="43.825" height="2.369" transform="translate(62.948 310.205)" fill="#e6e8ec"/>
    <rect id="Retângulo_513" data-name="Retângulo 513" width="40.271" height="2.369" transform="translate(62.948 314.154)" fill="#e6e8ec"/>
    <rect id="Retângulo_514" data-name="Retângulo 514" width="43.825" height="2.369" transform="translate(62.948 318.103)" fill="#e6e8ec"/>
    <rect id="Retângulo_515" data-name="Retângulo 515" width="43.825" height="2.369" transform="translate(62.948 322.051)" fill="#e6e8ec"/>
    <rect id="Retângulo_516" data-name="Retângulo 516" width="54.481" height="41.061" transform="translate(57.618 333.201)" fill="#fff"/>
    <rect id="Retângulo_517" data-name="Retângulo 517" width="18.158" height="10.267" transform="translate(62.948 336.755)" fill="#6c63ff" opacity="0.2"/>
    <rect id="Retângulo_518" data-name="Retângulo 518" width="21.317" height="2.369" transform="translate(85.45 336.755)" fill="#e6e8ec"/>
    <rect id="Retângulo_519" data-name="Retângulo 519" width="15.005" height="2.369" transform="translate(85.45 340.703)" fill="#e6e8ec"/>
    <rect id="Retângulo_520" data-name="Retângulo 520" width="21.317" height="2.369" transform="translate(85.45 344.652)" fill="#e6e8ec"/>
    <rect id="Retângulo_521" data-name="Retângulo 521" width="43.825" height="2.369" transform="translate(62.948 348.601)" fill="#e6e8ec"/>
    <rect id="Retângulo_522" data-name="Retângulo 522" width="43.825" height="2.369" transform="translate(62.948 352.549)" fill="#e6e8ec"/>
    <rect id="Retângulo_523" data-name="Retângulo 523" width="43.825" height="2.369" transform="translate(62.948 356.498)" fill="#e6e8ec"/>
    <rect id="Retângulo_524" data-name="Retângulo 524" width="40.271" height="2.369" transform="translate(62.948 360.447)" fill="#e6e8ec"/>
    <rect id="Retângulo_525" data-name="Retângulo 525" width="43.825" height="2.369" transform="translate(62.948 364.39)" fill="#e6e8ec"/>
    <rect id="Retângulo_526" data-name="Retângulo 526" width="43.825" height="2.369" transform="translate(62.948 368.339)" fill="#e6e8ec"/>
    <path id="Caminho_257" data-name="Caminho 257" d="M475.621,656.148c-3.685-4.47-8.15-9.608-7.524-15.559.5-4.821-.707-9.274-.466-14.105.34-6.866-1.047-12.246-5.994-16.65-2.89-2.572-7.722-4.6-9.159-4.08-2.852,1.02-5.961.631-8.9,1.316a9.006,9.006,0,0,0-4.629,2.325c-1.848,1.645-1.881,3.982-1.037,6.477a10.936,10.936,0,0,0,5.418,15.356c-2.057.856-3.839,2.835-4.525,6.85a46.843,46.843,0,0,1-2.194,8.095,13.141,13.141,0,0,1-1.338.548c.1.038.2.066.307.1-.214.082-.433.164-.647.241a7.063,7.063,0,0,0,1.217.351,46.522,46.522,0,0,1-5.978,10.9s-6.208,1.371-8.621-1.026c0,0,.395.461.927,1.152-2.364-.982-6.236-2.578-9.548-3.894-2.4-.954-3.022,0-2.989,1.327a4.437,4.437,0,0,0-1.678.548,16.209,16.209,0,0,0-2.227-1.2c-1.382-.34-5.863-2.742-10.349,5.484-2.611,4.788-9.323,13.519-14.451,19.985-10.009,4.6-23.034,10.42-27.871,11.9h-3.093c-.406-.664-.691-1.1-.691-1.1l-.241.159-.1-.159s-6.093,4.217-12.279,4.25a11.643,11.643,0,0,1-2.611-.34,25.6,25.6,0,0,0-6.279-1.009c-1.695-.027-2.654.373-3.252,1.13h0a2.979,2.979,0,0,0-.214.313h0a3.682,3.682,0,0,0-.181.346h0c-.055.121-.1.247-.154.378a.773.773,0,0,0,.192.647,3.451,3.451,0,0,0,.269.34l.17.186a27.42,27.42,0,0,0,3.965,3.066c.51.346,1.047.7,1.612,1.058l1.069.68.954.6.384.236.428.263.762.466.455.274.856.51.691.411c1.81,1.1,3.62,2.106,5.243,3.022l1.141.642.11.06.729.406,1.267.7.872.477.406.225.439.236.088.049.757.411a1.1,1.1,0,0,0,.883-.241c.219-.932.757-2.929,1.327-3.082s3.06-4.519,3.768-7.426h6.729a29.692,29.692,0,0,0,3.932-.6c-1.739,1.24-3.461,2.018-4.8,1.684-2.83-.7-5.512,1.02-5.78,2.742l-.033.1v.79a.229.229,0,0,0,.033.137c.033.044,0,.06,0,.088a1.645,1.645,0,0,0,.071.176v.044a1.8,1.8,0,0,0,.126.208l.055.071.11.137.077.077.126.121.093.077.148.11.11.071.181.1.121.066.225.1.115.049c.121.049.247.1.384.143s.472.143.762.214l.291.071.422.1.225.049.921.187.45.082.367.066.845.148,1.645.269,1.453.219,1.892.269.417.055.68.093.976.132.669.088h0l1.728.219.548.066,1.1.132c1.431.17,2.819.335,4.091.477l1.475.165.746.082.318.033.894.1.5.055.609.066.861.088h.093l.548.055h0a.5.5,0,0,0,.548-.488h0v-.055a.488.488,0,0,0,.082-.263,11.328,11.328,0,0,1,.307-2.435c.038-.137.082-.28.126-.417l.055-.159c.06-.17.121-.34.192-.516a3.694,3.694,0,0,0,.126-.378l.033-.121a1.038,1.038,0,0,1,.049-.208c.7-2.369-.143-6.784-.384-8.517a9.251,9.251,0,0,0-.378-1.645.659.659,0,0,0,.132,0,3.924,3.924,0,0,0,1-.548c5.084-1.815,9.378-3.888,10.733-5.967a9.29,9.29,0,0,1,6.581.686c2.632,1.311,22.557,7.81,31.836,10.815,1.645,1.437,2.972,2.276,3.691,2.194,0,0,11.808,1.908,16.557-1.821.422.291.686.45.686.45s6.9-3.428,7.936-7.881c.335-1.442.636-3.576.943-5.934a8.627,8.627,0,0,0,2.506-6.066c.214-7.486,3.115-16.036,5.265-23.654,2.611.2,3.62-.285,6.033-1.47l-.1-.137Zm-39.553,11.21-1.316-.444a10.968,10.968,0,0,0,1.146-1.909Zm-7.426,3.148,8,4.8.071.976a7,7,0,0,0,.066,2.232c-3.521-3.131-7.645-6.932-8.128-8.007Zm-3.263-6.987c-.872-.362-1.6-.685-2.09-.954l1.854.115a4.138,4.138,0,0,1,.241.839Zm-21.389,7.815s1.382-3.082,4.486,2.057c.483.8,1.371,2.068,2.545,3.647l-9.027-1.212a13.162,13.162,0,0,0,1.985-4.492Z" transform="translate(-177.458 -303.55)" fill="url(#linear-gradient-4)"/>
    <path id="Caminho_258" data-name="Caminho 258" d="M494.152,698.664S487.823,696,482.833,694s-2,4.662-2,4.662,8.325,2.331,8.325,2.665,6.992.664,6.992.664Z" transform="translate(-247.761 -343.268)" fill="#f7c4a7"/>
    <path id="Caminho_259" data-name="Caminho 259" d="M494.152,698.664S487.823,696,482.833,694s-2,4.662-2,4.662,8.325,2.331,8.325,2.665,6.992.664,6.992.664Z" transform="translate(-247.761 -343.268)" opacity="0.05"/>
    <path id="Caminho_260" data-name="Caminho 260" d="M530.335,653.581s-11.32-5.994-13.321,5.66a47.576,47.576,0,0,1-8.309,19.65s-5.994,1.333-8.325-1c0,0,5.66,6.658,2.994,7.327,0,0,5.994,4.327,8.66,2.994s4.662-10.321,5.66-12.652S522.355,652.912,530.335,653.581Z" transform="translate(-256.988 -324.488)" fill="#575988"/>
    <path id="Caminho_261" data-name="Caminho 261" d="M530.335,653.581s-11.32-5.994-13.321,5.66a47.576,47.576,0,0,1-8.309,19.65s-5.994,1.333-8.325-1c0,0,5.66,6.658,2.994,7.327,0,0,5.994,4.327,8.66,2.994s4.662-10.321,5.66-12.652S522.355,652.912,530.335,653.581Z" transform="translate(-256.988 -324.488)" opacity="0.1"/>
    <path id="Caminho_262" data-name="Caminho 262" d="M543.49,640.4s6.992,7.991,7.327,14.648,7.991-6.992,8.66-7.327-6.663-11.649-7.332-15.307S543.49,640.4,543.49,640.4Z" transform="translate(-276.456 -315.304)" fill="#f7c4a7"/>
    <path id="Caminho_263" data-name="Caminho 263" d="M492.069,598.67l-4.409,3.993,2.079,8.407,5.66-5.325-.664-5.325Z" transform="translate(-220.209 -270.158)" fill="#f7c4a7"/>
    <path id="Caminho_264" data-name="Caminho 264" d="M321.526,706.59H313.87l2.994,7.322,7.327-2Z" transform="translate(-141.73 -318.892)" fill="#f7c4a7"/>
    <path id="Caminho_265" data-name="Caminho 265" d="M353.813,759.78s-7.919,5.523-14.7,3.8-8.616-1.1-9.405,1.146c-.729,2.04,18.926,12.839,22.058,14.544a.357.357,0,0,0,.548-.236c.214-.9.729-2.846,1.278-2.994.718-.192,4-6.318,3.839-8.736S353.813,759.78,353.813,759.78Z" transform="translate(-179.907 -373.141)" opacity="0.1"/>
    <path id="Caminho_266" data-name="Caminho 266" d="M353.213,759.78s-7.919,5.523-14.7,3.8-8.616-1.1-9.406,1.146c-.729,2.04,18.926,12.839,22.058,14.544a.356.356,0,0,0,.548-.236c.214-.9.729-2.846,1.278-2.994.718-.192,4-6.318,3.839-8.736S353.213,759.78,353.213,759.78Z" transform="translate(-179.636 -373.141)" fill="#f3b5b7"/>
    <path id="Caminho_267" data-name="Caminho 267" d="M440.672,733.134l-22.31-2.995s-36.295,17.314-40.622,17.648l1,7.678H385.4c2.665,0,28.633-5.66,32.3-11.32a8.918,8.918,0,0,1,6.329.664c3.329,1.645,35.3,11.989,35.3,11.989Z" transform="translate(-201.607 -359.756)" fill="#575988"/>
    <path id="Caminho_268" data-name="Caminho 268" d="M440.672,733.134l-22.31-2.995s-36.295,17.314-40.622,17.648l1,7.678H385.4c2.665,0,28.633-5.66,32.3-11.32a8.918,8.918,0,0,1,6.329.664c3.329,1.645,35.3,11.989,35.3,11.989Z" transform="translate(-201.607 -359.756)" opacity="0.1"/>
    <path id="Caminho_269" data-name="Caminho 269" d="M360.633,699.3l-3.663,4.662,3.663,2,5.331-3.993Z" transform="translate(-161.193 -315.6)" fill="#f7c4a7"/>
    <path id="Caminho_270" data-name="Caminho 270" d="M482.756,722.025s-11.978-10.256-12.817-12.12-20.478-14.511-21.811-14.846-5.66-2.665-9.987,5.325-20.292,27.3-20.292,27.3,5,6.992,6.658,6.658S444.8,718.362,446.149,710.7c0,0,1.333-2.994,4.327,2s22.31,28.968,25.973,28.633c0,0,14.319,2.331,17.314-3.329S482.756,722.025,482.756,722.025Z" transform="translate(-219.72 -343.656)" fill="#575988"/>
    <rect id="Retângulo_527" data-name="Retângulo 527" width="49.857" height="37.573" transform="translate(209.817 324.612)" fill="url(#linear-gradient-5)"/>
    <rect id="Retângulo_528" data-name="Retângulo 528" width="45.783" height="34.507" transform="translate(211.852 326.143)" fill="#fff"/>
    <rect id="Retângulo_529" data-name="Retângulo 529" width="15.263" height="8.627" transform="translate(216.332 329.131)" fill="#6c63ff" opacity="0.2"/>
    <rect id="Retângulo_530" data-name="Retângulo 530" width="17.917" height="1.991" transform="translate(235.242 329.131)" fill="#e6e8ec"/>
    <rect id="Retângulo_531" data-name="Retângulo 531" width="12.608" height="1.991" transform="translate(235.242 332.449)" fill="#e6e8ec"/>
    <rect id="Retângulo_532" data-name="Retângulo 532" width="17.917" height="1.991" transform="translate(235.242 335.767)" fill="#e6e8ec"/>
    <rect id="Retângulo_533" data-name="Retângulo 533" width="36.827" height="1.991" transform="translate(216.332 339.085)" fill="#e6e8ec"/>
    <rect id="Retângulo_534" data-name="Retângulo 534" width="36.827" height="1.991" transform="translate(216.332 342.403)" fill="#e6e8ec"/>
    <rect id="Retângulo_535" data-name="Retângulo 535" width="36.827" height="1.991" transform="translate(216.332 345.721)" fill="#e6e8ec"/>
    <rect id="Retângulo_536" data-name="Retângulo 536" width="33.843" height="1.991" transform="translate(216.332 349.039)" fill="#e6e8ec"/>
    <rect id="Retângulo_537" data-name="Retângulo 537" width="36.827" height="1.991" transform="translate(216.332 352.357)" fill="#e6e8ec"/>
    <rect id="Retângulo_538" data-name="Retângulo 538" width="36.827" height="1.991" transform="translate(216.332 355.675)" fill="#e6e8ec"/>
    <path id="Caminho_271" data-name="Caminho 271" d="M538.625,655.331s-4.163,1.832-4.5,9.488-7.678,20.643-7.678,20.643l.664,15.318s7.991,7.991,8.66,12.987,6.334,8.325,6.334,8.325,6.658-3.329,7.678-7.678,1.645-14.983,3.329-18.981.664-28.968.664-28.968l-5-8.66-2.665-2.995-6.992,7.991S535.3,657.656,538.625,655.331Z" transform="translate(-268.761 -325.739)" fill="#f3b5b7"/>
    <path id="Caminho_272" data-name="Caminho 272" d="M528.27,696.158s-1-11.989,2-14.649l5.994-17s2.166-8.155,1.832-8.824-7.826,6.493-7.826,6.493l-5,17.648,1.333,18.647Z" transform="translate(-268.228 -326.113)" opacity="0.1"/>
    <path id="Caminho_273" data-name="Caminho 273" d="M527.66,696.023s-1-11.989,2-14.648l5.994-17s2.331-8.325,2-8.989-7.991,6.658-7.991,6.658l-5,17.648,1.333,18.647Z" transform="translate(-267.953 -325.979)" fill="#575988"/>
    <path id="Caminho_274" data-name="Caminho 274" d="M506.817,709.315s-16.661-5.325-17.648-6.658-11.654-9.987-15.318-4,13.65,7.678,13.65,7.678l17.648,10.656Z" transform="translate(-244.779 -344.597)" fill="#f7c4a7"/>
    <path id="Caminho_275" data-name="Caminho 275" d="M402.766,762.128l-4.936-.888s-8.073,10.338-12.274,9.29-8.073,3.477-3.631,4.936c4.015,1.311,21.339,3.148,24.652,3.488a.483.483,0,0,0,.548-.472,10.6,10.6,0,0,1,.735-3.751c.888-2.194,0-6.866-.247-8.643a8.6,8.6,0,0,0-.971-2.989Z" transform="translate(-202.607 -373.8)" opacity="0.1"/>
    <path id="Caminho_276" data-name="Caminho 276" d="M402.608,762.718l-4.936-.888s-8.062,10.343-12.29,9.29-8.073,3.477-3.631,4.936c4.014,1.311,21.339,3.148,24.652,3.488a.483.483,0,0,0,.548-.472,10.6,10.6,0,0,1,.735-3.751c.888-2.194,0-6.866-.247-8.643a8.6,8.6,0,0,0-.971-2.989Z" transform="translate(-202.525 -374.066)" fill="#f3b5b7"/>
    <circle id="Elipse_93" data-name="Elipse 93" cx="10.656" cy="10.656" r="10.656" transform="translate(258.874 307.617)" opacity="0.1"/>
    <circle id="Elipse_94" data-name="Elipse 94" cx="10.656" cy="10.656" r="10.656" transform="translate(257.876 307.617)" fill="#f7c4a7"/>
    <path id="Caminho_277" data-name="Caminho 277" d="M553.4,654.24s12.652,4.327,12.652,13.321-6.992,23.308-7.327,34.962-18.647,9.987-18.647,9.987-2.665-39.289,0-42.289S554.729,655.573,553.4,654.24Z" transform="translate(-274.378 -325.481)" fill="#575988"/>
    <path id="Caminho_278" data-name="Caminho 278" d="M545.663,681.047s-4.662,20.643-15.652,17c0,0-5.66,8.325-1.645,11.989,0,0,9.658,2.331,15.981-4s10.974-8.671,11.972-16.349,1.645-18.312-1.645-17.314S545.663,681.047,545.663,681.047Z" transform="translate(-268.976 -333.642)" opacity="0.1"/>
    <path id="Caminho_279" data-name="Caminho 279" d="M546.273,680.464s-4.662,20.643-15.652,17c0,0-5.66,8.325-1.645,11.989,0,0,9.658,2.331,15.981-4s10.969-8.66,11.989-16.316,1.645-18.312-1.645-17.314S546.273,680.464,546.273,680.464Z" transform="translate(-269.251 -333.393)" fill="#575988"/>
    <path id="Caminho_280" data-name="Caminho 280" d="M430.711,784.48a.105.105,0,0,1-.033.093,9.75,9.75,0,0,0-.548,1.76,6.494,6.494,0,0,1,.28-.8,4.836,4.836,0,0,0,.3-1.058Z" transform="translate(-225.265 -384.294)" fill="#dddbe2"/>
    <path id="Caminho_281" data-name="Caminho 281" d="M382.054,784.379c-1.371-.45-1.947-1.19-1.969-1.969-.548,1.1-.208,2.3,1.728,2.94,4.014,1.311,21.345,3.148,24.652,3.488a.483.483,0,0,0,.548-.477h0a.488.488,0,0,0-.433-.494C402.933,787.472,386.014,785.668,382.054,784.379Z" transform="translate(-202.56 -383.36)" fill="#dddbe2"/>
    <path id="Caminho_282" data-name="Caminho 282" d="M329.554,767.147a4.106,4.106,0,0,1,.324-.707,3.247,3.247,0,0,0-.784,1.294c-.729,2.04,18.926,12.833,22.058,14.544a.362.362,0,0,0,.548-.236h0a.362.362,0,0,0-.175-.4C348.047,779.745,328.83,769.166,329.554,767.147Z" transform="translate(-179.631 -376.148)" fill="#dddbe2"/>
    <path id="Caminho_283" data-name="Caminho 283" d="M373.04,788.229c-.176.049-.351.28-.51.609h.055c.143-.038.395-.324.7-.768a.648.648,0,0,1-.247.159Z" transform="translate(-199.255 -385.915)" fill="#dddbe2"/>
    <path id="Caminho_284" data-name="Caminho 284" d="M534.678,632.409c-.938,2.068-1.135,4.387-1.826,6.581a14.462,14.462,0,0,1-8.912,9.246c3.461,1.382,7.541-.307,10.217-3.1s4.239-6.521,5.742-10.14c3.883,2.611,3.411,8.61,4.711,13.283a14.731,14.731,0,0,0,7.843,9.373,14.04,14.04,0,0,0,12.01-.241c-3.559-4.344-8.627-10.3-8.023-16.08.488-4.684-2.874-8.259-2.638-12.954.329-6.669-2.194-10.042-6.992-14.319-2.792-2.5,1.6-6.033-2-5-1.415.406-2.907-1.1-4.294-.609-2.742.987-5.753.614-8.583,1.278C517.222,613.171,536.038,629.388,534.678,632.409Z" transform="translate(-267.627 -304.759)" opacity="0.1"/>
    <path id="Caminho_285" data-name="Caminho 285" d="M535.288,631.716c-.938,2.068-1.135,4.387-1.826,6.581a14.462,14.462,0,0,1-8.912,9.246c3.461,1.382,7.541-.307,10.217-3.1s4.239-6.521,5.742-10.14c3.883,2.611,3.411,8.61,4.711,13.283a14.731,14.731,0,0,0,7.842,9.373,14.04,14.04,0,0,0,12.011-.241c-3.559-4.344-8.292-9.323-7.678-15.082.488-4.684-.241-9.493,0-14.188.329-6.669-2.934-13.091-7.711-17.369-2.792-2.5-7.13-2.819-8.539-2.32-2.742.987-5.753.614-8.583,1.278C517.832,612.483,536.659,628.694,535.288,631.716Z" transform="translate(-267.903 -304.4)" fill="#b96b6b"/>
    <path id="Caminho_286" data-name="Caminho 286" d="M212.428,646.343c19.195-5.907,30.525-5.418,30.525-5.418L241.38,632a6.744,6.744,0,0,0,1.327-1.168s-1.969-10.831,0-13.541,7.387-27.323,7.387-27.323V581.6c9.872-3.444,21.416-23.385,21.416-23.385l14.528,37.408s14.522,28.8,16.491,29.785c1.574.784,2.358,7.228,2.616,9.789l-.121.038c.06.62.088,1,.088,1l.115-.077v.077a5.65,5.65,0,0,1,.768-.45,126.9,126.9,0,0,1-10.612,11.034c-1.947,1.706,1.547,3.022,3.181,2.994a8.015,8.015,0,0,1,2.742.389c8.276,2.857,21.882-7.574,21.882-7.574l-3.406-9.5c.888-.071,1.437-.1,1.437-.1s-11.078-38.894-16.25-42.591a23.579,23.579,0,0,1-4.387-4.157,15.356,15.356,0,0,1-3.472-10.661l1.815-31.913c2.918-.428,4.8-.784,4.8-.784s.68-8.72.658-15.411c0-3.482-.143-6.537-.658-7.733-.609-1.415-.8-4.245-.812-7.086,0-3.839.318-7.437.318-7.437s3.938-5.172,9.356-17a28.364,28.364,0,0,0,2.951-12.274,16.745,16.745,0,0,0-.395-4.091,5.128,5.128,0,0,0-2.32-3.219c-3.115-1.909-10.206-6.62-12.3-11.182-2.654-5.791-6.488-6.614-6.641-6.647l-.236-1.02a9.57,9.57,0,0,0,3.082-4.673c.8-2.468.965-5.1,1.645-7.607.329-1.207.784-2.375,1.1-3.581a14.143,14.143,0,0,0,.444-3.718,11.517,11.517,0,0,0-1.1-5.292,8.878,8.878,0,0,0-6.691-5.013c-1.59-.186-3.351.088-4.656-.839-.9-.642-1.371-1.733-2.194-2.5-1.563-1.481-4.064-1.4-6.1-.713a12.992,12.992,0,0,0-6.669,5.194c-.949,1.459-1.612,3.132-2.83,4.387a41.523,41.523,0,0,1-3.5,2.649,7.13,7.13,0,0,0-2.742,5.484v.494a4.879,4.879,0,0,0,3.6,4.651,5.319,5.319,0,0,0,1.645.044,13.294,13.294,0,0,0,9.866,16.431c-.033.176-.071.351-.11.548h.115a19,19,0,0,1-.888,2.5h-.159l.4-.713-5.649-.389a9.466,9.466,0,0,0-4.782.894,7.212,7.212,0,0,0-4.338,6.142c-.494,6.373-12.559,15.97-12.559,15.97-4.185,6.647-31.513,7.875-31.513,7.875s.121.154.176.236l-.548-.1-2.068-.378s-6.4-18.954-12.553-15.51,10.585,22.156,10.585,22.156l4.837.324.488.033a29.535,29.535,0,0,1-.762,3.636h0c-.066.241-.115.395-.126.433h0a203.942,203.942,0,0,1,23.533-1.234h.976l.691-.033c.548,5.939,9.016,18.01,9.016,18.01l5.227,1.1.395.082a43.7,43.7,0,0,1-6.362,9.647l-1.722,9.6.137-.033-.137.773a1.859,1.859,0,0,0,.8-.417c-3.373,8.95-8.967,22.88-12.855,27.739-5.907,7.387-5.172,19.195-5.172,19.195s-5.907,31.019-5.66,36.679a14.588,14.588,0,0,1-2.133,7.749,25.62,25.62,0,0,0-3.038,4.316c-4.431,7.634-11.572,7.129-11.572,7.129C205.068,643.14,212.428,646.343,212.428,646.343ZM250.45,496.189h0l.636-.252.148-.06.609-.263.1-.049.548-.252.121-.055.581-.291.137-.071.548-.291h.044l.548-.318.132-.077.548-.318.088-.055.477-.291.11-.066.51-.324.115-.077.472-.313.044-.027.483-.335.11-.077.461-.329.071-.049.406-.3.088-.066.422-.324.088-.066.384-.3h.033l.389-.313.082-.066.367-.3.033-.027.329-.28.055-.049.324-.28.049-.044.3-.269h0l.285-.258.038-.038.548-.548.8-.066a7.548,7.548,0,0,1,.976,4.239,55.884,55.884,0,0,1-1.47,10.283,32.068,32.068,0,0,1-1.459,8.3,4.891,4.891,0,0,1-1.739-.422s-.033.176-.082.472l-.472-.121-2.4-.6S254.481,500.379,250.45,496.189Z" transform="translate(-122.574 -217.633)" fill="url(#linear-gradient-6)"/>
    <path id="Caminho_287" data-name="Caminho 287" d="M392.416,801.79l4.568,12.729s-12.51,9.6-20.637,7.612a22.709,22.709,0,0,0-3.729-.6c-1.684-.126-4.579-1.349-2.791-2.912,5.769-5.046,13.458-14.418,13.458-14.418Z" transform="translate(-197.78 -392.111)" fill="#4f4d59"/>
    <path id="Caminho_288" data-name="Caminho 288" d="M247.282,797.191l2.161,12.257s-11.056-.483-29.8,5.287c0,0-7.212-3.126-1.2-6.971,0,0,6.97.483,11.3-6.97s6.971-6.488,6.971-6.488Z" transform="translate(-128.592 -388.713)" fill="#4f4d59"/>
    <path id="Caminho_289" data-name="Caminho 289" d="M316.744,618.61,314.627,655.9a15.427,15.427,0,0,0,3.68,10.908,22.612,22.612,0,0,0,3.971,3.7c5.046,3.6,15.86,41.576,15.86,41.576s-12.257.718-15.619,3.126c0,0-.718-9.614-2.643-10.574s-16.1-29.067-16.1-29.067l-14.188-36.536s-11.3,19.469-20.912,22.831v8.172s-5.287,24.032-7.212,26.675,0,13.217,0,13.217-5.528,6.971-18.263-.483c0,0,4.086-4.568,3.839-10.1s5.539-35.8,5.539-35.8-.718-11.517,5.046-18.745,15.356-34.847,15.356-34.847l6.614-14.232Z" transform="translate(-140.853 -299.06)" fill="#787c9c"/>
    <g id="Grupo_424" data-name="Grupo 424" transform="translate(111.895 296.681)" opacity="0.1">
      <path id="Caminho_290" data-name="Caminho 290" d="M365.343,712.11s-10.815-37.973-15.86-41.576a22.9,22.9,0,0,1-4.174-3.943,15.252,15.252,0,0,1-3.472-10.661l2.117-37.293L308.51,596.786l.483-1.037,37.123,22.88L344,655.923a15.252,15.252,0,0,0,3.472,10.661,22.9,22.9,0,0,0,4.173,3.943c5.046,3.6,15.861,41.576,15.861,41.576s-12.257.718-15.619,3.126c0,0-.027-.373-.088-.982C356.525,712.631,365.343,712.11,365.343,712.11Z" transform="translate(-282.24 -595.75)"/>
      <path id="Caminho_291" data-name="Caminho 291" d="M267.049,745.625s-1.925-10.574,0-13.217,7.212-26.675,7.212-26.675v-8.172c9.614-3.367,20.912-22.831,20.912-22.831l.839,2.166c-3.258,5.166-11.95,17.994-19.584,20.665v8.172s-5.287,24.032-7.212,26.675,0,13.217,0,13.217-2.682,3.373-8.6,2.918A9.466,9.466,0,0,0,267.049,745.625Z" transform="translate(-260.61 -631.415)"/>
    </g>
    <path id="Caminho_292" data-name="Caminho 292" d="M216.928,543.031l4.722.313,2.49.164v-6.033l-3.291-.592-2.024-.367s-6.247-18.5-12.257-15.142S216.928,543.031,216.928,543.031Z" transform="translate(-123.712 -265.298)" fill="#714b4f"/>
    <path id="Caminho_293" data-name="Caminho 293" d="M349.553,470.93s3.126,12.016,4.086,19.469-22.348,1.442-22.348,1.442,8.89-10.815,3.839-16.584Z" transform="translate(-180.632 -242.704)" fill="#714b4f"/>
    <path id="Caminho_294" data-name="Caminho 294" d="M317.194,528.442l-.483,4.568,7.448-.483,7.448-6.488,7.448-20.912,4.815-7.442,3.6-4.568-1.442-5.528s-.658.548-1.771,1.426c-3.658,2.8-12.246,8.621-18.52,7.014a7.5,7.5,0,0,1-.856-.269l-9.373,16.1Z" transform="translate(-173.506 -250.227)" fill="#e6e6f0"/>
    <path id="Caminho_295" data-name="Caminho 295" d="M307.5,485s3.839.718,6.488,6.488c2.035,4.437,8.9,9.011,11.961,10.892a5.128,5.128,0,0,1,2.325,3.241c.62,2.742.856,7.842-2.512,15.191-5.287,11.517-9.131,16.584-9.131,16.584s-.96,11.517.483,14.9,0,21.871,0,21.871-25.228,4.8-33.646,0-7.212-23.357-7.212-23.357-7.93,16.837-10.8,17.319l1.645-9.373s9.373-10.1,9.872-23.072c0,0,2.885-11.775.483-14.9,0,0-40.616,3.367-43.019.483,0,0,26.675-1.2,30.761-7.678,0,0,11.775-9.373,12.257-15.619a6.91,6.91,0,0,1,3.6-5.66,9.411,9.411,0,0,1,5.386-1.2l5.429.373s-9.367,16.552-8.868,18.745-.483,19.7-.483,19.7,10.815-23.314,15.619-25.957,10.316-13.491,10.316-13.491L307.5,485" transform="translate(-136.897 -249.057)" opacity="0.1"/>
    <path id="Caminho_296" data-name="Caminho 296" d="M317.194,528.442l-.483,4.568,7.448-.483,7.448-6.488,7.448-20.912,4.815-7.442,3.6-4.568-1.442-5.528s-.658.548-1.771,1.426l.329,1.9s-5.528,10.853-10.332,13.5-15.619,25.957-15.619,25.957.96-17.55.483-19.7c-.329-1.47,3.883-9.57,6.62-14.632a7.5,7.5,0,0,1-.856-.269l-9.373,16.1Z" transform="translate(-173.506 -250.227)" opacity="0.1"/>
    <path id="Caminho_297" data-name="Caminho 297" d="M234.5,556.46l2.49.165v-6.033L233.7,550C234.857,551.536,234.819,554.2,234.5,556.46Z" transform="translate(-136.563 -278.409)" opacity="0.1"/>
    <path id="Caminho_298" data-name="Caminho 298" d="M307.5,483.64s3.839.718,6.488,6.488c2.035,4.437,8.9,9.011,11.961,10.892a5.128,5.128,0,0,1,2.325,3.241c.62,2.742.856,7.842-2.512,15.191-5.287,11.517-9.131,16.584-9.131,16.584s-.96,11.517.483,14.9,0,21.871,0,21.871-25.228,4.8-33.646,0-7.212-23.314-7.212-23.314-7.93,16.82-10.8,17.3l1.645-9.373s9.373-10.1,9.872-23.072c0,0,2.885-11.775.483-14.9,0,0-9.373,10.1-19.946,9.872a203.059,203.059,0,0,0-23.072,1.2s2.4-7.678,0-10.574c0,0,26.675-1.2,30.761-7.678,0,0,11.775-9.373,12.257-15.619a6.91,6.91,0,0,1,3.609-5.682,9.411,9.411,0,0,1,5.386-1.2l5.429.373s-9.373,16.573-8.874,18.734-.483,19.7-.483,19.7,10.815-23.314,15.619-25.957,10.332-13.5,10.332-13.5l-.96-5.484" transform="translate(-136.897 -248.443)" fill="#67647e"/>
    <path id="Caminho_299" data-name="Caminho 299" d="M344.855,529.65s-5.769,19.469-9.131,21.871-23.791,14.659-29.8,11.775c0,0-1.442,7.212.718,8.89,0,0,22.409-.878,22.59-.96,0,0,14.659-1.925,17.062-9.131s5.287-19.469,5.287-19.469Z" transform="translate(-168.963 -269.22)" opacity="0.1"/>
    <ellipse id="Elipse_95" data-name="Elipse 95" cx="0.839" cy="1.201" rx="0.839" ry="1.201" transform="translate(144.291 280.02)" fill="#ba7855"/>
    <ellipse id="Elipse_96" data-name="Elipse 96" cx="0.839" cy="1.201" rx="0.839" ry="1.201" transform="translate(141.889 288.433)" fill="#ba7855"/>
    <g id="Grupo_425" data-name="Grupo 425" transform="translate(97.543 235.17)" opacity="0.1">
      <path id="Caminho_300" data-name="Caminho 300" d="M359.88,572.539s1.442-18.5,0-21.871-.483-14.9-.483-14.9,3.839-5.046,9.131-16.584c3.367-7.349,3.126-12.449,2.512-15.191a5.128,5.128,0,0,0-2.331-3.241c-3.066-1.881-9.927-6.455-11.956-10.892a12.485,12.485,0,0,0-4.716-5.72l-.093-.548s3.839.718,6.488,6.488c2.035,4.437,8.9,9.011,11.956,10.892a5.128,5.128,0,0,1,2.331,3.241c.62,2.742.856,7.842-2.512,15.191-5.287,11.517-9.131,16.584-9.131,16.584s-.96,11.517.483,14.9,0,21.871,0,21.871-18.027,3.433-28.688,1.6C343.641,575.632,359.88,572.539,359.88,572.539Z" transform="translate(-278.888 -483.59)"/>
      <path id="Caminho_301" data-name="Caminho 301" d="M321.221,514.1c.329,1.481,0,10.19-.269,15.52-1.163,2.375-1.892,3.943-1.892,3.943s.96-17.55.483-19.7c-.455-2.057,7.985-17.138,8.824-18.647l1.749.121S320.722,511.937,321.221,514.1Z" transform="translate(-272.652 -488.837)"/>
      <path id="Caminho_302" data-name="Caminho 302" d="M255.829,558.332c10.574.241,19.946-9.872,19.946-9.872a3.839,3.839,0,0,1,.609,1.305c-2.742,2.583-10.42,8.983-18.871,8.775a198.836,198.836,0,0,0-23.072,1.2s.049-.159.126-.433a191.3,191.3,0,0,1,21.263-.976Z" transform="translate(-234.44 -512.884)"/>
      <path id="Caminho_303" data-name="Caminho 303" d="M300.1,603.27s-.1,1.5-.044,3.757c-2.5,4.936-7.053,13.447-9.087,13.787l.356-1.974C294.825,614.447,300.1,603.27,300.1,603.27Z" transform="translate(-259.967 -537.634)"/>
    </g>
    <rect id="Retângulo_539" data-name="Retângulo 539" width="57.448" height="43.293" transform="translate(83.01 240.155)" fill="url(#linear-gradient)"/>
    <rect id="Retângulo_540" data-name="Retângulo 540" width="54.481" height="41.061" transform="translate(84.49 241.268)" fill="#fff"/>
    <rect id="Retângulo_541" data-name="Retângulo 541" width="18.158" height="10.267" transform="translate(89.821 244.822)" fill="#6c63ff" opacity="0.2"/>
    <rect id="Retângulo_542" data-name="Retângulo 542" width="21.317" height="2.369" transform="translate(112.323 244.822)" fill="#e6e8ec"/>
    <rect id="Retângulo_543" data-name="Retângulo 543" width="15.005" height="2.369" transform="translate(112.323 248.771)" fill="#e6e8ec"/>
    <rect id="Retângulo_544" data-name="Retângulo 544" width="21.317" height="2.369" transform="translate(112.323 252.719)" fill="#e6e8ec"/>
    <rect id="Retângulo_545" data-name="Retângulo 545" width="43.825" height="2.369" transform="translate(89.821 256.668)" fill="#e6e8ec"/>
    <rect id="Retângulo_546" data-name="Retângulo 546" width="43.825" height="2.369" transform="translate(89.821 260.617)" fill="#e6e8ec"/>
    <rect id="Retângulo_547" data-name="Retângulo 547" width="43.825" height="2.369" transform="translate(89.821 264.56)" fill="#e6e8ec"/>
    <rect id="Retângulo_548" data-name="Retângulo 548" width="40.271" height="2.369" transform="translate(89.821 268.508)" fill="#e6e8ec"/>
    <rect id="Retângulo_549" data-name="Retângulo 549" width="43.825" height="2.369" transform="translate(89.821 272.457)" fill="#e6e8ec"/>
    <rect id="Retângulo_550" data-name="Retângulo 550" width="43.825" height="2.369" transform="translate(89.821 276.406)" fill="#e6e8ec"/>
    <path id="Caminho_304" data-name="Caminho 304" d="M288.084,581.819l5.106,1.1,4.025.828-2.161-6.033-1.5-.378-2.342-.581s-3.362-16.809-10.091-15.6S288.084,581.819,288.084,581.819Z" transform="translate(-157.136 -283.416)" fill="#714b4f"/>
    <path id="Caminho_305" data-name="Caminho 305" d="M304.634,596.271l4.025.85-2.161-6.033-1.5-.378a24,24,0,0,0-.362,5.561Z" transform="translate(-168.58 -296.793)" opacity="0.1"/>
    <path id="Caminho_306" data-name="Caminho 306" d="M344.855,528.78s-5.769,19.469-9.131,21.871-23.791,14.659-29.8,11.775c0,0-1.442,7.212.718,8.89,0,0,22.409-.877,22.59-.96,0,0,14.659-1.925,17.062-9.131s5.287-19.469,5.287-19.469Z" transform="translate(-168.963 -268.827)" fill="#67647e"/>
    <path id="Caminho_307" data-name="Caminho 307" d="M352.274,471.81s.488,1.881,1.141,4.618a12.97,12.97,0,0,1-14.325,6.581c.576-2.468.45-4.936-1.239-6.894Z" transform="translate(-183.594 -243.101)" opacity="0.1"/>
    <circle id="Elipse_97" data-name="Elipse 97" cx="12.976" cy="12.976" r="12.976" transform="translate(145.613 213.814)" fill="#714b4f"/>
    <path id="Caminho_308" data-name="Caminho 308" d="M319.921,443.579a6.948,6.948,0,0,1-2.9.175,4.756,4.756,0,0,1-3.515-4.541,6.976,6.976,0,0,1,2.676-5.358c1.1-.916,2.413-1.568,3.417-2.589a24.224,24.224,0,0,0,2.742-4.272,12.685,12.685,0,0,1,6.515-5.068c1.991-.675,4.426-.751,5.956.7.784.74,1.245,1.81,2.122,2.435,1.272.9,2.994.636,4.546.817a8.665,8.665,0,0,1,6.532,4.892,12.241,12.241,0,0,1,.636,8.314c-.3,1.179-.74,2.325-1.064,3.5-.675,2.446-.834,5.013-1.612,7.426s-2.386,4.771-4.815,5.484a15.224,15.224,0,0,0-1.547-7.842,2.248,2.248,0,0,0-1.1-1.218,2.66,2.66,0,0,0-1.322,0,13.162,13.162,0,0,1-8.775-1.777c-.921-.548-2.358-2.473-3.345-2.665C323.831,441.764,321.237,443.283,319.921,443.579Z" transform="translate(-172.603 -220.365)" opacity="0.1"/>
    <path id="Caminho_309" data-name="Caminho 309" d="M319.921,442.7a6.948,6.948,0,0,1-2.9.175,4.756,4.756,0,0,1-3.515-4.541,6.976,6.976,0,0,1,2.676-5.358c1.1-.916,2.413-1.569,3.417-2.589a24.224,24.224,0,0,0,2.742-4.272,12.685,12.685,0,0,1,6.515-5.067c1.991-.675,4.426-.751,5.956.7.784.74,1.245,1.81,2.122,2.435,1.272.9,2.994.636,4.546.817a8.665,8.665,0,0,1,6.532,4.892,12.241,12.241,0,0,1,.636,8.314c-.3,1.179-.74,2.325-1.064,3.5-.675,2.446-.834,5.013-1.612,7.426s-2.386,4.771-4.815,5.484a15.224,15.224,0,0,0-1.547-7.843,2.248,2.248,0,0,0-1.1-1.217,2.66,2.66,0,0,0-1.322,0,13.162,13.162,0,0,1-8.775-1.777c-.921-.548-2.358-2.473-3.345-2.665C323.831,440.884,321.237,442.408,319.921,442.7Z" transform="translate(-172.603 -219.968)" fill="#503f43"/>
    <path id="Caminho_310" data-name="Caminho 310" d="M125.96,807.047a6.4,6.4,0,0,0,2.1-3.17,2.814,2.814,0,0,0-1.47-3.23c-1.349-.516-2.791.417-3.883,1.366s-2.347,2.024-3.779,1.821a5.748,5.748,0,0,0,1.777-5.38,2.248,2.248,0,0,0-.494-1.1c-.751-.8-2.106-.455-3.005.175-2.852,2.007-3.647,5.879-3.663,9.367a17.957,17.957,0,0,1-.055-3.839,3.964,3.964,0,0,0-1.448-3.411,4.387,4.387,0,0,0-2.194-.521,4.567,4.567,0,0,0-3.587,1.02c-1.1,1.163-.806,3.121.143,4.387a14.275,14.275,0,0,0,3.713,2.973,8.226,8.226,0,0,1,2.654,2.528,2.506,2.506,0,0,1,.2.45h8.023a22.393,22.393,0,0,0,4.969-3.439Z" transform="translate(-78.696 -389.898)" fill="#6c63ff"/>
    <path id="Caminho_311" data-name="Caminho 311" d="M994.96,668.047a6.4,6.4,0,0,0,2.1-3.17,2.814,2.814,0,0,0-1.47-3.23c-1.349-.516-2.792.417-3.883,1.366s-2.347,2.024-3.779,1.821a5.748,5.748,0,0,0,1.777-5.38,2.248,2.248,0,0,0-.494-1.1c-.751-.8-2.106-.455-3.005.175-2.852,2.007-3.647,5.879-3.664,9.367a17.956,17.956,0,0,1-.055-3.839,3.963,3.963,0,0,0-1.448-3.411,4.387,4.387,0,0,0-2.194-.521,4.567,4.567,0,0,0-3.587,1.02c-1.1,1.163-.806,3.12.143,4.387a14.273,14.273,0,0,0,3.713,2.973,8.226,8.226,0,0,1,2.654,2.528,2.508,2.508,0,0,1,.2.45H990A22.39,22.39,0,0,0,994.96,668.047Z" transform="translate(-471.113 -327.13)" fill="#6c63ff"/>
    <path id="Caminho_312" data-name="Caminho 312" d="M1068.887,336.679c-1.135-3.323-2.775-7.535-4.069-8.528a1.213,1.213,0,0,0-.258-.159h-.159v-4.108l-3.06.488a29.241,29.241,0,0,1-1.1-4.546,2.111,2.111,0,0,0,2.3.461c-.049-.082-.093-.17-.137-.258l.137-.06a5.687,5.687,0,0,1-.74-2.786,10.152,10.152,0,0,1,.422-2.632c.549-1.892,1.475-3.658,1.991-5.561a13.515,13.515,0,0,0,.46-3.757,13.711,13.711,0,0,0-1.426-6.2,3.62,3.62,0,0,0-1.1-1.415,13.963,13.963,0,0,0-1.327-.647,7.169,7.169,0,0,1-1.93-1.925,17.308,17.308,0,0,0-8.364-5.583,4.9,4.9,0,0,0-2.676-.214c-2.057.548-2.8,3.1-4.47,4.437-1.47,1.179-3.488,1.3-5.336,1.695a9.071,9.071,0,0,0-4.969,2.605,5.392,5.392,0,0,0-1.333,3.592,3.614,3.614,0,0,0,1.47,3.214,4.618,4.618,0,0,0,3.9.548,13.261,13.261,0,0,0,10.042,16.672l.357.642h0a27.47,27.47,0,0,1,2.49,6.5c-2.819,1.6-5.9,3.093-7.755,3.236a13.076,13.076,0,0,1-.406,2.15,11.858,11.858,0,0,1-2.44,4.8c-2.528,2.841-13.9,24.317-13.9,24.317s-.356.856-.943,2.314c-7.058.867-18.581,2.117-21.794,1.475l-12.614-12s-4.08,3.115-3.724,6.9l-2.276-2.161s-12,9.159,6.949,15.159l28.831,3.345c-2.742,8.287-5.309,17.934-4.514,23.182h.236a10.9,10.9,0,0,0,1.645-.126l-.049.932-2.775,49.72s-.631,9.159,7.9,13.261c0,0,10.42,30.63,6.318,34.107,0,0,.488.258,1.311.614l-8.572,7.6s-6.318,1.579-9.789,1.261a2.506,2.506,0,0,0-2.77,1.865.418.418,0,0,1-.033.2v.609a.472.472,0,0,0,.038.2v.077a1.708,1.708,0,0,0,.071.219l.027.066a1.857,1.857,0,0,0,.1.214v.049c.038.071.082.137.126.208l.038.06q.077.11.17.219l.049.055c.066.077.137.148.208.219l.033.027.236.2.049.038c.088.071.186.137.285.2l.066.044c.1.066.214.132.329.192h.049l.357.175h.049l.417.164.088.033.455.148h.077l.5.132h.038l.548.11h.11l.592.088h.115l.669.066c1.3.1,3.049.137,5.073.126h0v.324a.384.384,0,0,0,.038.2v.077a1.69,1.69,0,0,0,.071.219l.027.066a1.851,1.851,0,0,0,.1.214v.049c.038.071.082.137.126.208l.038.06q.077.11.17.219l.049.055c.066.077.137.148.208.219l.033.027.236.2.049.038c.088.071.186.137.285.2l.071.044c.1.066.214.132.329.192h.049l.356.175h.049l.417.165.088.033.455.148h.077l.5.132h.038l.548.11h.11l.592.088h.115l.669.066c8.226.631,34.419-1.261,34.419-1.261v-.071h0v-.093h0c.258-1.223,1.519-8.331-2.956-13.585.132-.137.263-.285.384-.439,0,0-3.471-6-1.579-7.9s-9.471-34.737-9.471-34.737-6-9.471-2.528-20.21-.318-22.42-.318-22.42,8.281-2.462,8.451-12.658v-.949a3.351,3.351,0,0,0,.548.033,2.458,2.458,0,0,0,.351,0s-1.579-5.682.318-9.789,6-.318,9.789-17.051c2.742-12.109,5.155-26.039,6.279-32.818A17.28,17.28,0,0,0,1068.887,336.679ZM996.818,372.2l-2.879-2.742c.954.395,2.013.784,3.2,1.157l10.859,1.261c-4.848.45-9.351.691-11.177.329Z" transform="translate(-473.756 -160.619)" fill="url(#linear-gradient-8)"/>
    <path id="Caminho_313" data-name="Caminho 313" d="M1024.973,429.747s-22.337,3.1-26.994,2.194L985.568,420.15s-11.791,9,6.828,14.89l34.748,4.031Z" transform="translate(-474.424 -219.773)" fill="#fdc2cc"/>
    <path id="Caminho_314" data-name="Caminho 314" d="M1024.973,429.747s-22.337,3.1-26.994,2.194L985.568,420.15s-11.791,9,6.828,14.89l34.748,4.031Z" transform="translate(-474.424 -219.773)" opacity="0.05"/>
    <path id="Caminho_315" data-name="Caminho 315" d="M1056.014,667.33l-10.859,9.619s-6.2,1.552-9.62,1.239-4.963,5.276,3.1,5.9,33.816-1.24,33.816-1.24,2.484-9.927-4.963-15.515Z" transform="translate(-497.397 -331.393)" fill="#47465a"/>
    <path id="Caminho_316" data-name="Caminho 316" d="M1056.014,667.33l-10.859,9.619s-6.2,1.552-9.62,1.239-4.963,5.276,3.1,5.9,33.816-1.24,33.816-1.24,2.484-9.927-4.963-15.515Z" transform="translate(-497.397 -331.393)" opacity="0.05"/>
    <path id="Caminho_317" data-name="Caminho 317" d="M1072.848,687.78a17.121,17.121,0,0,1-.389,3.362s-25.776,1.859-33.816,1.24c-3.877-.3-5.528-1.744-5.824-3.132-.351,1.59,1.053,3.7,5.824,4.064,8.067.62,33.816-1.239,33.816-1.239a17.931,17.931,0,0,0,.389-4.294Z" transform="translate(-497.4 -340.627)" fill="#fff" opacity="0.3"/>
    <path id="Caminho_318" data-name="Caminho 318" d="M1098.35,339.417s6.828,9.619,4.344,16.135,13.014-6.828,13.014-6.828-4.963-8.687-2.484-17.994Z" transform="translate(-527.016 -179.393)" fill="#fdc2cc"/>
    <path id="Caminho_319" data-name="Caminho 319" d="M1075.854,674.11l-10.859,9.619s-6.2,1.552-9.619,1.239-4.963,5.276,3.1,5.9,33.816-1.239,33.816-1.239,2.484-9.927-4.963-15.515Z" transform="translate(-506.356 -334.454)" fill="#47465a"/>
    <path id="Caminho_320" data-name="Caminho 320" d="M1074.56,577.162a8.3,8.3,0,0,1-6.285,2.879c-5.424.258-11.4-2.879-11.4-2.879,4.031-3.411-6.2-33.509-6.2-33.509-8.374-4.031-7.755-13.031-7.755-13.031l2.742-48.848.686-12.268,8.687-5.276,6.85,5.254,6.493,4.985a26.1,26.1,0,0,1,.812,4.843c.751,11.4-8.259,14.084-8.259,14.084s3.724,11.479.313,22.025,2.484,19.853,2.484,19.853,11.172,32.264,9.323,34.129S1074.56,577.162,1074.56,577.162Z" transform="translate(-501.981 -239.678)" fill="#565171"/>
    <path id="Caminho_321" data-name="Caminho 321" d="M1074.56,577.162a8.3,8.3,0,0,1-6.285,2.879c-5.424.258-11.4-2.879-11.4-2.879,4.031-3.411-6.2-33.509-6.2-33.509-8.374-4.031-7.755-13.031-7.755-13.031l2.742-48.848.686-12.268,8.687-5.276,6.85,5.254,6.493,4.985a26.1,26.1,0,0,1,.812,4.843c.751,11.4-8.259,14.084-8.259,14.084s3.724,11.479.313,22.025,2.484,19.853,2.484,19.853,11.172,32.264,9.323,34.129S1074.56,577.162,1074.56,577.162Z" transform="translate(-501.981 -239.678)" opacity="0.05"/>
    <path id="Caminho_322" data-name="Caminho 322" d="M1090.273,583.957c-5.276,6.515-17.681,0-17.681,0a1.973,1.973,0,0,0,.548-.845c2.276-6.186-7.678-35.763-7.678-35.763-8.375-4.031-9.323-13.65-9.323-13.65l-2.194-49.715-.285-6.439,13.052-4.985,4.009-1.53,13.343,10.239a24.2,24.2,0,0,1,.855,6.488c-.17,10.02-8.3,12.438-8.3,12.438s3.724,11.479.313,22.025,2.484,19.853,2.484,19.853,11.171,32.264,9.323,34.129S1090.273,583.957,1090.273,583.957Z" transform="translate(-506.835 -242.749)" fill="#565171"/>
    <path id="Caminho_323" data-name="Caminho 323" d="M1082.31,484.7c-2.682-.384-8.111-3.614-10.9-5.369l-1.744-1.1s-2.792-7.755-10.239-1.859a27.872,27.872,0,0,1-8.089,4.574,18.926,18.926,0,0,1-3.455.866l.686-12.268,8.687-5.276,6.85,5.254,4.009-1.53,13.343,10.239A24.2,24.2,0,0,1,1082.31,484.7Z" transform="translate(-504.225 -239.696)" opacity="0.1"/>
    <path id="Caminho_324" data-name="Caminho 324" d="M1097.5,375.872c-1.1,6.658-3.477,20.341-6.17,32.242-3.724,16.453-7.755,12.718-9.62,16.754s-.313,9.619-.313,9.619c-3.1.313-13.343-6.515-13.343-6.515s-2.792-7.755-10.239-1.859-13.343,5.583-13.343,5.583c-1.552-10.239,9.927-37.54,9.927-37.54s11.172-21.1,13.65-23.889a11.647,11.647,0,0,0,2.4-4.716,12.83,12.83,0,0,0,.395-2.111c4.031-.313,13.963-7.13,13.963-7.13l7.755-1.239V359.1a1.189,1.189,0,0,1,.252.154c1.278.976,2.885,5.117,4,8.38A17,17,0,0,1,1097.5,375.872Z" transform="translate(-502.62 -190.384)" fill="#f68080"/>
    <path id="Caminho_325" data-name="Caminho 325" d="M1101.135,368.988s-8.067-6.515-20.166,14.583-14.89,17.681-14.89,17.681,2.484,9.323,1.239,11.171c0,0,8.375-.62,11.479,0s22.337-23.566,22.337-23.566S1111.084,375.191,1101.135,368.988Z" transform="translate(-512.443 -196.24)" opacity="0.1"/>
    <path id="Caminho_326" data-name="Caminho 326" d="M1100.605,366.718s-8.067-6.515-20.166,14.583-14.89,17.681-14.89,17.681,9.619,10.546,12.718,11.171,22.337-23.582,22.337-23.582S1110.532,372.926,1100.605,366.718Z" transform="translate(-512.204 -195.215)" opacity="0.1"/>
    <path id="Caminho_327" data-name="Caminho 327" d="M1066.829,438.006a37.507,37.507,0,0,0-1.24-8.435c1.887-.247,3.077-.411,3.077-.411l2.194,9.323Z" transform="translate(-512.222 -223.841)" opacity="0.1"/>
    <path id="Caminho_328" data-name="Caminho 328" d="M1113.81,331.87l-14.89,8.687a31.815,31.815,0,0,1,1.733,2.841,13.089,13.089,0,0,0,2.61.263c3.976,0,5.83-4.173,8.226-6.981C1111.32,334.426,1113.146,334.365,1113.81,331.87Z" transform="translate(-527.273 -179.908)" opacity="0.1"/>
    <circle id="Elipse_98" data-name="Elipse 98" cx="13.031" cy="13.031" r="13.031" transform="translate(562.653 137.067)" fill="#fdc2cc"/>
    <rect id="Retângulo_551" data-name="Retângulo 551" width="104.941" height="79.083" transform="translate(450.604 164.949)" fill="url(#linear-gradient)"/>
    <rect id="Retângulo_552" data-name="Retângulo 552" width="100.236" height="75.54" transform="translate(452.956 166.72)" fill="#fff"/>
    <rect id="Retângulo_553" data-name="Retângulo 553" width="33.41" height="18.882" transform="translate(462.762 173.258)" fill="#6c63ff" opacity="0.2"/>
    <rect id="Retângulo_554" data-name="Retângulo 554" width="39.223" height="4.36" transform="translate(504.163 173.258)" fill="#e6e8ec"/>
    <rect id="Retângulo_555" data-name="Retângulo 555" width="27.602" height="4.36" transform="translate(504.163 180.524)" fill="#e6e8ec"/>
    <rect id="Retângulo_556" data-name="Retângulo 556" width="39.223" height="4.36" transform="translate(504.163 187.785)" fill="#e6e8ec"/>
    <rect id="Retângulo_557" data-name="Retângulo 557" width="80.624" height="4.36" transform="translate(462.762 195.047)" fill="#e6e8ec"/>
    <rect id="Retângulo_558" data-name="Retângulo 558" width="80.624" height="4.36" transform="translate(462.762 202.313)" fill="#e6e8ec"/>
    <rect id="Retângulo_559" data-name="Retângulo 559" width="80.624" height="4.36" transform="translate(462.762 209.574)" fill="#e6e8ec"/>
    <rect id="Retângulo_560" data-name="Retângulo 560" width="74.087" height="4.36" transform="translate(462.762 216.841)" fill="#e6e8ec"/>
    <rect id="Retângulo_561" data-name="Retângulo 561" width="80.624" height="4.36" transform="translate(462.762 224.102)" fill="#e6e8ec"/>
    <rect id="Retângulo_562" data-name="Retângulo 562" width="80.624" height="4.36" transform="translate(462.762 231.363)" fill="#e6e8ec"/>
    <path id="Caminho_329" data-name="Caminho 329" d="M1075.141,302.123a8.906,8.906,0,0,1,4.881-2.561c1.81-.389,3.8-.51,5.243-1.645,1.645-1.311,2.369-3.8,4.387-4.354a4.81,4.81,0,0,1,2.627.208,17,17,0,0,1,8.226,5.484,7.04,7.04,0,0,0,1.892,1.892,13.71,13.71,0,0,1,1.305.636,3.554,3.554,0,0,1,1.064,1.388,13.485,13.485,0,0,1,.943,9.471c-.5,1.87-1.415,3.6-1.953,5.484a7.2,7.2,0,0,0,.313,5.632,2.271,2.271,0,0,1-2.742-1.015,11.688,11.688,0,0,1-1.1-3.011,11.518,11.518,0,0,0-3.362-5.227c-.976-.867-2.742-1.448-3.406-.329-.263.433-.247.982-.472,1.431a1.88,1.88,0,0,1-2.578.548,3.954,3.954,0,0,1-1.612-2.391c-1.278-4.322-3.455-7.042-8.078-5.194-1.722.691-3.751,1.157-5.407-.027C1073.156,306.982,1073.578,303.889,1075.141,302.123Z" transform="translate(-515.943 -162.566)" opacity="0.1"/>
    <path id="Caminho_330" data-name="Caminho 330" d="M1075.141,301.553a8.906,8.906,0,0,1,4.881-2.561c1.81-.389,3.8-.51,5.243-1.645,1.645-1.311,2.369-3.8,4.387-4.354a4.81,4.81,0,0,1,2.627.208,17,17,0,0,1,8.226,5.484,7.04,7.04,0,0,0,1.892,1.892,13.72,13.72,0,0,1,1.305.636,3.555,3.555,0,0,1,1.064,1.387,13.486,13.486,0,0,1,.943,9.471c-.5,1.87-1.415,3.6-1.953,5.484a7.2,7.2,0,0,0,.313,5.632,2.271,2.271,0,0,1-2.742-1.015,11.688,11.688,0,0,1-1.1-3.011,11.518,11.518,0,0,0-3.362-5.227c-.976-.867-2.742-1.448-3.406-.329-.263.433-.247.982-.472,1.431a1.88,1.88,0,0,1-2.578.548,3.954,3.954,0,0,1-1.612-2.391c-1.278-4.322-3.455-7.042-8.078-5.194-1.722.691-3.751,1.157-5.407-.027C1073.156,306.412,1073.578,303.325,1075.141,301.553Z" transform="translate(-515.943 -162.309)" fill="#b96b6b"/>
    <path id="Caminho_331" data-name="Caminho 331" d="M1114.34,359.259h-6.307s-12.411,6.2-12.718,5.9c-.208-.208-2.128.148-3.345.406a12.83,12.83,0,0,0,.395-2.111c4.031-.313,13.963-7.13,13.963-7.13l7.755-1.239v4.031A1.191,1.191,0,0,1,1114.34,359.259Z" transform="translate(-524.135 -190.389)" opacity="0.05"/>
    <path id="Caminho_332" data-name="Caminho 332" d="M1092.647,694.57a17.1,17.1,0,0,1-.389,3.362s-25.776,1.859-33.816,1.239c-3.877-.3-5.528-1.744-5.824-3.131-.351,1.59,1.053,3.7,5.824,4.064,8.067.62,33.816-1.24,33.816-1.24a17.931,17.931,0,0,0,.39-4.294Z" transform="translate(-506.341 -343.693)" fill="#fff" opacity="0.3"/>
    <g id="Grupo_426" data-name="Grupo 426" transform="translate(541.939 168.728)" opacity="0.05">
      <path id="Caminho_333" data-name="Caminho 333" d="M1055.066,482.191a26.349,26.349,0,0,1-10.316,5.216,4.6,4.6,0,0,0,.077.68s5.9.313,13.343-5.583a10,10,0,0,1,3.987-2.084C1060.534,479.669,1058.214,479.718,1055.066,482.191Z" transform="translate(-1044.75 -415.525)"/>
      <path id="Caminho_334" data-name="Caminho 334" d="M1124.583,370.974c-1.1-3.291-2.742-7.4-4-8.38a1.19,1.19,0,0,0-.252-.154s-2.567.088-2.484.154c1.278.976,2.517,4.8,3.631,8.067a17,17,0,0,1,.675,8.226c-1.1,6.658-3.477,20.341-6.17,32.242-3.724,16.453-7.755,12.718-9.619,16.754-1.525,3.291-.762,7.645-.433,9.109a7.847,7.847,0,0,0,3.225.817s-1.552-5.583.313-9.619,5.9-.313,9.62-16.754c2.693-11.9,5.062-25.584,6.17-32.242A17,17,0,0,0,1124.583,370.974Z" transform="translate(-1072.159 -362.44)"/>
    </g>
    <path id="Caminho_335" data-name="Caminho 335" d="M1037.919,430.556l-4.009-.466-30.712-3.57c-18.614-5.9-6.828-14.89-6.828-14.89l12.411,11.791c3.581.718,17.621-.954,23.911-1.76,1.887-.247,3.077-.411,3.077-.411Z" transform="translate(-479.303 -215.925)" fill="#fdc2cc"/>
    <path id="Caminho_336" data-name="Caminho 336" d="M1101.135,367.858s-8.067-6.515-20.166,14.583-14.89,17.681-14.89,17.681,2.484,9.323,1.239,11.171c0,0,8.375-.62,11.479,0s22.337-23.582,22.337-23.582S1111.084,374.061,1101.135,367.858Z" transform="translate(-512.443 -195.73)" fill="#f68080"/>
  </g>
</svg>
