<svg xmlns="http://www.w3.org/2000/svg" width="82.698" height="64.308" viewBox="0 0 82.698 64.308">
  <path id="Icon_awesome-home" data-name="Icon awesome-home" d="M40.252,18.937l-26.468,21.8V64.265a2.3,2.3,0,0,0,2.3,2.3l16.088-.042a2.3,2.3,0,0,0,2.286-2.3V50.483a2.3,2.3,0,0,1,2.3-2.3h9.188a2.3,2.3,0,0,1,2.3,2.3v13.73a2.3,2.3,0,0,0,2.3,2.3l16.082.044a2.3,2.3,0,0,0,2.3-2.3V40.721L42.448,18.937A1.75,1.75,0,0,0,40.252,18.937ZM82.061,33.754l-12-9.893V3.976a1.723,1.723,0,0,0-1.723-1.723H60.3a1.723,1.723,0,0,0-1.723,1.723V14.4L45.721,3.826a6.891,6.891,0,0,0-8.757,0L.624,33.754a1.723,1.723,0,0,0-.23,2.426l3.661,4.45a1.723,1.723,0,0,0,2.428.234L40.252,13.051a1.75,1.75,0,0,1,2.2,0l33.77,27.814a1.723,1.723,0,0,0,2.426-.23l3.661-4.45a1.723,1.723,0,0,0-.244-2.431Z" transform="translate(0.001 -2.254)"/>
</svg>
