<svg xmlns="http://www.w3.org/2000/svg" width="73.817" height="83.929" viewBox="0 0 73.817 83.929">
  <path id="Icon_map-electronics-store" data-name="Icon map-electronics-store" d="M39.636,84.942a36.911,36.911,0,0,1-19.093-68.5,5.056,5.056,0,1,1,5.239,8.65,26.791,26.791,0,1,0,27.094-.365,5.055,5.055,0,1,1,5-8.786,36.913,36.913,0,0,1-18.243,69Zm-.384-37.414c-2.792,0-6.172-2.264-6.172-5.056V6.069c0-2.792,3.381-5.056,6.172-5.056s6.172,2.264,6.172,5.056v36.4c0,2.792-3.381,5.056-6.172,5.056Z" transform="translate(-2.728 -1.013)"/>
</svg>
