<svg id="Grupo_420" data-name="Grupo 420" xmlns="http://www.w3.org/2000/svg" width="644.44" height="411.889" viewBox="0 0 644.44 411.889">
  <path id="Caminho_148" data-name="Caminho 148" d="M674.333,456.835c-6.466,15.825-19.995,30.12-34.517,43.657Q620.667,518.345,598.85,535q-6.046,4.622-12.285,9.129l-2.89,2.074q-3.843,2.767-7.817,5.483l-.318.22q-3.855,2.669-7.778,5.287a212.247,212.247,0,0,1-27.6,16.1c-3.406,1.606-6.921,3.1-10.559,4.443q-2.952,1.092-6.029,2.045c-3.361,1.04-6.812,1.947-10.417,2.692-.6.127-1.209.248-1.817.364-3.69.7-7.426,1.219-11.2,1.572a169.28,169.28,0,0,1-41.982-1.86c-6.926-1.1-13.744-2.525-20.341-4.143-.812-.2-1.618-.4-2.43-.578-22.464-5.72-43.555-13.485-66.178-18.945q-11.695-2.826-23.844-4.8-5.927-.959-11.922-1.733c-9.407-1.19-18.933-1.988-28.5-2.392-12.9-.578-26.217-.329-38.491,1.964q-2.453.456-4.843,1.029-3.032.722-5.95,1.647A104.907,104.907,0,0,0,240.4,561c-.971.485-1.93.977-2.89,1.473h0c-3.009,1.56-5.978,3.155-8.993,4.7a112.461,112.461,0,0,1-16.884,7.292,88.1,88.1,0,0,1-9.7,2.519,140.456,140.456,0,0,1-27.159,2.513c-4.468,0-8.941-.1-13.364-.335h-.136c-1.51-.081-3.026-.173-4.542-.289-6.9-.48-13.784-1.219-20.562-2.23-23.225-3.467-45.252-10.019-62.97-20.014-24.065-13.566-39.348-33.794-37.054-54.005,1.646-14.56,11.871-28.08,21.573-41.317,18.047-24.648,34.954-49.857,43.85-76.429,7.216-21.569,9.367-44.374,25.973-63.758a87.412,87.412,0,0,1,20.04-16.831,127.108,127.108,0,0,1,18.553-9.545A158.381,158.381,0,0,1,188.5,287.32a175.16,175.16,0,0,1,20.052-3.837c3.667-.485,7.38-.861,11.116-1.115q4.315-.306,8.669-.387h.449q2.663-.052,5.325,0a243.923,243.923,0,0,1,38.6,3.692c7.982,1.358,15.9,3.022,23.645,4.853q6.937,1.635,13.75,3.426c1.385.364,2.77.734,4.139,1.109,32.314,8.811,60.745,20.979,91.878,30.963.159.052.312.1.471.145h0a189.077,189.077,0,0,0,19.438,4.969c4.82.982,9.748,1.832,14.76,2.577,7.675,1.156,15.516,2.068,23.412,2.854l1.743.173c11.587,1.156,23.276,2.016,34.63,3.022,4.031.358,8.027.728,11.967,1.156q3.747.381,7.426.809c1.76.208,3.525.416,5.291.636s3.633.451,5.45.688c1.181.15,2.356.306,3.537.474,7.153.965,14.289,2.045,21.346,3.282,4.292.751,8.561,1.56,12.779,2.432q4.582.947,9.083,2,3.338.768,6.619,1.618c17.775,4.547,34.409,10.51,48.744,18.558C670.047,392.268,686.7,426.571,674.333,456.835Z" transform="translate(-33.933 -173.104)" fill="#6c63ff" opacity="0.1"/>
  <ellipse id="Elipse_67" data-name="Elipse 67" cx="12.28" cy="12.497" rx="12.28" ry="12.497" transform="translate(129.075 27.237)" fill="#6c63ff" opacity="0.1"/>
  <ellipse id="Elipse_68" data-name="Elipse 68" cx="12.28" cy="12.497" rx="12.28" ry="12.497" transform="translate(380.065 0)" fill="#6c63ff" opacity="0.1"/>
  <ellipse id="Elipse_69" data-name="Elipse 69" cx="12.28" cy="12.497" rx="12.28" ry="12.497" transform="translate(528.89 27.988)" fill="#6c63ff" opacity="0.1"/>
  <ellipse id="Elipse_70" data-name="Elipse 70" cx="20.579" cy="20.945" rx="20.579" ry="20.945" transform="translate(0 49.025)" fill="#6c63ff" opacity="0.1"/>
  <ellipse id="Elipse_71" data-name="Elipse 71" cx="20.579" cy="20.945" rx="20.579" ry="20.945" transform="translate(19.728 152.448)" fill="#6c63ff" opacity="0.1"/>
  <ellipse id="Elipse_72" data-name="Elipse 72" cx="20.579" cy="20.945" rx="20.579" ry="20.945" transform="translate(572.065 114.378)" fill="#6c63ff" opacity="0.1"/>
  <path id="Caminho_149" data-name="Caminho 149" d="M367.427,320.642a22.928,22.928,0,0,1-.3,5.258c-1.135,5.368-5.938,9.054-10.588,11.85s-9.759,5.443-12.524,10.163c-3.332,5.7-2.271,13.37,1.641,18.7s10.111,8.5,16.492,9.822a37.72,37.72,0,0,0,33.109-9.193,37.136,37.136,0,0,0,10.963-32.933c-4.735.676-8.953-3.577-10.486-8.187s-1.215-9.608-1.811-14.445a5.019,5.019,0,0,0-.7-2.311,5.076,5.076,0,0,0-2.935-1.624c-5.473-1.531-14.681-4.882-20.352-3.6C364.822,305.331,367.342,316.274,367.427,320.642Z" transform="translate(-166.259 -182.35)" fill="#be6f72"/>
  <path id="Caminho_150" data-name="Caminho 150" d="M367.427,320.642a22.928,22.928,0,0,1-.3,5.258c-1.135,5.368-5.938,9.054-10.588,11.85s-9.759,5.443-12.524,10.163c-3.332,5.7-2.271,13.37,1.641,18.7s10.111,8.5,16.492,9.822a37.72,37.72,0,0,0,33.109-9.193,37.136,37.136,0,0,0,10.963-32.933c-4.735.676-8.953-3.577-10.486-8.187s-1.215-9.608-1.811-14.445a5.019,5.019,0,0,0-.7-2.311,5.076,5.076,0,0,0-2.935-1.624c-5.473-1.531-14.681-4.882-20.352-3.6C364.822,305.331,367.342,316.274,367.427,320.642Z" transform="translate(-166.259 -182.35)" opacity="0.1"/>
  <path id="Caminho_151" data-name="Caminho 151" d="M354.677,758.313a112.431,112.431,0,0,1-16.884,7.292,88.13,88.13,0,0,1-9.7,2.519,63.2,63.2,0,0,1,.71-13.289,71.894,71.894,0,0,0,1.266-7.586,20.193,20.193,0,0,0-2.242-10.654c6.324-.878,12.331-2.311,18.683-1.889l.4.029a6.976,6.976,0,0,1,2.214.422,6.013,6.013,0,0,1,2.4,2.149,14.828,14.828,0,0,1,.9,1.416,22.851,22.851,0,0,1,2.617,10.544A71.382,71.382,0,0,1,354.677,758.313Z" transform="translate(-160.123 -364.231)" fill="#be6f72"/>
  <path id="Caminho_152" data-name="Caminho 152" d="M416.92,749.93q-3.032.722-5.95,1.647a104.885,104.885,0,0,0-15.266,6.4,23.328,23.328,0,0,1-.465-4.784,25.883,25.883,0,0,1,20.069-4.2,2.625,2.625,0,0,1,1.272.52,1.727,1.727,0,0,1,.341.422Z" transform="translate(-189.263 -370.074)" fill="#be6f72"/>
  <path id="Caminho_153" data-name="Caminho 153" d="M388.139,650.138a45.045,45.045,0,0,1-2.271,11.122c-1.425,3.813-3.741,7.511-3.446,11.585.131,1.768.721,3.686.806,5.437q-2.453.456-4.843,1.028-3.032.722-5.95,1.647a104.921,104.921,0,0,0-15.266,6.4c-.971.485-1.93.977-2.89,1.473h0c-.4-.052-.789-.115-1.187-.191-2.839-.526-5.825-1.82-7.431-4.131a6.685,6.685,0,0,1-.857-1.733c-.925-2.814.04-6.321-1.885-8.551l-.091.081-.068.046a19.089,19.089,0,0,1-3.452,2.531h0a22.776,22.776,0,0,1-18.734,1.837,20.353,20.353,0,0,1-3.514-1.606c-2.6-1.508-5.109-4.044-4.905-7.072.114-1.687,1.062-3.3.806-4.975a10.484,10.484,0,0,0-1.538-3.247c-3.8-6.933.732-15.849-1.652-23.383-.057-.179-.119-.358-.182-.532-.176-.491-.375-.965-.568-1.439-.488-1.1-1.033-2.19-1.465-3.322a19.608,19.608,0,0,1-.852-2.929,37.3,37.3,0,0,1-.568-8.794,93.508,93.508,0,0,1,3.3-23.18c.346-1.329.732-3.207,1.243-5.252h0a40.722,40.722,0,0,1,2.01-6.309c1.135-2.658,2.68-4.778,4.792-5.281,3.179-.757,8.039.843,11.263,1.236l12.745,1.549,25.485,3.1c4.4.537,9.021,1.156,12.649,3.675.238.168.471.341.7.526a14.524,14.524,0,0,1,2.555,2.646c.261.341.511.7.749,1.063a24.2,24.2,0,0,1,2.1,4.079C388.9,607,388.973,615.627,389,624A257.125,257.125,0,0,1,388.139,650.138Z" transform="translate(-150.722 -299.448)" fill="#3f3d56"/>
  <path id="Caminho_154" data-name="Caminho 154" d="M360.622,714.159c-.766-3-2.384-7.355-2.623-8.54a110.148,110.148,0,0,1-1.737-12.029c-.63-7.2-1.766-17.333.732-24.18,2.345,1.271,4.405,4.871,5.49,7.326,3.929,8.9-.494,19.835,3.2,28.843a4.813,4.813,0,0,1,.505,1.733,4.239,4.239,0,0,1-.783,2.126l-1.243,2.1Z" transform="translate(-172.063 -336.695)" opacity="0.1"/>
  <path id="Caminho_155" data-name="Caminho 155" d="M495.2,230.364c4.178-6.933,9.9-13.751,9.543-21.857a43.957,43.957,0,0,0-1.771-8.545,55.459,55.459,0,0,1-.392-25.012,27.372,27.372,0,0,1,20.074,4.576,11.6,11.6,0,0,1,4.434,5.073,14.932,14.932,0,0,1,.494,6.292c-.312,4.859-.738,10.042-3.679,13.867-.914,1.2-2.038,2.207-2.93,3.415a22.286,22.286,0,0,0-2.8,5.911L508.519,240.8c-4.871,13.468-10.151,27.554-20.88,36.874-.261.225-7.948-10.885-8.584-12-2.572-4.57-1.448-6.5,1.663-10.325C486.856,247.789,490.188,238.666,495.2,230.364Z" transform="translate(-224.88 -127.773)" fill="#be6f72"/>
  <path id="Caminho_156" data-name="Caminho 156" d="M285.6,665.33a45.137,45.137,0,0,1-.494,5.957c-.1.728-.221,1.45-.363,2.172-1.936,10.285-6.756,20.066-10.128,30.085-4.445,13.225-6.4,24.7-7.948,37.833-4.468,0-8.941-.1-13.364-.335h-.136c-1.51-.081-3.026-.173-4.542-.289,1.368-12.249-1.135-25.1,1.311-37.359.988-4.934,2.674-9.724,3.69-14.635a42.129,42.129,0,0,0,.71-4.38,11.926,11.926,0,0,1,.835-4.108,3.04,3.04,0,0,1,.193-.352,9.847,9.847,0,0,1,2-2.311,49.5,49.5,0,0,1,24.446-11.862C283.1,665.567,284.356,665.417,285.6,665.33Z" transform="translate(-125.885 -334.972)" fill="#fbbebe"/>
  <path id="Caminho_157" data-name="Caminho 157" d="M285.6,665.33a45.137,45.137,0,0,1-.494,5.957c-.1.728-.221,1.45-.363,2.172-1.936,10.285-6.756,20.066-10.128,30.085-4.445,13.225-6.4,24.7-7.948,37.833-4.468,0-8.941-.1-13.364-.335h-.136c-1.51-.081-3.026-.173-4.542-.289,1.368-12.249-1.135-25.1,1.311-37.359.988-4.934,2.674-9.724,3.69-14.635a42.129,42.129,0,0,0,.71-4.38,11.926,11.926,0,0,1,.835-4.108,3.04,3.04,0,0,1,.193-.352,9.847,9.847,0,0,1,2-2.311,49.5,49.5,0,0,1,24.446-11.862C283.1,665.567,284.356,665.417,285.6,665.33Z" transform="translate(-125.885 -334.972)" opacity="0.1"/>
  <path id="Caminho_158" data-name="Caminho 158" d="M233.249,696.144a92.1,92.1,0,0,1-.778,9.6c-1.516,13.006-1.8,26.578-2.839,39.78-1.51-.081-3.026-.173-4.542-.289-6.9-.479-13.784-1.219-20.562-2.23q.784-4.46,1.578-8.921a49.128,49.128,0,0,0,1.107-11.024,65.555,65.555,0,0,0-1.828-10.325c-1.561-7.338-2.436-15.253-5.007-22.175a28.978,28.978,0,0,0-6.279-10.4c10.639-4.253,20.863-4.5,32.291-4.044a4.035,4.035,0,0,1,2.316.578,3.991,3.991,0,0,1,1.164,1.791,45.47,45.47,0,0,1,3.2,13.185A44.019,44.019,0,0,1,233.249,696.144Z" transform="translate(-102.313 -339.456)" fill="#fbbebe"/>
  <ellipse id="Elipse_73" data-name="Elipse 73" cx="22.141" cy="22.533" rx="22.141" ry="22.533" transform="translate(194.492 90.244)" fill="#be6f72"/>
  <path id="Caminho_159" data-name="Caminho 159" d="M375.54,370.6c2.839-4.929,5.325-11.082,10.786-12.451,3.083-.78,6.29.283,9.293,1.329a4.524,4.524,0,0,1,2.271,1.34,4.6,4.6,0,0,1,.687,2.392,159.373,159.373,0,0,1-.1,30.622c-.721,7.2-1.936,14.375-2.152,21.615-.3,10.036,1.323,20.072.789,30.1-.4,7.6-2.038,15.063-3.662,22.487l-6.812,31.085a5.348,5.348,0,0,1-1.1,2.629,5.089,5.089,0,0,1-2.01,1.156A73.634,73.634,0,0,1,323,498.081a18.429,18.429,0,0,1-6.512-5.31c-2.271-3.328-2.481-7.731-1.743-11.717s2.333-7.748,3.406-11.66c1.658-6.067,2.049-12.4,2.424-18.685.5-8.274,1-16.6.131-24.845-.6-5.68-1.839-11.273-2.776-16.906a189.682,189.682,0,0,1-2.4-25.671c-.142-5.136.091-10.839,3.582-14.543a16.4,16.4,0,0,1,6.284-3.767c3.878-1.456,8.209-2.311,12.126-.982s7.074,5.512,6.148,9.608c-.426,1.9-1.635,3.565-1.93,5.495a7.986,7.986,0,0,0,2.839,6.853C354.819,395.357,370.437,379.526,375.54,370.6Z" transform="translate(-154.304 -205.163)" fill="#e3e8f4"/>
  <path id="Caminho_160" data-name="Caminho 160" d="M410.295,324.534a16.466,16.466,0,0,1,9.7-.578c2.049.5,4.264,1.375,6.154.445.687-.335,1.255-.884,1.947-1.2,1.873-.838,4.3.191,5.961-1.028,1.045-.768,1.385-2.167,1.737-3.438A30.869,30.869,0,0,1,445.805,303.3c-.6,4.432-1.028,9.476,1.851,12.861a12.594,12.594,0,0,0,5.013,3.253,14.757,14.757,0,0,0,8.43,1.208c2.822-.589,5.461-2.762,5.91-5.656-.1,4.351-4.167,7.39-5.308,11.59-.431,1.572-.392,3.241-.693,4.848-.766,4.1-3.645,7.4-6.16,10.7a76.859,76.859,0,0,0-14.874,36.527,17.894,17.894,0,0,1-.965,4.622,29.209,29.209,0,0,1-1.885,3.3c-4.161,7.153-2.878,16.178-1.465,24.348,2.208,12.8,4.411,25.336,7.988,37.81.613,2.132,1.306,4.356,2.867,5.911-.494,5.044-5.5,7.344-9.992,9.522a48.977,48.977,0,0,0-12.149,8.372,9.741,9.741,0,0,0-3.043,4.3c-.443,1.624-.125,3.409-.693,4.986s-2.839,2.71-3.838,1.381c-1.249-4.755.886-9.73.789-14.653-.068-3.322-1.135-6.552-1.289-9.874-.148-3.761.942-7.453,2.1-11.024,3.225-9.944,7.119-19.795,8.237-30.2s-.971-21.771-8.226-29.2c-8.612-8.852-13.392-20.852-22.623-28.982-1.465-1.288-3.122-2.889-2.878-4.842A5.433,5.433,0,0,1,394,352.076c3.168-4.553,7.38-8.268,10.786-12.625S410.914,330.08,410.295,324.534Z" transform="translate(-188.246 -182.116)" fill="#3f3d56"/>
  <path id="Caminho_161" data-name="Caminho 161" d="M341.486,355.252a16.8,16.8,0,0,1-1.618,1.872,5.271,5.271,0,0,1-2.549.8,81.022,81.022,0,0,1-10.088.919c-2.839,0-5.785-.254-8.516.537-3.809,1.1-6.852,4.16-8.76,7.684a38.6,38.6,0,0,0-3.543,11.48,156.169,156.169,0,0,0-2.583,26.514,69.2,69.2,0,0,0,12.4-13.1c2.725-3.761,5.195-7.921,9.083-10.435,1.788-1.156,3.8-1.918,5.6-3.045,3.753-2.352,6.353-6.153,8.851-9.822,1.839-2.721,7.159-8.037,7.579-11.3C347.7,354.247,343.473,352.727,341.486,355.252Z" transform="translate(-149.748 -203.515)" fill="#3f3d56"/>
  <path id="Caminho_162" data-name="Caminho 162" d="M385.321,247.936a17.93,17.93,0,0,1,2.01,1.427c3.855,2.739,9.015,2.23,13.676,1.606a10.128,10.128,0,0,0,4.127-1.156,6.613,6.613,0,0,0,2.7-6.13,12.309,12.309,0,0,0-2.776-6.356,22.362,22.362,0,0,0-15.527-8.621,9.829,9.829,0,0,0-4.65.5c-1.834.768-3.213,2.352-4.9,3.409-4.99,3.12-12.677,1.733-15.9,6.714-2.356,3.675-.676,8.667-1.788,12.89-.829,3.155-3.219,6.026-2.759,9.245.255,1.733,1.323,3.247,2.174,4.8a21.5,21.5,0,0,1,2.606,11.688c2.186,1.572,5.234-.872,5.842-3.519s-.091-5.466.426-8.135c.914-4.686,4.979-8.124,6.812-12.422C378.713,250.8,380.859,245.6,385.321,247.936Z" transform="translate(-173.804 -150.585)" fill="#3f3d56"/>
  <path id="Caminho_163" data-name="Caminho 163" d="M291.856,337.423a4.424,4.424,0,0,0,.3,3.1c1.135,1.733,3.736,1.109,5.779,1.369,3.185.4,5.535,3.467,6.154,6.691s-.119,6.506-.925,9.672q-2.736,10.764-6.517,21.222c-6.778-.815-13.915-3.467-17.514-9.354-3.27-5.356-2.935-12.18-5.013-18.119-1.459-4.183-4.076-7.823-6.665-11.394,4.161.532,7.136-4.31,7.38-8.574s-1.073-8.592-.176-12.757c.21-.988,16.611,2.126,18.207,3.253C297.47,325.786,292.582,332.9,291.856,337.423Z" transform="translate(-134.021 -188.783)" fill="#fbbebe"/>
  <path id="Caminho_164" data-name="Caminho 164" d="M291.856,337.423a4.424,4.424,0,0,0,.3,3.1c1.135,1.733,3.736,1.109,5.779,1.369,3.185.4,5.535,3.467,6.154,6.691s-.119,6.506-.925,9.672q-2.736,10.764-6.517,21.222c-6.778-.815-13.915-3.467-17.514-9.354-3.27-5.356-2.935-12.18-5.013-18.119-1.459-4.183-4.076-7.823-6.665-11.394,4.161.532,7.136-4.31,7.38-8.574s-1.073-8.592-.176-12.757c.21-.988,16.611,2.126,18.207,3.253C297.47,325.786,292.582,332.9,291.856,337.423Z" transform="translate(-134.021 -188.783)" opacity="0.1"/>
  <ellipse id="Elipse_74" data-name="Elipse 74" cx="22.141" cy="22.533" rx="22.141" ry="22.533" transform="translate(132.044 96.599)" fill="#fbbebe"/>
  <path id="Caminho_165" data-name="Caminho 165" d="M250.488,303.057c.806-1.283-.568-3.074.062-4.455.375-.832,1.323-1.19,2.055-1.733a7.779,7.779,0,0,0,2.14-2.825,33.359,33.359,0,0,0,2.952-21.927c-.522-2.5-.988-5.812,1.255-6.933a4.007,4.007,0,0,1,1.981-.347c4.042.133,7.948,2.889,11.871,1.912a6.9,6.9,0,0,0,5-6.049c.256-3.733-2.492-6.933-5.195-9.447-4.865-4.553-12.28-5.564-18.888-5.674l-12.291-.208c-3.934-.069-8.345.058-11.082,2.929-3.94,4.131-1.959,10.891-2.526,16.617a17.418,17.418,0,0,1-6.245,11.642c-2.549,2.068-6.057,4.044-6.012,7.349a12.125,12.125,0,0,0,.8,3.3c1.255,4.322.057,9.1-2.35,12.885s-5.927,6.7-9.577,9.245a26.789,26.789,0,0,0-5.518,4.507,13.423,13.423,0,0,0-2.878,7.471,9.968,9.968,0,0,0,1.2,6.026c2.4,3.906,8.164,4.478,12.109,2.213S215.7,323,217.3,318.691c.954-2.56,1.925-5.489,4.366-6.639,3.088-1.462,6.7.849,8.709,3.652s3.247,6.223,5.819,8.5a10.266,10.266,0,0,0,14.295-1.2c2.435-3.01,2.975-7.176,2.839-11.076a16.332,16.332,0,0,0-2.839-8.869Z" transform="translate(-103.122 -157.652)" fill="#3f3d56"/>
  <path id="Caminho_166" data-name="Caminho 166" d="M234.048,372.116c-2.526.549-5.166-.664-7.045-2.479a28.482,28.482,0,0,1-4.462-6.419A112.988,112.988,0,0,0,211.1,347.075c-3.724-4.374-8.907-8.817-14.437-7.465a13.625,13.625,0,0,0-5.041,2.744A37.717,37.717,0,0,0,177.9,375.738c.431,3.681,1.414,7.28,1.822,10.978a71.612,71.612,0,0,1,.238,9.169c-.153,9.314-.466,19.165-5.4,27.011-7.647,12.133-11.74,26.624-17.355,39.867-3.032,7.159-4.848,14.78-6.631,22.36q-1.584,6.749-3.162,13.491l-6.869,29.409c-.71,3.033-1.419,6.211-.67,9.244,1.135,4.53,5.319,7.7,9.731,8.984s9.083,1.069,13.665,1.109c8.765.087,17.6,1.2,25.825,4.293,2.35.884,4.695,1.941,7.2,2.149a16.494,16.494,0,0,0,7.34-1.381c6.4-2.519,11.882-6.933,17.775-10.5a69.72,69.72,0,0,1,11.581-5.7c2.021-.768,4.19-1.5,5.581-3.178a10.361,10.361,0,0,0,1.868-4.535c1.919-9.106.63-18.541,0-27.832s-6.086-19.107-1.573-27.208a21.951,21.951,0,0,0,2.458-5.021c.613-2.369.1-4.917.613-7.309a38.219,38.219,0,0,1,1.919-5.05,27.063,27.063,0,0,0,1.226-9.412,105.042,105.042,0,0,0-2.157-20.8c-1.788-8.667,4.127-17.235,7.516-25.422,1.215-2.929,2.935-5.7,3.44-8.834.454-2.831-.131-5.714-.568-8.551a76.122,76.122,0,0,1-.795-13.289c.108-3.987.522-8.049-.414-11.925s-3.611-7.638-7.454-8.436a3,3,0,0,0-2.566.41,3.4,3.4,0,0,0-.9,1.618c-1.249,3.894-1,8.089-1.7,12.133S237.965,371.26,234.048,372.116Z" transform="translate(-78.734 -197.343)" fill="#f86d70"/>
  <path id="Caminho_167" data-name="Caminho 167" d="M203.129,436.318c.233-1.6-.5-3.727-2.089-3.669-1.465.058-2.118,1.924-2.112,3.42s.2,3.212-.835,4.264c-.92.93-2.441.9-3.508,1.658a2.951,2.951,0,0,0-1.209,2.409c0,.8.358,1.572.38,2.375s-.505,1.733-1.289,1.681a3.671,3.671,0,0,0,.517,4.391c.409.4.942.751,1.079,1.317a3.231,3.231,0,0,1-.091,1.184,3.1,3.1,0,0,0,2.413,3.542,1.97,1.97,0,0,0,.1,2.889,4.385,4.385,0,0,0,3.049.89,18.253,18.253,0,0,0,7.159-1.508,4.269,4.269,0,0,0,1.976-1.387,1.756,1.756,0,0,0-.165-2.242c1.1.185,2.424.289,3.145-.578,1-1.213-.074-3.01-1.135-4.183a2.286,2.286,0,0,0,1.863-1.7,2.334,2.334,0,0,0-.807-2.412c-.363-.272-.857-.508-.908-.965s.329-.751.488-1.155c.363-.907-.466-1.832-1.266-2.381-1.9-1.283-4.689-1.26-6.375-2.554S202.885,438.051,203.129,436.318Z" transform="translate(-101.39 -236.729)" fill="#be6f72"/>
  <path id="Caminho_168" data-name="Caminho 168" d="M409.2,287.258a26.406,26.406,0,0,1-4.139.1.906.906,0,0,0-.993.8l-2.64,20.153a8.254,8.254,0,0,1-1.7,3.992,8.808,8.808,0,0,0-1.925,6.65v34.234s-.17,4.564,3.276,4.564a48.955,48.955,0,0,0,12.422,0s2.759-.531,2.759-4.744V319.3a8.352,8.352,0,0,0-1.7-6.7,8.468,8.468,0,0,1-1.652-3.969L410.16,288.05A.907.907,0,0,0,409.2,287.258Z" transform="translate(-190.342 -175.342)" fill="#3f3d56"/>
  <path id="Caminho_169" data-name="Caminho 169" d="M409.2,287.258a26.406,26.406,0,0,1-4.139.1.906.906,0,0,0-.993.8l-2.64,20.153a8.254,8.254,0,0,1-1.7,3.992,8.808,8.808,0,0,0-1.925,6.65v34.234s-.17,4.564,3.276,4.564a48.955,48.955,0,0,0,12.422,0s2.759-.531,2.759-4.744V319.3a8.352,8.352,0,0,0-1.7-6.7,8.468,8.468,0,0,1-1.652-3.969L410.16,288.05A.907.907,0,0,0,409.2,287.258Z" transform="translate(-190.342 -175.342)" opacity="0.1"/>
  <rect id="Retângulo_297" data-name="Retângulo 297" width="16.73" height="28.791" rx="8.365" transform="translate(208.418 144.22)" fill="#6c63ff"/>
  <path id="Caminho_170" data-name="Caminho 170" d="M513.627,136.463a25.936,25.936,0,0,1-3.781,1.733.927.927,0,0,0-.619,1.121l5.189,19.645a8.3,8.3,0,0,1-.046,4.345,8.8,8.8,0,0,0,.738,6.893l12.955,31.593s1.567,4.276,4.752,2.924a49,49,0,0,0,11.468-4.888s2.345-1.572.755-5.454l-12.756-31.108a8.253,8.253,0,0,0-4.1-5.524,8.33,8.33,0,0,1-3.026-3.01l-10.315-17.911A.9.9,0,0,0,513.627,136.463Z" transform="translate(-238.526 -111.63)" fill="#3f3d56"/>
  <path id="Caminho_389" data-name="Caminho 389" d="M8.513,0a8.314,8.314,0,0,1,8.334,8.439l-.073,11.733a8.568,8.568,0,0,1-8.44,8.544A8.314,8.314,0,0,1,0,20.278L.073,8.544A8.568,8.568,0,0,1,8.513,0Z" transform="translate(277.561 58.742) rotate(-22.65)" fill="#6c63ff"/>
  <path id="Caminho_171" data-name="Caminho 171" d="M230.67,344.033c-6.1,2.56-8.516,10.521-7.085,17.073s5.74,12.012,9.941,17.206L245.3,392.931c3.253,4.044,6.813,8.3,11.774,9.712,7.255,2.063,14.511-2.64,20.784-6.893a311.191,311.191,0,0,1,59.7-31.639,19.955,19.955,0,0,0,5.836-3.074,11.088,11.088,0,0,0,2.532-12.711,12.484,12.484,0,0,0-11.053-6.968,14.855,14.855,0,0,0-11.763,6.148c-1.311,1.774-2.271,3.8-3.537,5.6-3.2,4.53-8.2,7.332-13.086,9.863a331.225,331.225,0,0,1-36.333,16.178c-2.271.844-4.831,1.647-6.972.532a8.56,8.56,0,0,1-2.992-3.259,81.586,81.586,0,0,1-8.572-18.593c-1.55-4.911-2.8-10.261-6.529-13.751-5.28-4.946-14.84-3.761-18.8,2.311,0,0-4.638,6.9-1.8,9.793S230.67,344.033,230.67,344.033Z" transform="translate(-114.886 -198.034)" fill="#fbbebe"/>
  <path id="Caminho_172" data-name="Caminho 172" d="M789.683,298.674a17.926,17.926,0,0,1,.732,7.107c-.148,2.924-.869,6.356-3.537,7.471-1.737.711-3.883.173-5.427,1.248-1.874,1.294-1.783,4.079-1.493,6.356.8,6.257,1.7,12.746,5.053,18.038a38.077,38.077,0,0,0,6.7,7.459c4.922,4.518,10.321,8.933,16.787,10.441a6.9,6.9,0,0,0,3.236.139,6.679,6.679,0,0,0,2.8-1.733c3.747-3.5,5.677-8.5,8.175-13.029,1.766-3.241,3.872-6.356,4.865-9.926a17.526,17.526,0,0,0-5.212-17.489c-1.107-.965-2.333-1.774-3.406-2.773a17.892,17.892,0,0,1-5.109-10.094,44.951,44.951,0,0,1-.244-11.556,60.73,60.73,0,0,0-16.855,1.381c-2.464.5-5.933.734-8.164,1.93C786.079,295,789,296.738,789.683,298.674Z" transform="translate(-355.504 -176.583)" fill="#fbbebe"/>
  <path id="Caminho_173" data-name="Caminho 173" d="M789.683,298.674a17.926,17.926,0,0,1,.732,7.107c-.148,2.924-.869,6.356-3.537,7.471-1.737.711-3.883.173-5.427,1.248-1.874,1.294-1.783,4.079-1.493,6.356.8,6.257,1.7,12.746,5.053,18.038a38.077,38.077,0,0,0,6.7,7.459c4.922,4.518,10.321,8.933,16.787,10.441a6.9,6.9,0,0,0,3.236.139,6.679,6.679,0,0,0,2.8-1.733c3.747-3.5,5.677-8.5,8.175-13.029,1.766-3.241,3.872-6.356,4.865-9.926a17.526,17.526,0,0,0-5.212-17.489c-1.107-.965-2.333-1.774-3.406-2.773a17.892,17.892,0,0,1-5.109-10.094,44.951,44.951,0,0,1-.244-11.556,60.73,60.73,0,0,0-16.855,1.381c-2.464.5-5.933.734-8.164,1.93C786.079,295,789,296.738,789.683,298.674Z" transform="translate(-355.504 -176.583)" opacity="0.1"/>
  <path id="Caminho_174" data-name="Caminho 174" d="M665.9,253.341c-9.22-3.218-13.625-15.791-23.276-17.2-1.521-.225-3.083-.139-4.576-.5-5.558-1.34-7.948-7.881-9.555-13.457-5.416-18.587-12.49-36.776-22.538-53.254-4.241-6.933-10.945-12.63-14.005-20.222-.7-1.733-1.062-3.709-2.328-5.079s-3.974-1.566-4.661.179a4.115,4.115,0,0,0-.125,1.913l.664,7.193-11.547-1.057a6.632,6.632,0,0,0-3.2.231,5.476,5.476,0,0,0-2.515,2.664c-3.906,7.471.255,17.258,7.147,21.985,8.05,5.518,19.546,6.356,24.894,14.589,3.179,4.9,3.242,11.2,5.336,16.675,1,2.617,2.458,5.021,3.622,7.557,2.22,4.836,3.355,10.094,5.075,15.132,2.464,7.2,6.114,13.919,9.753,20.592,2.8,5.154,5.677,10.4,9.992,14.341a49.064,49.064,0,0,0,9.515,6.356c8.209,4.565,17.888,8.956,26.586,5.454C670.665,269.542,668.717,260.742,665.9,253.341Z" transform="translate(-263.401 -114.246)" fill="#fbbebe"/>
  <path id="Caminho_175" data-name="Caminho 175" d="M768.625,746.234c-.7,7.54-5.195,14.37-6.245,21.626-6.926-1.1-13.744-2.525-20.341-4.143-.812-.2-1.618-.4-2.43-.578,3.736-10.4.483-22.048,1.47-33.124.1-1.063.233-2.126.414-3.178,8.555-2.97,16.282-6.933,25.252-5.778.176,1.849.358,3.7.534,5.552q.539,5.541,1.067,11.07A45.662,45.662,0,0,1,768.625,746.234Z" transform="translate(-338.131 -358.416)" fill="#fbbebe"/>
  <path id="Caminho_176" data-name="Caminho 176" d="M872.1,764.948c-3.361,1.04-6.812,1.947-10.418,2.692-.6.127-1.209.249-1.817.364-3.69.7-7.426,1.219-11.2,1.572-.386-8.031-5.677-15.415-6.449-23.66a35.351,35.351,0,0,1,.062-6.153c.068-.809.148-1.618.221-2.427l1.6-16.623a24.772,24.772,0,0,1,3.844-.191c7.38.179,14.1,3.432,21.408,5.969a52.824,52.824,0,0,1,.568,10.608c-.278,9.025-1.7,18.16,1.59,26.439C871.7,764.007,871.906,764.474,872.1,764.948Z" transform="translate(-382.443 -358.271)" fill="#fbbebe"/>
  <path id="Caminho_177" data-name="Caminho 177" d="M720.758,577.744c.993,7.881-2.963,15.427-4.678,23.175a83.435,83.435,0,0,0-1.442,15.658l-.9,31.495c-.091,3.149-.17,6.356.772,9.377,1.9,6.055,7.738,10.146,13.818,11.6s12.439.716,18.632-.115c3.037-.41,6.205-.89,8.72-2.675,3.457-2.456,4.968-6.829,6.273-10.908l3.684-11.515c4.241,9.718,2.447,20.344,4.99,30.657a5.992,5.992,0,0,0,1.135,2.617c1.073,1.213,2.839,1.4,4.445,1.52,11.127.8,22.408,1.589,33.353-.578,3.009-.578,6.148-1.514,8.226-3.813,2.418-2.675,2.839-6.61,2.81-10.244-.153-12.486-4.587-24.533-5.575-36.978-.426-5.333-.216-10.695-.4-16.045a109.278,109.278,0,0,0-1.107-12.018,16.368,16.368,0,0,0-1.453-5.258c-1.7-3.235-5.24-4.992-8.589-6.356C777.449,576.583,748.825,576.687,720.758,577.744Z" transform="translate(-326.926 -297.798)" fill="#f86d70"/>
  <ellipse id="Elipse_75" data-name="Elipse 75" cx="24.412" cy="24.845" rx="24.412" ry="24.845" transform="translate(417.602 75.221)" fill="#fbbebe"/>
  <path id="Caminho_178" data-name="Caminho 178" d="M790.347,332.617c-1.811,4.044-4.661,8.089-8.9,9.117-3.9.953-8.033-.959-10.906-3.808s-4.752-6.546-6.744-10.088c-1.453-2.588-3.071-5.2-5.53-6.829-3.361-2.219-7.7-2.161-11.661-1.508s-7.9,1.82-11.922,1.554c-5.013-.341-10.122-2.889-14.851-1.19,1.533,6.98.982,14.652.806,21.805a9.973,9.973,0,0,1-.454,3.259,10.558,10.558,0,0,1-1.652,2.7l-4.542,5.957c4.871,3.709,9.083,8.551,10.786,14.5.959,3.386.664,6.98.63,10.5-.108,10.348,2.1,20.656,1.4,30.981-.817,12.093-5.564,23.521-8.01,35.383a94.246,94.246,0,0,0-1.169,30.969c25.445,8.961,51.662,13.549,78.56,15.051,4.752.266,9.884.306,13.784-2.473,3.242-2.311,5.058-6.269,5.677-10.256s.193-8.043-.238-12.053q-1.754-16.264-3.5-32.529c-.664-6.171-1.328-12.376-.9-18.564a105.044,105.044,0,0,1,2.18-13.682l5.677-27.768a57.924,57.924,0,0,1,3.236-11.6c1.317-3,3.139-5.778,4.593-8.7a38.912,38.912,0,0,0,3.542-11.134,7.507,7.507,0,0,0-.045-3.409c-.608-1.9-2.464-3.033-4.2-3.964a120.482,120.482,0,0,0-33.586-11.989C791.619,326.255,791.772,329.445,790.347,332.617Z" transform="translate(-327.056 -188.79)" fill="#e3e8f4"/>
  <path id="Caminho_179" data-name="Caminho 179" d="M817.448,268.188c2.838-5.535,8.146-9.418,11.229-14.826a22.259,22.259,0,0,0,.693-20.222c-1.084-2.253-2.555-4.322-3.406-6.679-.948-2.681-1.039-5.633-2.135-8.256-1.5-3.594-4.763-6.182-8.311-7.673a43.871,43.871,0,0,0-11.2-2.548l-12.9-1.768a13.948,13.948,0,0,0-5.62,0,4.815,4.815,0,0,0-3.656,3.935c-.176,2.271,1.783,4.385,1.328,6.616-.165.786-.619,1.583-.358,2.346a2.36,2.36,0,0,0,1.135,1.156c3.06,1.733,6.716,1.889,10.031,3.022s6.642,3.975,6.307,7.511c-.182,1.9-1.385,3.877-.568,5.581.784,1.577,2.839,1.866,4.479,2.357a12.224,12.224,0,0,1,8.26,13c-.238,1.733-.852,3.392-.977,5.131-.414,6.09.528,7.829,5.416,11.371Z" transform="translate(-356.512 -141.001)" fill="#3f3d56"/>
  <path id="Caminho_180" data-name="Caminho 180" d="M889.287,345.974a8.561,8.561,0,0,1-.607,3.368c-1.771,3.842-7.193,3.6-10.786,5.778-4.474,2.716-5.461,8.776-5.87,14.057-.465,5.98-.783,12.047.42,17.911s4.1,11.585,8.936,15.022c5.887,4.166,13.892,4.31,20.614,1.774s12.336-7.442,17.207-12.8c4.621-5.084,8.76-10.752,11.241-17.206a5.568,5.568,0,0,0,.471-3.536c-.528-1.733-2.384-2.519-3.894-3.467-3.526-2.167-5.876-5.945-7.1-9.938a43.884,43.884,0,0,1-1.465-12.428c-.045-4.351-.057-9.106-2.782-12.463s-7.448-4.3-11.752-4.264c-3.52,0-13.262.341-15.663,3.467C886.289,333.846,889.429,342.253,889.287,345.974Z" transform="translate(-395.192 -192.451)" fill="#be6f72"/>
  <path id="Caminho_181" data-name="Caminho 181" d="M889.287,345.974a8.561,8.561,0,0,1-.607,3.368c-1.771,3.842-7.193,3.6-10.786,5.778-4.474,2.716-5.461,8.776-5.87,14.057-.465,5.98-.783,12.047.42,17.911s4.1,11.585,8.936,15.022c5.887,4.166,13.892,4.31,20.614,1.774s12.336-7.442,17.207-12.8c4.621-5.084,8.76-10.752,11.241-17.206a5.568,5.568,0,0,0,.471-3.536c-.528-1.733-2.384-2.519-3.894-3.467-3.526-2.167-5.876-5.945-7.1-9.938a43.884,43.884,0,0,1-1.465-12.428c-.045-4.351-.057-9.106-2.782-12.463s-7.448-4.3-11.752-4.264c-3.52,0-13.262.341-15.663,3.467C886.289,333.846,889.429,342.253,889.287,345.974Z" transform="translate(-395.192 -192.451)" opacity="0.1"/>
  <path id="Caminho_182" data-name="Caminho 182" d="M847.024,596.724a4.969,4.969,0,0,0,1.181,2.357,4.653,4.653,0,0,0,1.913.919c18.632,5.564,38.536,3.345,57.827,1.075-2.64-8.181-5.3-16.455-6.029-25.035-.608-7.078.074-14.445-2.39-21.083-.727-1.964-43.078,7.078-47.256,7.812-2.14.376-4.6.248-6.12,1.976-1.828,2.091-1.982,7.072-2.174,9.678C843.43,581.95,844.957,589.531,847.024,596.724Z" transform="translate(-383.199 -288.253)" fill="#be6f72"/>
  <path id="Caminho_183" data-name="Caminho 183" d="M893.129,745.539c-3.406,1.606-6.92,3.1-10.559,4.443q-2.952,1.092-6.029,2.045c-3.361,1.04-6.813,1.947-10.418,2.692q-3.082-7.956-6.171-15.918c-1.516-3.906-3.032-7.829-4.3-11.821a75.068,75.068,0,0,1-2.168-8.314,60.32,60.32,0,0,1,1.408-28.756c7.868,1.508,15.561,2.49,23.31,3.634,4.138.578,8.288,1.26,12.49,2.063q.494,4.177.9,8.355.613,6.448,1.005,12.9Q893.464,731.187,893.129,745.539Z" transform="translate(-386.879 -345.35)" fill="#be6f72"/>
  <path id="Caminho_184" data-name="Caminho 184" d="M893.129,745.539c-3.406,1.606-6.92,3.1-10.559,4.443q-2.952,1.092-6.029,2.045c-3.361,1.04-6.813,1.947-10.418,2.692q-3.082-7.956-6.171-15.918c-1.516-3.906-3.032-7.829-4.3-11.821a75.068,75.068,0,0,1-2.168-8.314,60.32,60.32,0,0,1,1.408-28.756c7.868,1.508,15.561,2.49,23.31,3.634,4.138.578,8.288,1.26,12.49,2.063q.494,4.177.9,8.355.613,6.448,1.005,12.9Q893.464,731.187,893.129,745.539Z" transform="translate(-386.879 -345.35)" opacity="0.1"/>
  <path id="Caminho_185" data-name="Caminho 185" d="M956.534,730.349c.045,3.328-.886,6.725-1.749,9.99-.062.231-.119.456-.176.687A9.373,9.373,0,0,1,949.6,737.2a11.03,11.03,0,0,1-1.346-3.207q-3.854,2.669-7.778,5.287a212.25,212.25,0,0,1-27.6,16.1c-3.406,1.606-6.921,3.1-10.559,4.443q-1.135-4.045-2.157-8.141a76.586,76.586,0,0,1-1.749-8.545A44.132,44.132,0,0,1,900.3,723.7h0l.255-.751a42.836,42.836,0,0,1,3.719-7.968c1.414-2.311,4.212-1.924,7.068-1.156,1.294.341,2.606.751,3.8,1.005,7.42,1.583,15.124-.052,22.708.381a26.767,26.767,0,0,1,10.417,2.7c3.65,1.866,6.591,4.72,7.744,8.667a13.107,13.107,0,0,1,.375,1.733A15.606,15.606,0,0,1,956.534,730.349Z" transform="translate(-406.627 -355.196)" fill="#be6f72"/>
  <path id="Caminho_186" data-name="Caminho 186" d="M700.357,245.373c-11.723-11.556-25.047-21.349-38.678-30.507a106.262,106.262,0,0,1-10.219-7.413c-3.406-2.889-6.375-6.28-9.992-8.88s-8.09-4.385-12.433-3.53-8.2,5.085-7.568,9.51c.568,3.894,4.008,6.564,7.187,8.8,6.018,4.235,12.064,8.482,18.61,11.8a58,58,0,0,1,6.6,3.582c4.076,2.8,7.045,6.933,10.128,10.822a148.57,148.57,0,0,0,42.01,36.4c.193.116,6.909-14.635,6.625-16.548C712.006,255.016,703.445,248.423,700.357,245.373Z" transform="translate(-287.029 -136.316)" fill="#be6f72"/>
  <path id="Caminho_187" data-name="Caminho 187" d="M896.543,605.443c-9.049.578-17.73,3.686-26.58,5.668s-18.468,2.75-26.682-1.156l5,34.719a16.4,16.4,0,0,1,.153,5.807c-.38,1.814-1.368,3.524-1.283,5.379.131,2.935,2.839,5,5.388,6.356a47.485,47.485,0,0,0,24.071,5.645c-.619,2.542-1.391,5.056-2.015,7.6,4.173,4.559,11,4.865,16.952,6.309,4.542,1.092,8.8,2.987,13.25,4.322a55.642,55.642,0,0,0,16.583,2.351c3.787-.04,7.8-.578,10.741-2.981,3.616-2.964,4.74-8,5.524-12.659a29.3,29.3,0,0,0,.568-7.858,31.564,31.564,0,0,0-2.578-8.667l-7.778-19.211c-1.414-3.467-2.839-6.985-4.542-10.331C917.747,615.913,908.515,604.687,896.543,605.443Z" transform="translate(-382.946 -309.672)" fill="#3f3d56"/>
  <path id="Caminho_188" data-name="Caminho 188" d="M862.357,356.3a8.5,8.5,0,0,1,8.913-5.529,16.406,16.406,0,0,1,6.245,2.825l10.843,6.887a47.252,47.252,0,0,1,5.16,3.617c7.477,6.309,10.361,16.68,11.184,26.532s0,19.87,1.924,29.559c-4.576,3.86-9.651,7.124-14.227,10.978a36.066,36.066,0,0,0-6.637,6.639c-1.442,2.04-2.469,4.374-3.974,6.356a14.956,14.956,0,0,1-9.952,5.628c2.481,1.468,3.872,4.316,4.542,7.153s.852,5.778,1.6,8.615c1.022,3.854,3.139,7.373,3.838,11.3.488,2.71.272,5.489.448,8.239.885,14.231,11.859,26.67,11.15,40.907a60.592,60.592,0,0,1-14.567-7.794c-2.021-1.473-3.974-3.068-5.887-4.657L858.5,501.619c-7.034-5.778-14.136-11.683-19.728-18.94-3.508-4.553-6.37-9.591-9.89-14.133s-7.851-8.667-13.228-10.573c-.789,1.208-2.191,2.045-2.981,3.253a2.427,2.427,0,0,0-.329.624,2.777,2.777,0,0,0,.187,1.595,33.752,33.752,0,0,1,1.135,7.159l.358,4.345a15.049,15.049,0,0,1,0,3.467c-.539,3.715-3.923,6.6-7.573,7.176a3.237,3.237,0,0,1-1.6-.052,3.465,3.465,0,0,1-1.885-2.479c-1.436-4.934.766-10.14.942-15.277a37.4,37.4,0,0,0-.13-3.906l-.341-5.125c-3.3-.7-5.195-4.3-6.069-7.615C795.01,442.2,792.631,432.95,794,423.8c.363-2.45,1-4.934.568-7.384-.568-3.276-2.884-5.934-4.1-9.019-3.974-10.059,4.468-20.979,3.684-31.778-.329-4.536-3.156-8.476-4.86-12.682a36.073,36.073,0,0,0-3.406-7,38.416,38.416,0,0,0-6.358-6.581,244.91,244.91,0,0,1-19.972-20.026,14.647,14.647,0,0,1-8.6-4.01,8.1,8.1,0,0,1-2.77-5.448c-.04-2.1,1.482-4.3,3.542-4.408a13.227,13.227,0,0,1,3.5.809c3.679.82,7.38-1.936,9.021-5.4s1.641-7.442,1.612-11.278a10.522,10.522,0,0,1,9.838,3.507c2.538,2.808,4.19,6.309,6.188,9.533a14.716,14.716,0,0,0,3.088,3.8c2.731,2.207,6.665,2.623,9.049,5.2,1.209,1.317,1.879,3.062,2.986,4.472,3.111,3.969,8.805,4.455,13.057,7.066s7.21,7.384,11.922,8.932c1.7.578,3.56.653,5.246,1.294,3.895,1.473,6.273,5.685,6.813,9.874s-.38,8.424-1.312,12.549l-2.186,9.655c-.483,2.138-.852,4.709.7,6.234A6.27,6.27,0,0,0,833.762,383c3.974,1.317,8.4,2.612,12.138.745a14.433,14.433,0,0,0,4.417-3.929C855.857,373.173,859.542,364.471,862.357,356.3Z" transform="translate(-341.835 -180.483)" fill="#6c63ff"/>
  <path id="Caminho_189" data-name="Caminho 189" d="M1009.732,699c-.784,5.287-3.645,10.487-8.328,12.908a11.733,11.733,0,0,1-9.021.635,9.373,9.373,0,0,1-5.013-3.825,11.027,11.027,0,0,1-1.346-3.207,1,1,0,0,0-.04-.179,25.876,25.876,0,0,1-.528-6.223,82.673,82.673,0,0,1,.568-9.7,53.385,53.385,0,0,1,1.567-8.02c1.056-3.75,2.578-7.361,3.974-10.978.727-1.907,1.425-3.819,2-5.778h0c.346-1.156.641-2.346.88-3.547l.085-.433c.045-.243.085-.485.125-.728.568-3.293.732-6.7,2.192-9.678,3.406-6.985,10.037-5.2,11.048,1.242a11.551,11.551,0,0,1,.131,1.508c.153,8.152-3.026,16.12-1.573,24.3a57.455,57.455,0,0,0,1.544,5.9c.511,1.785.971,3.594,1.323,5.425A31.376,31.376,0,0,1,1009.732,699Z" transform="translate(-444.401 -326.714)" fill="#be6f72"/>
  <path id="Caminho_190" data-name="Caminho 190" d="M1009.244,545.474c.153,3.34,0,6.72.659,10,1.538,7.742,7.38,14.595,6.733,22.464-.159,1.918-.857,3.981-2.5,4.929s-4.371.872-4.911,2.779c-.153.532-.074,1.109-.244,1.635a2.8,2.8,0,0,1-2.839,1.572,30.648,30.648,0,0,0-3.446-.312c-4.116.352-5.626,5.957-9.294,7.881a6.926,6.926,0,0,1-7.715-1.335,9.88,9.88,0,0,1-2.77-7.719,58.2,58.2,0,0,1,1.135-6.292,44.415,44.415,0,0,0-.029-11.382c-.494-5.553-1-11.174-2.8-16.438-.846-2.484-1.97-4.859-2.7-7.378a43.619,43.619,0,0,1-1.391-11.03c-.221-7.817.307-16.178,4.894-22.464,3.446-4.715,8.385-8.545,12.285-12.908,2.441-2.733,3.145-3.588,5.842-1.271,2.219,1.9,4.542,4.524,4.791,7.1.681,6.6,0,13.1,1.215,19.824S1008.926,538.57,1009.244,545.474Z" transform="translate(-440.79 -263.841)" fill="#6c63ff"/>
  <ellipse id="Elipse_76" data-name="Elipse 76" cx="28.953" cy="29.467" rx="28.953" ry="29.467" transform="translate(480.618 95.444)" fill="#be6f72"/>
  <path id="Caminho_191" data-name="Caminho 191" d="M936.814,334.505a4.313,4.313,0,0,1,2.47-2.074,4.246,4.246,0,0,1,2.35.5l7.624,3.241a25.65,25.65,0,0,0,3.543-11.417,59.884,59.884,0,0,1,.432-7.43c.692-3.617,2.8-6.858,3.287-10.51.386-2.947-.312-5.911-.732-8.852-1.294-9.083.1-18.35-.647-27.5s-4.349-18.945-12.365-23.146a74.341,74.341,0,0,0-7.079-2.762c-5.263-2.04-9.98-5.3-15.181-7.511s-11.309-3.218-16.35-.682-7.976,9.672-4.7,14.329a17.265,17.265,0,0,0,4.167,3.721c3.071,2.236,6.2,5,6.915,8.777,1.272,6.8-5.677,12.133-7.636,18.784a16.243,16.243,0,0,0-.188,7.968c.846,3.94,2.912,7.661,2.839,11.694-.057,4.42-2.657,8.424-3.145,12.821-.176,1.612-.068,3.247-.267,4.853a25.373,25.373,0,0,1-1.834,6.142c-4.542,11.556-9.146,23.233-15.9,33.621a43.132,43.132,0,0,0,20.8-4.946,35.31,35.31,0,0,1-5.206,12.445A38.951,38.951,0,0,0,916.28,360.8a54.32,54.32,0,0,1-5.166,12.486c.193-.335,3.764-1.156,4.422-1.537a7.785,7.785,0,0,0,3.122-3.392c1.93-3.513,3.134-7.748,4.922-11.4A166.664,166.664,0,0,1,936.814,334.5Z" transform="translate(-400.731 -153.226)" fill="#3f3d56"/>
  <path id="Caminho_192" data-name="Caminho 192" d="M581.2,101.258a26.407,26.407,0,0,1-4.139.1.906.906,0,0,0-.993.8l-2.64,20.153a8.256,8.256,0,0,1-1.7,3.992,8.809,8.809,0,0,0-1.925,6.65v34.234s-.17,4.564,3.276,4.564a48.955,48.955,0,0,0,12.421,0s2.759-.532,2.759-4.744V133.3a8.352,8.352,0,0,0-1.7-6.7,8.466,8.466,0,0,1-1.652-3.969l-2.742-20.575A.907.907,0,0,0,581.2,101.258Z" transform="translate(-264.696 -96.809)" fill="#3f3d56"/>
  <rect id="Retângulo_299" data-name="Retângulo 299" width="16.73" height="28.791" rx="8.365" transform="translate(306.064 36.753)" fill="#6c63ff"/>
  <path id="Caminho_193" data-name="Caminho 193" d="M650.2,152.258a26.4,26.4,0,0,1-4.139.1.906.906,0,0,0-.994.8l-2.64,20.153a8.258,8.258,0,0,1-1.7,3.992,8.808,8.808,0,0,0-1.925,6.65v34.234s-.17,4.564,3.276,4.564a48.954,48.954,0,0,0,12.422,0s2.759-.532,2.759-4.744V184.3a8.352,8.352,0,0,0-1.7-6.7,8.467,8.467,0,0,1-1.652-3.969L651.16,153.05a.907.907,0,0,0-.959-.792Z" transform="translate(-294.524 -118.342)" fill="#3f3d56"/>
  <rect id="Retângulo_300" data-name="Retângulo 300" width="16.73" height="28.791" rx="8.365" transform="translate(345.236 66.219)" fill="#6c63ff"/>
  <g id="Grupo_419" data-name="Grupo 419" transform="translate(278.19 223.709)" opacity="0.2">
    <path id="Caminho_194" data-name="Caminho 194" d="M572.132,743.742a11.156,11.156,0,0,1-.21,1.855q-5.927-.959-11.922-1.733v-.5a9.879,9.879,0,0,1,1.419-4.9,5.244,5.244,0,0,1,9.611.3,9.89,9.89,0,0,1,1.1,4.975Z" transform="translate(-538.677 -588.294)" fill="#3f3d56"/>
    <path id="Caminho_390" data-name="Caminho 390" d="M8.1,0c4.471,0,8.093,2.715,8.091,6.07s-3.627,6.077-8.1,6.079S0,9.434,0,6.079,3.627,0,8.1,0Z" transform="translate(21.376 153.287) rotate(-88.19)" fill="#3f3d56"/>
    <path id="Caminho_391" data-name="Caminho 391" d="M8.1,0c4.471,0,8.093,2.715,8.091,6.07s-3.627,6.077-8.1,6.079S0,9.434,0,6.079,3.627,0,8.1,0Z" transform="translate(21.686 143.395) rotate(-88.19)" fill="#3f3d56"/>
    <path id="Caminho_392" data-name="Caminho 392" d="M8.1,0c4.471,0,8.093,2.715,8.091,6.07s-3.627,6.077-8.1,6.079S0,9.434,0,6.079,3.627,0,8.1,0Z" transform="translate(21.99 133.503) rotate(-88.19)" fill="#3f3d56"/>
    <path id="Caminho_393" data-name="Caminho 393" d="M8.1,0c4.471,0,8.093,2.715,8.091,6.07s-3.627,6.077-8.1,6.079S0,9.434,0,6.079,3.627,0,8.1,0Z" transform="translate(22.299 123.611) rotate(-88.19)" fill="#3f3d56"/>
    <path id="Caminho_195" data-name="Caminho 195" d="M530.405,528.011a28.762,28.762,0,0,1-2.157-3.467l16.044-2.155-17.27-.422a30.17,30.17,0,0,1,.176-23.481l22.777,12.971-20.864-16.663a28.889,28.889,0,0,1,51.621,4.153,30.046,30.046,0,0,1-4.591,30.514,29.465,29.465,0,0,1,3.151,5.506l-21.056,10.284,22.328-6.835a30.068,30.068,0,0,1-5.575,27.681,30,30,0,0,1-4.364,39.965,28.742,28.742,0,0,1-39.49-1.267,30.013,30.013,0,0,1-1.881-40.165,30.041,30.041,0,0,1,1.135-36.62Z" transform="translate(-522.44 -480.747)" fill="#6c63ff"/>
    <path id="Caminho_196" data-name="Caminho 196" d="M581.8,596.779a29.77,29.77,0,0,1-6.813,18.108,30,30,0,0,1-4.364,39.965,28.742,28.742,0,0,1-39.49-1.267,30.013,30.013,0,0,1-1.881-40.165C525.523,608.259,581.9,593.456,581.8,596.779Z" transform="translate(-522.44 -529.535)" opacity="0.1"/>
  </g>
</svg>
