<svg xmlns="http://www.w3.org/2000/svg" width="632.89" height="480.787" viewBox="0 0 632.89 480.787">
  <g id="Grupo_435" data-name="Grupo 435" transform="translate(-261 -935)">
    <ellipse id="Elipse_58" data-name="Elipse 58" cx="103.588" cy="10.007" rx="103.588" ry="10.007" transform="translate(686.715 1395.773)" fill="#e6e6e6"/>
    <ellipse id="Elipse_59" data-name="Elipse 59" cx="37.099" cy="5.004" rx="37.099" ry="5.004" transform="translate(288.059 1396.162)" fill="#e6e6e6"/>
    <rect id="Ret창ngulo_295" data-name="Ret창ngulo 295" width="485.586" height="237.462" transform="translate(261 935)" fill="#e6e6e6"/>
    <rect id="Ret창ngulo_296" data-name="Ret창ngulo 296" width="440.992" height="198.824" transform="translate(283.297 954.319)" fill="#fff"/>
    <path id="Caminho_126" data-name="Caminho 126" d="M26.547,229.1l-1.168-1.138L84.6,170.24l18.582,18.111,32.62-31.8,40.053,39.04,68.131-66.409,30.968,30.187,67.718-66.007,37.988,37.028,69.611-67.852,1.168,1.138-70.779,68.99L342.668,95.642,274.95,161.648l-30.968-30.186-68.131,66.409L135.8,158.831l-32.62,31.8L84.6,172.515Z" transform="translate(257.334 924.613)" fill="#6c63ff"/>
    <ellipse id="Elipse_60" data-name="Elipse 60" cx="9.91" cy="9.659" rx="9.91" ry="9.659" transform="translate(535.064 1010.666)" fill="#6c63ff"/>
    <ellipse id="Elipse_61" data-name="Elipse 61" cx="9.91" cy="9.659" rx="9.91" ry="9.659" transform="translate(384.823 1073.452)" fill="#6c63ff"/>
    <ellipse id="Elipse_62" data-name="Elipse 62" cx="9.91" cy="9.659" rx="9.91" ry="9.659" transform="translate(478.74 1074.257)" fill="#6c63ff"/>
    <ellipse id="Elipse_63" data-name="Elipse 63" cx="9.91" cy="9.659" rx="9.91" ry="9.659" transform="translate(398.375 1110.48)" fill="#6c63ff"/>
    <ellipse id="Elipse_64" data-name="Elipse 64" cx="9.91" cy="9.659" rx="9.91" ry="9.659" transform="translate(451.264 1046.889)" fill="#6c63ff"/>
    <ellipse id="Elipse_65" data-name="Elipse 65" cx="9.91" cy="9.659" rx="9.91" ry="9.659" transform="translate(565.973 1046.889)" fill="#6c63ff"/>
    <path id="Caminho_127" data-name="Caminho 127" d="M218.809,685.465c4.021,14.489,17.794,23.462,17.794,23.462s7.254-14.518,3.233-29.006-17.794-23.462-17.794-23.462S214.788,670.976,218.809,685.465Z" transform="translate(94.694 691.106)" fill="#e6e6e6"/>
    <path id="Caminho_128" data-name="Caminho 128" d="M221.264,685.247c11.034,10.469,12.382,26.563,12.382,26.563s-16.542-.88-27.576-11.35S193.689,673.9,193.689,673.9,210.23,674.777,221.264,685.247Z" transform="translate(98.147 688.21)" fill="#6c63ff"/>
    <path id="Caminho_129" data-name="Caminho 129" d="M877.959,282.18l6.32,60.92h52.013l-2.5-92.6c0-19.931-14.136-37.364-34.583-37.364s-33.75,16.621-33.75,36.552L862.126,343.1h8.48Z" transform="translate(-122.429 764.73)" fill="#2f2e41"/>
    <path id="Caminho_130" data-name="Caminho 130" d="M915.889,679.013s-2.245,13.859-5.987,16.047,19.456,7.294,19.456,7.294l3.741-21.882Z" transform="translate(-129.271 687.361)" fill="#fbbebe"/>
    <path id="Caminho_131" data-name="Caminho 131" d="M942.761,489.211l8.232,9.482-3.742,32.823-2.993,64.917s5.987,56.164,0,57.623-32.926.729-32.178-2.917,1.5-6.565,2.993-11.671-1.5-23.341-1.5-23.341l3.742-20.423-13.47-88.258Z" transform="translate(-128.456 718.882)" fill="#2f2e41"/>
    <path id="Caminho_132" data-name="Caminho 132" d="M911.858,695.5s-8.232-1.459-8.98,0-14.966,16.776-17.211,16.776-18.708,14.588-1.5,15.318,45.648-12.4,45.648-12.4-4.185-18.561-3.963-17.669S911.858,699.15,911.858,695.5Z" transform="translate(-124.492 684.73)" fill="#2f2e41"/>
    <path id="Caminho_133" data-name="Caminho 133" d="M907.347,653.073s20.953,22.612,21.7,24.8,11.973,0,11.973,0l4.49-14.588-3.742-5.106L920.817,641.4Z" transform="translate(-128.961 693.607)" fill="#fbbebe"/>
    <path id="Caminho_134" data-name="Caminho 134" d="M940.5,672.436l-10.851,9.955s13.844,20.68,13.844,22.868.749,20.423,8.232,17.506,8.232-32.094,8.232-32.094-.748-29.906-5.238-32.094-14.331-1.5-14.331-1.5S946.488,671.707,940.5,672.436Z" transform="translate(-132.183 691.02)" fill="#2f2e41"/>
    <path id="Caminho_135" data-name="Caminho 135" d="M865.122,410.765s-3.742,11.671-4.49,14.588-5.238,10.941-5.238,23.341,1.5,26.988,0,28.447-25.443,83.152-14.966,91.905,44.9,37.929,47.144,41.576,2.993,12.4,7.483,10.941,21.7-16.047,22.45-18.965-9.728-8.023-9.728-8.023S886.823,564.67,881.584,565.4s-4.49-3.647-3.741-5.835,2.245-3.647,0-3.647-.748-5.835,0-8.753S895.8,504.859,895.8,504.859l45.647-19.694s-2.245-53.247-18.708-67.835L919,408.577S877.094,405.659,865.122,410.765Z" transform="translate(-118.913 732.411)" fill="#2f2e41"/>
    <path id="Caminho_136" data-name="Caminho 136" d="M887.939,273.169s3.741,25.529-5.238,26.988-16.463.729-16.463,1.459,22.45,23.341,22.45,23.341l20.953-1.459L928.348,303.8s-17.211-2.918-17.211-13.129-.748-17.506-.748-17.506Z" transform="translate(-123.023 754.76)" fill="#ffb8b8"/>
    <ellipse id="Elipse_66" data-name="Elipse 66" cx="23.198" cy="22.612" rx="23.198" ry="22.612" transform="translate(753.318 993.282)" fill="#ffb8b8"/>
    <path id="Caminho_137" data-name="Caminho 137" d="M882.807,303.3s-36.225,3.316-38.47,12.8,14.966,68.564,17.211,73.67,1.5,8.753,1.5,8.753a30.21,30.21,0,0,1,23.946-5.106c14.218,2.918,34.423,1.459,34.423,1.459s6.735-26.988,8.232-29.906,7.483-18.965,7.483-23.341,8.98-22.612,8.98-22.612-4.49-13.129-20.953-12.4c0,0-7.181-3.133-9.2-.837s-13.247,12.508-27.465,8.131S882.807,303.3,882.807,303.3Z" transform="translate(-119.83 749.755)" fill="#e6e6e6"/>
    <path id="Caminho_138" data-name="Caminho 138" d="M946.707,317.777l14.218,3.647s10.476,37.2,11.225,37.929,1.5,5.106,1.5,5.106,0,.729,1.5,2.918,3.742.729,2.245,3.647-3.742,1.459-2.245,4.376.748,10.941.748,10.941-3.741-13.859-17.211-10.212l-8.98-39.388Z" transform="translate(-134.647 747.352)" fill="#e6e6e6"/>
    <path id="Caminho_139" data-name="Caminho 139" d="M784.7,162.528l-.051.167L760,238.382l-16.179-3.5-17.5-3.785,24.7-78.048Z" transform="translate(32.063 909.583)" fill="#6c63ff"/>
    <path id="Caminho_140" data-name="Caminho 140" d="M856.03,317.777l-14.218,3.647s-10.476,37.2-11.225,37.929-1.5,5.106-1.5,5.106,0,.729-1.5,2.918-3.742.729-2.245,3.647,3.742,1.459,2.245,4.376-.748,10.941-.748,10.941,3.742-13.859,17.212-10.212l8.98-39.388Z" transform="translate(-90.573 747.352)" fill="#e6e6e6"/>
    <path id="Caminho_141" data-name="Caminho 141" d="M831.612,382.721l-4.675,7.615s-2.06,14.267,8.417,14.267S860.8,390.745,860.8,390.745s7.483-2.918,11.973-2.188,29.185,0,18.708-12.4-28.436,0-28.436,0l-18.708,8.753-9.728-5.106Z" transform="translate(-96.251 738.572)" fill="#ffb8b8"/>
    <path id="Caminho_142" data-name="Caminho 142" d="M837.938,373.027l7.483,11.671s-17.211,2.188-18.708,5.835,6.735-18.965,6.735-18.965Z" transform="translate(-89.433 738.419)" fill="#e6e6e6"/>
    <path id="Caminho_143" data-name="Caminho 143" d="M881.6,245.133c15.07-7.919,21.26-7.584,40,0l5-11.874a8.554,8.554,0,0,0-8.652-8.433h-33.53a8.554,8.554,0,0,0-8.651,8.432Z" transform="translate(-124.399 762.789)" fill="#2f2e41"/>
    <path id="Caminho_144" data-name="Caminho 144" d="M787.6,163.691l-24.648,75.687-16.179-3.5,24.315-76.83Z" transform="translate(29.109 908.587)" opacity="0.2"/>
    <path id="Caminho_145" data-name="Caminho 145" d="M777.019,159.044,752.324,237.09,786,244.384l24.695-75.858Z" transform="translate(28.307 908.587)" fill="#6c63ff"/>
    <path id="Caminho_146" data-name="Caminho 146" d="M965.03,382.721l4.675,7.615s2.06,14.267-8.417,14.267-25.443-13.859-25.443-13.859-7.483-2.918-11.973-2.188-29.184,0-18.708-12.4,28.436,0,28.436,0l18.708,8.753,9.728-5.106Z" transform="translate(-128.275 738.572)" fill="#ffb8b8"/>
    <path id="Caminho_147" data-name="Caminho 147" d="M966.873,373.027,959.389,384.7s17.211,2.188,18.708,5.835-6.735-18.965-6.735-18.965Z" transform="translate(-136.479 738.419)" fill="#e6e6e6"/>
  </g>
</svg>
