<svg xmlns="http://www.w3.org/2000/svg" width="45.641" height="52.161" viewBox="0 0 45.641 52.161">
  <path id="Icon_awesome-book" data-name="Icon awesome-book" d="M45.641,36.676V2.445A2.439,2.439,0,0,0,43.2,0H9.78A9.783,9.783,0,0,0,0,9.78v32.6a9.783,9.783,0,0,0,9.78,9.78H43.2a2.439,2.439,0,0,0,2.445-2.445v-1.63a2.464,2.464,0,0,0-.907-1.905,22.719,22.719,0,0,1,0-7.61A2.428,2.428,0,0,0,45.641,36.676ZM13.04,13.652a.613.613,0,0,1,.611-.611h21.6a.613.613,0,0,1,.611.611v2.038a.613.613,0,0,1-.611.611h-21.6a.613.613,0,0,1-.611-.611Zm0,6.52a.613.613,0,0,1,.611-.611h21.6a.613.613,0,0,1,.611.611v2.038a.613.613,0,0,1-.611.611h-21.6a.613.613,0,0,1-.611-.611ZM38.856,45.641H9.78a3.26,3.26,0,1,1,0-6.52H38.856A36.676,36.676,0,0,0,38.856,45.641Z"/>
</svg>
