<svg xmlns="http://www.w3.org/2000/svg" width="97.318" height="79.443" viewBox="0 0 97.318 79.443">
  <g id="Icon_map-grocery-or-supermarket" data-name="Icon map-grocery-or-supermarket" transform="translate(0 -4.32)">
    <path id="Caminho_28" data-name="Caminho 28" d="M44.689,35.3a7.944,7.944,0,1,1-7.944-7.944A7.944,7.944,0,0,1,44.689,35.3Z" transform="translate(50.643 40.515)"/>
    <path id="Caminho_29" data-name="Caminho 29" d="M23.809,35.3a7.944,7.944,0,1,1-7.944-7.944A7.944,7.944,0,0,1,23.809,35.3Z" transform="translate(13.927 40.515)"/>
    <path id="Caminho_30" data-name="Caminho 30" d="M93.346,57.944H31.322L32.647,55.8a3.976,3.976,0,0,0,.463-3.084l-1.293-4.977L89.38,44.743a4.238,4.238,0,0,0,3.966-4.177V14.25a3.984,3.984,0,0,0-3.972-3.972H22.083l-.777-2.985A3.972,3.972,0,0,0,17.462,4.32H3.972a3.972,3.972,0,0,0,0,7.944H14.391L25,53.068l-4.171,6.763a3.975,3.975,0,0,0,3.38,6.058H93.346a3.972,3.972,0,1,0,0-7.944Z" transform="translate(0 0)"/>
  </g>
</svg>
