<svg xmlns="http://www.w3.org/2000/svg" width="81.648" height="77.584" viewBox="0 0 81.648 77.584">
  <g id="Icon_material-pets" data-name="Icon material-pets" transform="translate(-3 -4.5)">
    <path id="Caminho_23" data-name="Caminho 23" d="M23.412,20.706A10.206,10.206,0,1,1,13.206,10.5,10.206,10.206,0,0,1,23.412,20.706Z" transform="translate(0 10.33)"/>
    <path id="Caminho_24" data-name="Caminho 24" d="M30.162,14.706A10.206,10.206,0,1,1,19.956,4.5,10.206,10.206,0,0,1,30.162,14.706Z" transform="translate(11.621)"/>
    <path id="Caminho_25" data-name="Caminho 25" d="M39.162,14.706A10.206,10.206,0,1,1,28.956,4.5,10.206,10.206,0,0,1,39.162,14.706Z" transform="translate(27.115)"/>
    <path id="Caminho_26" data-name="Caminho 26" d="M45.912,20.706A10.206,10.206,0,1,1,35.706,10.5,10.206,10.206,0,0,1,45.912,20.706Z" transform="translate(38.736 10.33)"/>
    <path id="Caminho_27" data-name="Caminho 27" d="M60.476,33.549c-3.552-4.164-6.532-7.716-10.124-11.88a17.32,17.32,0,0,0-7.144-5.389,8.265,8.265,0,0,0-1.347-.367,20.546,20.546,0,0,0-3.184-.163,17.126,17.126,0,0,0-3.225.2,8.265,8.265,0,0,0-1.347.367c-2.858.98-5.225,3.184-7.144,5.389-3.552,4.164-6.532,7.716-10.124,11.88-5.348,5.348-11.921,11.267-10.7,19.555,1.184,4.164,4.164,8.287,9.512,9.471,2.98.612,12.492-1.8,22.617-1.8H39c10.124,0,19.636,2.368,22.617,1.8,5.348-1.184,8.328-5.348,9.512-9.471,1.266-8.328-5.307-14.248-10.655-19.6Z" transform="translate(5.148 19.368)"/>
  </g>
</svg>
