<svg xmlns="http://www.w3.org/2000/svg" xmlns:xlink="http://www.w3.org/1999/xlink" width="533.021" height="225.488" viewBox="0 0 533.021 225.488">
  <defs>
    <linearGradient id="linear-gradient" x1="0.5" y1="1" x2="0.5" gradientUnits="objectBoundingBox">
      <stop offset="0" stop-color="gray" stop-opacity="0.251"/>
      <stop offset="0.535" stop-color="gray" stop-opacity="0.122"/>
      <stop offset="1" stop-color="gray" stop-opacity="0.102"/>
    </linearGradient>
  </defs>
  <g id="Grupo_436" data-name="Grupo 436" transform="translate(-347.516 -3105.512)">
    <circle id="Elipse_107" data-name="Elipse 107" cx="21.985" cy="21.985" r="21.985" transform="translate(689.699 3105.512)" fill="#2f2e41"/>
    <path id="Caminho_382" data-name="Caminho 382" d="M818.289,370.536a21.987,21.987,0,0,1-33.951-11.544,21.987,21.987,0,1,0,42.888-9.016A21.979,21.979,0,0,1,818.289,370.536Z" transform="translate(-87.641 2775.167)" fill="#2f2e41"/>
    <g id="Grupo_429" data-name="Grupo 429" transform="translate(-27 161)">
      <path id="Caminho_341" data-name="Caminho 341" d="M189.734,316v16.145a25.563,25.563,0,1,1,0,51.125v16.145h83.415V316Z" transform="translate(267.302 2632.906)" fill="#f2f2f2"/>
      <ellipse id="Elipse_100" data-name="Elipse 100" cx="20" cy="19.5" rx="20" ry="19.5" transform="translate(437 2971)" fill="#f2f2f2"/>
      <path id="Caminho_342" data-name="Caminho 342" d="M825.738,338.234,793,318.055V474.1h32.738Z" transform="translate(-62.847 2672.583)" fill="#f2f2f2"/>
      <path id="Caminho_343" data-name="Caminho 343" d="M681,436.022h32.738V269.2L681,249.02Z" transform="translate(-1.075 2710.658)" fill="#f2f2f2"/>
      <path id="Caminho_344" data-name="Caminho 344" d="M440.691,100.428V91.039H329.471v99.955H277v97.819H440.691Z" transform="translate(221.744 2857.866)" fill="#f2f2f2"/>
      <path id="Caminho_345" data-name="Caminho 345" d="M905,387.09V512.172h17.042l46.192-86.106Z" transform="translate(-124.618 2634.508)" fill="#f2f2f2"/>
      <path id="Caminho_346" data-name="Caminho 346" d="M1009.716,602.148c-27.169,20.308-34.829,55.987-34.829,55.987s36.388,2.753,63.556-17.555,34.829-55.987,34.829-55.987S1036.885,581.84,1009.716,602.148Z" transform="translate(-165.735 2484.837)" fill="#3f3d56"/>
      <path id="Caminho_347" data-name="Caminho 347" d="M916.238,605.612s-.4-.223-1.121-.666c-.575-.354-1.365-.848-2.32-1.478-8.538-5.625-30.654-22.171-39.725-47.7-11.349-31.964,2.052-65.906,2.052-65.906s29.234,16.435,41.652,45.954c.541,1.271,1.042,2.569,1.513,3.891,9.876,27.812,1.012,57.121-1.456,64.265C916.463,605.04,916.238,605.612,916.238,605.612Z" transform="translate(-107.065 2537.016)" fill="#6c63ff"/>
      <path id="Caminho_348" data-name="Caminho 348" d="M926.382,601.385l-.416-.3c-.3-.215-29.783-21.877-37.359-54.712s9.436-65.227,9.609-65.55l.242-.454.416.3c.3.215,29.783,21.877,37.359,54.712h0c7.577,32.835-9.436,65.227-9.609,65.55ZM898.768,481.711c-2.045,4.08-16.294,34.1-9.287,64.458s32.966,51.1,36.591,53.872c2.045-4.08,16.294-34.1,9.287-64.458h0C928.354,505.22,902.393,484.482,898.768,481.711Z" transform="translate(-117.077 2542.251)" fill="#3f3d56"/>
      <path id="Caminho_349" data-name="Caminho 349" d="M966.31,660.486c-.662.386-1.241.71-1.717.976-1.047.572-1.628.86-1.628.86s-.275-.826-.692-2.338c-2.3-8.272-8.885-37.1,2.136-63.581q.869-2.081,1.844-4.072c.541,1.271,1.042,2.569,1.513,3.891C977.642,624.033,968.779,653.342,966.31,660.486Z" transform="translate(-156.541 2480.5)" opacity="0.1"/>
      <path id="Caminho_350" data-name="Caminho 350" d="M1015.744,564.012C1002.712,595.329,970,611.5,970,611.5s-11.588-34.6,1.441-65.92,45.741-47.49,45.741-47.49S1028.772,532.695,1015.744,564.012Z" transform="translate(-160.421 2532.476)" fill="#6c63ff"/>
      <rect id="Ret창ngulo_565" data-name="Ret창ngulo 565" width="120.504" height="0.897" transform="translate(809.483 3142.897) rotate(-67.243)" fill="#3f3d56"/>
      <path id="Caminho_351" data-name="Caminho 351" d="M533.8,750.8c0,4.2-24.159,8.041-64.1,10.99-7.262.534-15.047,1.039-23.3,1.515q-10.7.615-22.427,1.156-11.364.516-23.6.958c-25.758.937-54.23,1.61-84.478,1.946q-11.009.121-22.318.19-11.773.066-23.818.066C123.941,767.625,5.729,760.1,5.729,750.8s118.212-16.821,264.036-16.821c62.778,0,120.434,1.4,165.747,3.724q2.5.132,4.954.256a.05.05,0,0,0,.032.007C497.578,741.058,533.8,745.66,533.8,750.8Z" transform="translate(368.786 2402.375)" fill="#3f3d56"/>
      <path id="Caminho_352" data-name="Caminho 352" d="M533.8,750.8c0,4.2-24.159,8.041-64.1,10.99-7.262.534-15.047,1.039-23.3,1.515q-10.7.615-22.427,1.156-11.364.516-23.6.958c-25.758.937-54.23,1.61-84.478,1.946q-11.009.121-22.318.19-11.773.066-23.818.066C123.941,767.625,5.729,760.1,5.729,750.8s118.212-16.821,264.036-16.821c62.778,0,120.434,1.4,165.747,3.724q2.5.132,4.954.256a.05.05,0,0,0,.032.007C497.578,741.058,533.8,745.66,533.8,750.8Z" transform="translate(368.786 2402.375)" opacity="0.15"/>
      <path id="Caminho_353" data-name="Caminho 353" d="M532.536,747.594c0,3.511-22.522,6.722-59.758,9.189-6.767.444-14.028.865-21.719,1.265q-9.976.511-20.908.964-10.6.437-22,.8c-24.015.785-50.56,1.345-78.76,1.628q-10.259.1-20.8.157-10.979.061-22.2.058c-135.949,0-246.155-6.3-246.155-14.064S150.437,733.53,286.385,733.53c30.061,0,58.861.309,85.492.875h.067c25.186.534,48.43,1.3,68.961,2.242l4.619.211a.043.043,0,0,0,.031.009c9.4.458,18.2.951,26.312,1.48.09,0,.179.014.269.018C509.758,740.836,532.536,744.06,532.536,747.594Z" transform="translate(349.758 2402.625)" fill="#3f3d56"/>
      <path id="Caminho_354" data-name="Caminho 354" d="M879.813,739.422c-3.332,21.666-24.343,14.4-49.767,14.4-26.859,0-48.789,8.1-50.157-18.347,25.186.534,48.43,1.3,68.961,2.242l4.619.211a.042.042,0,0,0,.031.009C862.908,738.4,871.707,738.893,879.813,739.422Z" transform="translate(-58.188 2401.549)" opacity="0.1"/>
      <path id="Caminho_355" data-name="Caminho 355" d="M297.5,707.748c0,7.811-4.643,10.538-10.371,10.538-.133,0-.265,0-.4,0-.265-.006-.529-.018-.788-.036-5.17-.366-9.185-3.233-9.185-10.5,0-7.516,9.6-17,10.328-17.7h0l.042-.041S297.5,699.938,297.5,707.748Z" transform="translate(219.304 2426.632)" fill="#6c63ff"/>
      <path id="Caminho_356" data-name="Caminho 356" d="M293.916,717.091l3.793-5.3-3.8,5.882-.01.608c-.265-.006-.529-.018-.788-.036l.409-7.814,0-.061.007-.01.039-.739-3.812-5.9,3.824,5.342.01.157.308-5.9-3.264-6.093,3.3,5.057.322-12.241v0l-.053,9.652,3.249-3.827-3.263,4.658-.086,5.286,3.034-5.073-3.047,5.851-.048,2.939,4.4-7.062-4.421,8.087Z" transform="translate(212.141 2426.632)" fill="#3f3d56"/>
      <path id="Caminho_357" data-name="Caminho 357" d="M779.734,651.209c0-29.722,22.488-53.816,50.228-53.816s50.229,24.094,50.229,53.816-22.488,21.078-50.229,21.078S779.734,680.931,779.734,651.209Z" transform="translate(-58.102 2477.708)" fill="#3f3d56"/>
      <rect id="Ret창ngulo_566" data-name="Ret창ngulo 566" width="0.897" height="60.624" transform="translate(442.409 3093.461)" fill="#3f3d56"/>
      <circle id="Elipse_101" data-name="Elipse 101" cx="8.573" cy="8.573" r="8.573" transform="translate(434.284 3084.887)" fill="#3f3d56"/>
      <path id="Caminho_358" data-name="Caminho 358" d="M125.735,692.712s-1.225-26.341-26.332-23.28" transform="translate(317.122 2438.113)" fill="#3f3d56"/>
      <path id="Caminho_359" data-name="Caminho 359" d="M634.882,635.036c.224.791.473,1.577.74,2.358-1.2-1.177-2.372-2.386-3.57-3.556.48.15.959.3,1.412.477a8.568,8.568,0,0,1,1.417.721Zm-5.8-3.931c-7.057-6.136-15.233-10.886-22.465-16.835,3.949,1.943,7.79,4.207,11.6,6.377q6.78,3.862,13.721,7.424a11.191,11.191,0,0,1-2.856,3.033Zm3.019-15.45.338-.346c0,.872.01,1.687.02,2.427q-.948-.315-1.892-.645a16.694,16.694,0,0,0,1.533-1.435Zm-62.16,16.611a58.034,58.034,0,0,0,7.53-10.742c2.8,4.895,7.354,8.424,11.226,12.523C582.458,633.224,576.21,632.544,569.941,632.266Z" transform="translate(57.606 2468.4)" fill="url(#linear-gradient)"/>
      <path id="Caminho_360" data-name="Caminho 360" d="M97.5,733.748c0,7.811-4.643,10.538-10.371,10.538-.133,0-.265,0-.4,0-.265-.006-.529-.018-.788-.036-5.17-.366-9.185-3.233-9.185-10.5,0-7.516,9.6-17,10.328-17.7h0l.042-.041S97.5,725.938,97.5,733.748Z" transform="translate(329.61 2412.292)" fill="#6c63ff"/>
      <path id="Caminho_361" data-name="Caminho 361" d="M93.916,743.091l3.793-5.3-3.8,5.882-.01.608c-.265-.006-.529-.018-.788-.036l.409-7.814,0-.061.007-.011.039-.739-3.812-5.9,3.824,5.343.01.157.308-5.9-3.264-6.093,3.3,5.057.322-12.241v0L94.2,725.7l3.249-3.827-3.263,4.658-.086,5.286,3.034-5.073-3.047,5.851-.048,2.939,4.4-7.062-4.42,8.087Z" transform="translate(322.447 2412.292)" fill="#3f3d56"/>
      <circle id="Elipse_102" data-name="Elipse 102" cx="4.5" cy="4.5" r="4.5" transform="translate(428 3075)" fill="#6c63ff"/>
      <path id="Caminho_362" data-name="Caminho 362" d="M749.747,466.536s16.27-3.6,18.063,10.749-8.64,17.06-8.64,17.06l-6.608,1.776L727,489.394l3.588-10.315Z" transform="translate(-29.017 2550.102)" fill="#2f2e41"/>
      <circle id="Elipse_103" data-name="Elipse 103" cx="21.985" cy="21.985" r="21.985" transform="translate(692.882 2973.459)" fill="#2f2e41"/>
      <path id="Caminho_363" data-name="Caminho 363" d="M586.65,430.572l4.467.9L606.3,453.928l-6.7.9Z" transform="translate(50.962 2610.526)" fill="#2f2e41"/>
      <path id="Caminho_364" data-name="Caminho 364" d="M351.456,724.283a87.739,87.739,0,0,0,4.439,11.592,108.167,108.167,0,0,0,14.821-4.223,41.833,41.833,0,0,0-3.079-4.187,14.8,14.8,0,0,0-4.185-3.219c-1.543-.671-3.443-.159-5.094-.075Q354.91,724.348,351.456,724.283Z" transform="translate(178.107 2407.933)" fill="#fbbebe"/>
      <path id="Caminho_365" data-name="Caminho 365" d="M316.594,722.55c-2.518-.788-4.048-3.321-5.072-5.765s-1.85-5.108-3.792-6.9a2.269,2.269,0,0,0-1.712,1.292c-.368.651-.587,1.385-1.013,2-.81,1.171-2.234,1.736-3.253,2.729-1.068,1.041-1.651,2.513-2.757,3.513-1.388,1.256-3.351,1.568-5.172,1.984a33.171,33.171,0,0,0-8.094,3,13.593,13.593,0,0,1-3,1.344,11.265,11.265,0,0,1-3.507.117l-8.053-.574a6.289,6.289,0,0,0-2.15.094,3.909,3.909,0,0,0-2.562,4.036,6.29,6.29,0,0,0,2.549,4.333,16.963,16.963,0,0,0,4.586,2.324,135.907,135.907,0,0,0,21.593,6.168l0,1.594a37.292,37.292,0,0,0,16.437,3.827,2.558,2.558,0,0,0,1.23-.213,2.642,2.642,0,0,0,1.036-1.578,63.9,63.9,0,0,0,3.359-17.507,13.289,13.289,0,0,0-.347-4.51c-.439-1.45,1.072-.841-.326-1.408" transform="translate(224.991 2415.666)" fill="#2f2e41"/>
      <path id="Caminho_366" data-name="Caminho 366" d="M527.734,662.622c-23.876,1.43-47.475-5.559-71.382-6.306a35.434,35.434,0,0,0-8.879.566,44.092,44.092,0,0,0-8.787,3.407c-12.822,5.966-26.087,10.907-39.335,15.842L384.132,681.8c-3.041,1.133-6.193,2.283-9.43,2.085-1.451-.089-3.232-.308-4.049.9-2.476,3.668-1.306,9.057.33,13.174.531,1.336,1.429,2.778,2.852,2.93a8.308,8.308,0,0,0,2.907-.734c2.77-.742,5.532,1.121,8.383,1.425,3.522.375,6.793-1.632,10.117-2.86,5.514-2.038,11.542-1.974,17.338-2.939,9.718-1.618,18.724-6.131,27.144-11.271,3.206-1.958,6.45-4.055,10.133-4.771,4.235-.823,8.584.268,12.736,1.442a294.183,294.183,0,0,1,29.2,9.943,134.782,134.782,0,0,0,15.256,5.563,55.16,55.16,0,0,0,34.191-1.994c3.822-1.51,7.974-4.18,8.193-8.3.125-2.351-1.7-4.422-2.917-6.432-.781-1.289-1.563-2.579-2.414-3.823C539.983,670.115,534.986,662.188,527.734,662.622Z" transform="translate(168.306 2445.234)" fill="#2f2e41"/>
      <path id="Caminho_367" data-name="Caminho 367" d="M527.734,662.622c-23.876,1.43-47.475-5.559-71.382-6.306a35.434,35.434,0,0,0-8.879.566,44.092,44.092,0,0,0-8.787,3.407c-12.822,5.966-26.087,10.907-39.335,15.842L384.132,681.8c-3.041,1.133-6.193,2.283-9.43,2.085-1.451-.089-3.232-.308-4.049.9-2.476,3.668-1.306,9.057.33,13.174.531,1.336,1.429,2.778,2.852,2.93a8.308,8.308,0,0,0,2.907-.734c2.77-.742,5.532,1.121,8.383,1.425,3.522.375,6.793-1.632,10.117-2.86,5.514-2.038,11.542-1.974,17.338-2.939,9.718-1.618,18.724-6.131,27.144-11.271,3.206-1.958,6.45-4.055,10.133-4.771,4.235-.823,8.584.268,12.736,1.442a294.183,294.183,0,0,1,29.2,9.943,134.782,134.782,0,0,0,15.256,5.563,55.16,55.16,0,0,0,34.191-1.994c3.822-1.51,7.974-4.18,8.193-8.3.125-2.351-1.7-4.422-2.917-6.432-.781-1.289-1.563-2.579-2.414-3.823C539.983,670.115,534.986,662.188,527.734,662.622Z" transform="translate(168.306 2445.234)" opacity="0.1"/>
      <path id="Caminho_368" data-name="Caminho 368" d="M453.673,715.134q5.606,1.913,11.311,3.518c2.129-3.5,6.111-5.927,7.019-9.923a.872.872,0,0,0,0-.535.9.9,0,0,0-.428-.383,21.059,21.059,0,0,0-8.857-2.6c-2.454-.155-3.574,2.407-4.687,4.208C457.581,710.154,454.673,715.475,453.673,715.134Z" transform="translate(121.731 2418.244)" fill="#fbbebe"/>
      <path id="Caminho_369" data-name="Caminho 369" d="M419.951,714.634a8.146,8.146,0,0,1-5.494-3.613c-.528-.92-1.09-2.16-2.144-2.091-.978.064-1.428,1.232-1.648,2.192a62.354,62.354,0,0,1-3.082,10.617,19.881,19.881,0,0,1-6.608,8.679c-1.385.963-2.929,1.683-4.283,2.69a28.649,28.649,0,0,1-3.62,2.74,20.415,20.415,0,0,1-2.776,1.036,18.8,18.8,0,0,0-3.976,1.935,8,8,0,0,0-2.708,2.587,3.794,3.794,0,0,0-.223,3.621,3.918,3.918,0,0,0,2.65,1.815,11.347,11.347,0,0,0,3.294.083c4.353-.321,8.7-.708,13.049-1.1a37.42,37.42,0,0,0,5.47-.761c.953-.23,1.886-.534,2.835-.779a23.37,23.37,0,0,1,4.972-.724,4.165,4.165,0,0,1,1.451.132c1.007.329,1.722,1.331,2.762,1.535a4.385,4.385,0,0,0,1.967-.263c3.133-.857,6.424-.834,9.666-1.008,1.428-.077,3.1-.348,3.756-1.627.817-1.594-.538-3.377-1.078-5.087a15.563,15.563,0,0,1-.448-3.336,20.429,20.429,0,0,0-2.4-7.931c-1.108-2.035-2.621-4.285-1.842-6.469a5.842,5.842,0,0,0,.737-2.217C430,713.846,421.952,715.053,419.951,714.634Z" transform="translate(160.692 2416.193)" fill="#2f2e41"/>
      <path id="Caminho_370" data-name="Caminho 370" d="M618,559.155a18.686,18.686,0,0,1-9.514-9.45c-.4-.907-.726-1.853-1.11-2.768a21.032,21.032,0,0,0-5.686-7.9,2.747,2.747,0,0,0-2.111-.893,2.271,2.271,0,0,0-1.552,1.662,6.783,6.783,0,0,0-.158,2.551,45.7,45.7,0,0,0,1.035,5.968l1.157,5.272a10.1,10.1,0,0,0,.72,2.354,8.287,8.287,0,0,0,1.942,2.324q1.585,1.461,3.222,2.843a9.005,9.005,0,0,0,5.588,2.485c4.742.879,9.564,2.146,13.565,5.24-.044-.034-.017-3.536-.086-3.938A5.178,5.178,0,0,0,624,562.079C622.449,560.468,619.893,559.995,618,559.155Z" transform="translate(42.231 2510.396)" fill="#fbbebe"/>
      <path id="Caminho_371" data-name="Caminho 371" d="M618,559.155a18.686,18.686,0,0,1-9.514-9.45c-.4-.907-.726-1.853-1.11-2.768a21.032,21.032,0,0,0-5.686-7.9,2.747,2.747,0,0,0-2.111-.893,2.271,2.271,0,0,0-1.552,1.662,6.783,6.783,0,0,0-.158,2.551,45.7,45.7,0,0,0,1.035,5.968l1.157,5.272a10.1,10.1,0,0,0,.72,2.354,8.287,8.287,0,0,0,1.942,2.324q1.585,1.461,3.222,2.843a9.005,9.005,0,0,0,5.588,2.485c4.742.879,9.564,2.146,13.565,5.24-.044-.034-.017-3.536-.086-3.938A5.178,5.178,0,0,0,624,562.079C622.449,560.468,619.893,559.995,618,559.155Z" transform="translate(42.231 2510.396)" opacity="0.1"/>
      <ellipse id="Elipse_104" data-name="Elipse 104" cx="5.807" cy="5.839" rx="5.807" ry="5.839" transform="translate(703.053 3017.517)" fill="#2f2e41"/>
      <path id="Caminho_372" data-name="Caminho 372" d="M693.831,473.994c-1.576-.175-3.327-.3-4.59.66a6.267,6.267,0,0,0-1.571,2.139,30.956,30.956,0,0,0-3.022,7.114c-.518,2.131-.6,4.36-1.246,6.457-1.191,3.89-4.242,7.173-4.59,11.228-.156,1.814.148,3.939-1.176,5.182a7.777,7.777,0,0,1-1.043.74,7.894,7.894,0,0,0-2.286,2.35,7.579,7.579,0,0,1-1.623,2.245c-1.181.875-3.141.786-3.724,2.14-.6,1.391.92,2.94.568,4.414-.286,1.2-1.625,1.751-2.546,2.566a9.028,9.028,0,0,0-2.213,4.124,13.694,13.694,0,0,1-11.112-2.771c1.621,3.993,1.656,8.4,1.727,12.711.023,1.4-.021,2.969-1.02,3.943,4.623.1,9.132,1.351,13.644,2.371,1.972.446,4.112.833,5.951-.011a9.7,9.7,0,0,0,2.725-2.168c2.454-2.489,5.029-5.2,5.63-8.657.336-1.934.011-3.92.1-5.882a33.327,33.327,0,0,1,1.49-7.127,84.093,84.093,0,0,0,2.608-14.676c.267-3.061,2.911-5.524,4.3-8.259,2.627-5.164,5.312-10.542,5.51-16.338C696.388,476.55,695.749,474.207,693.831,473.994Z" transform="translate(11.435 2545.834)" fill="#2f2e41"/>
      <path id="Caminho_373" data-name="Caminho 373" d="M693.831,473.994c-1.576-.175-3.327-.3-4.59.66a6.267,6.267,0,0,0-1.571,2.139,30.956,30.956,0,0,0-3.022,7.114c-.518,2.131-.6,4.36-1.246,6.457-1.191,3.89-4.242,7.173-4.59,11.228-.156,1.814.148,3.939-1.176,5.182a7.777,7.777,0,0,1-1.043.74,7.894,7.894,0,0,0-2.286,2.35,7.579,7.579,0,0,1-1.623,2.245c-1.181.875-3.141.786-3.724,2.14-.6,1.391.92,2.94.568,4.414-.286,1.2-1.625,1.751-2.546,2.566a9.028,9.028,0,0,0-2.213,4.124,13.694,13.694,0,0,1-11.112-2.771c1.621,3.993,1.656,8.4,1.727,12.711.023,1.4-.021,2.969-1.02,3.943,4.623.1,9.132,1.351,13.644,2.371,1.972.446,4.112.833,5.951-.011a9.7,9.7,0,0,0,2.725-2.168c2.454-2.489,5.029-5.2,5.63-8.657.336-1.934.011-3.92.1-5.882a33.327,33.327,0,0,1,1.49-7.127,84.093,84.093,0,0,0,2.608-14.676c.267-3.061,2.911-5.524,4.3-8.259,2.627-5.164,5.312-10.542,5.51-16.338C696.388,476.55,695.749,474.207,693.831,473.994Z" transform="translate(11.435 2545.834)" opacity="0.1"/>
      <path id="Caminho_374" data-name="Caminho 374" d="M584.358,621.205c-4.973-2.366-8.611-6.778-12.632-10.553-7.676-7.208-17.063-12.31-25.133-19.067-5.35-4.479-10.134-9.7-16.012-13.445a39.858,39.858,0,0,0-17.149-6.009,4.83,4.83,0,0,0-2.1.1,4.974,4.974,0,0,0-1.952,1.544,61.074,61.074,0,0,0-6.912,9.505c-10.229,17.365-24.759,31.966-36.8,48.116a2.159,2.159,0,0,0-.144,2.915l2.449,4.8c1.37,2.685,3.566,5.813,6.52,5.279a7.127,7.127,0,0,0,3.42-2.187L488.906,631.7l11.526-11.017c6.753-6.455,13.622-13.061,18.024-21.318,3.441,5.967,9.545,9.873,13.733,15.336,1.593,2.078,2.894,4.363,4.316,6.562,2.28,3.526,4.872,6.835,7.46,10.139l13.221,16.875a25.746,25.746,0,0,0,6.122,6.21c3.131,1.983,6.939,2.5,10.625,2.835a140.676,140.676,0,0,0,14.939.54c3.8-.065,7.721-.314,11.132-2s6.213-5.154,6.036-8.972a13.23,13.23,0,0,0-1.906-5.591C599.412,632.629,593.24,625.431,584.358,621.205Z" transform="translate(115.469 2491.679)" fill="#2f2e41"/>
      <ellipse id="Elipse_105" data-name="Elipse 105" cx="4.467" cy="4.492" rx="4.467" ry="4.492" transform="translate(707.967 3022.907)" fill="#2f2e41"/>
      <path id="Caminho_375" data-name="Caminho 375" d="M749.495,466.22a8.517,8.517,0,0,1,.49,6.445,25.211,25.211,0,0,1-2.875,5.952,29.577,29.577,0,0,1-3.735,5.329c6.895.33,13.579-2.375,19.664-5.652,4.9-2.636,9.78-5.891,12.393-10.818a5.691,5.691,0,0,1-4.564-.844,16.983,16.983,0,0,1-3.5-3.257l-3.462-3.894a15.54,15.54,0,0,1-2.129-2.794,7.856,7.856,0,0,1-.914-4.517,25.818,25.818,0,0,1-4.58,3.8c-2.472,1.609-5.2,2.776-7.675,4.376-.879.567-2.832,1.48-2.329,2.628C746.771,464.1,748.8,464.99,749.495,466.22Z" transform="translate(-38.049 2557.803)" fill="#fbbebe"/>
      <path id="Caminho_376" data-name="Caminho 376" d="M749.495,466.22a8.517,8.517,0,0,1,.49,6.445,25.211,25.211,0,0,1-2.875,5.952,29.577,29.577,0,0,1-3.735,5.329c6.895.33,13.579-2.375,19.664-5.652,4.9-2.636,9.78-5.891,12.393-10.818a5.691,5.691,0,0,1-4.564-.844,16.983,16.983,0,0,1-3.5-3.257l-3.462-3.894a15.54,15.54,0,0,1-2.129-2.794,7.856,7.856,0,0,1-.914-4.517,25.818,25.818,0,0,1-4.58,3.8c-2.472,1.609-5.2,2.776-7.675,4.376-.879.567-2.832,1.48-2.329,2.628C746.771,464.1,748.8,464.99,749.495,466.22Z" transform="translate(-38.049 2557.803)" opacity="0.1"/>
      <path id="Caminho_377" data-name="Caminho 377" d="M723.768,484.025c-1.3,2.179-1.574,4.752,0,6.737.2.247.924,1.781,1.237,1.795a1.173,1.173,0,0,0,.787-.4,54.5,54.5,0,0,0,4.372-5.212,9.673,9.673,0,0,1,5.563-3.653c2.7-.42,5.305,1.01,7.667,2.39a7.321,7.321,0,0,1,2.617,2.138,7,7,0,0,1,.859,2.922,137.778,137.778,0,0,1,.779,18.572,71.922,71.922,0,0,1-.879,13.4c-.438,2.275-1.1,4.507-1.408,6.8a45.628,45.628,0,0,0-.277,6.1l-.007,8.534a21.985,21.985,0,0,0,.331,4.68,56.9,56.9,0,0,0,1.882,5.415,35.734,35.734,0,0,1,1.247,6.4l1.168,8.837c.368,2.783.64,5.828-1.043,8.068-.761,1.013-1.761,1.824-2.532,2.828-2.889,3.762-1.962,9.13-3.167,13.726a17.2,17.2,0,0,1-5.6,8.589c-2.064,1.754-4.731,3.134-7.388,2.641-3.588-.666-5.743-4.407-6.722-7.942s-1.335-7.382-3.455-10.369c-1.731-2.438-4.412-3.972-6.837-5.713s-4.794-3.985-5.322-6.933c-.231-1.288-.087-2.614-.224-3.915a9.263,9.263,0,0,0-5.716-7.506c-1.837-.714-4.105-.969-5.14-2.655a12.448,12.448,0,0,0,5.377-7.218,37.193,37.193,0,0,0,1.308-9.115l.614-10.269c.274-4.589.4-9.138,2.42-13.262.9-1.844,2.028-3.569,2.968-5.394a60.676,60.676,0,0,0,3.179-7.915c1.465-4.208,2.931-8.417,4.237-12.677a25.258,25.258,0,0,1,2.33-5.907C720.1,486.74,721.692,484.415,723.768,484.025Z" transform="translate(-12.228 2540.679)" fill="#6c63ff"/>
      <path id="Caminho_378" data-name="Caminho 378" d="M706.031,548.616l2.716.1.579-4.107a8.605,8.605,0,0,1,.575-2.394,14.782,14.782,0,0,1,1.562-2.289c2.675-3.778,2.48-8.8,3.142-13.385.884-6.121,3.441-11.852,5.97-17.491l5.275-11.757a12.742,12.742,0,0,0,1.458-6.49c.047-1.818.585-8.431.632-10.248.017-.673-1.483-.3-1.787-.9-.662-1.305-1.567,2.235-2.8,3.011a6.9,6.9,0,0,0-2.442,3.55c-1.137,2.962-1.832,6.076-2.891,9.067A18.679,18.679,0,0,1,713.1,503.3c-1.083.946-2.331,1.7-3.354,2.708-3.282,3.245-3.6,8.37-3.717,13C705.956,521.751,705.425,548.616,706.031,548.616Z" transform="translate(-17.294 2542.802)" fill="#2f2e41"/>
      <path id="Caminho_379" data-name="Caminho 379" d="M763.106,473.7c-2.639,1.038-4.086,3.9-4.828,6.65s-1.044,5.681-2.461,8.148c-3.314,5.768-11.763,7.448-14.1,13.681-.765,2.039-.732,4.277-.938,6.446-.424,4.466-1.892,8.78-2.326,13.245a57.81,57.81,0,0,0,.244,10.408l2.953,35.221a46.623,46.623,0,0,1-.885,15.488,14.85,14.85,0,0,0,8.872-1.462c2.774-1.265,5.305-3,7.975-4.474,4.591-2.533,9.654-4.327,13.674-7.7a7.949,7.949,0,0,0,1.842-2.036c.805-1.393.872-3.077,1.255-4.641a25.427,25.427,0,0,1,1.324-3.648,108.755,108.755,0,0,0,3.841-10.859,60.047,60.047,0,0,0,1.766-7.457c.322-2.008.5-4.036.67-6.062a36.267,36.267,0,0,1,1.875-9.31,74.586,74.586,0,0,0,4.313-22.309,11.274,11.274,0,0,0-.222-3.284,17.9,17.9,0,0,0-1.786-3.725c-1.227-2.312-1.964-4.856-3.122-7.2-2.617-5.3-7.239-9.326-12.08-12.7C768.583,474.46,765.8,472.637,763.106,473.7Z" transform="translate(-35.249 2546.104)" fill="#2f2e41"/>
      <path id="Caminho_380" data-name="Caminho 380" d="M616.445,587.7a21.125,21.125,0,0,1-5.625-4.273c-.737-.863-1.345-1.832-2.094-2.685a13.8,13.8,0,0,0-7.074-4.032,34.71,34.71,0,0,0-8.2-.8,15,15,0,0,0-5.451.662,5.492,5.492,0,0,0-3.611,3.875c-.4,2.191,1.03,4.325,2.749,5.731a13.241,13.241,0,0,0,5.495,2.667,44.106,44.106,0,0,0,4.967.582c9.778,1.024,18.5,6.346,27.071,11.192q11.288,6.384,23.016,11.938a45.918,45.918,0,0,0,.386-7.065c-.04-1.763-.127-4.452-1.793-5.487-1.941-1.206-5.136-1.484-7.326-2.2a117.578,117.578,0,0,1-14.728-5.958Q620.261,589.924,616.445,587.7Z" transform="translate(49.673 2489.556)" fill="#fbbebe"/>
      <ellipse id="Elipse_106" data-name="Elipse 106" cx="17.421" cy="17.517" rx="17.421" ry="17.517" transform="translate(691.439 2986.974)" fill="#fbbebe"/>
      <path id="Caminho_381" data-name="Caminho 381" d="M751.924,515.63c-1.556,1.814-2.335,4.151-3.381,6.3-2.151,4.43-5.525,8.232-7.215,12.86-1.783,4.882-1.723,10.689-5.217,14.524a5.034,5.034,0,0,0-1.517,2.2,10.859,10.859,0,0,1-.177,1.595c-.5,1.393-2.781,1.463-3.207,2.882-.125.415-.054.875-.209,1.279-.349.917-1.561,1.057-2.371,1.607-1.691,1.147-1.35,3.814-2.557,5.468a4.59,4.59,0,0,1-4.353,1.525,15.669,15.669,0,0,1-4.519-1.687,4.112,4.112,0,0,0-1.625-.51,3.411,3.411,0,0,0-1.876.641c-3.218,2.046-4.729,6.1-4.706,9.927s1.338,7.517,2.685,11.1a4.774,4.774,0,0,0,.888,1.653c1.067,1.128,2.925.946,4.342.318s2.7-1.615,4.228-1.891c2.7-.488,5.33,1.364,8.065,1.212,2-.112,3.777-1.277,5.441-2.4,2.657-1.8,5.363-3.643,7.317-6.2,1.2-1.563,2.072-3.345,3.115-5.015a57.961,57.961,0,0,1,4.4-5.876l10.045-12.3a19.877,19.877,0,0,0,4.812-9.348,43.615,43.615,0,0,0,2.082-10,39.8,39.8,0,0,0-.729-8.384,29.18,29.18,0,0,0-2.163-7.98C761.339,514.6,756.026,510.845,751.924,515.63Z" transform="translate(-19.087 2524.031)" fill="#2f2e41"/>
      <circle id="Elipse_108" data-name="Elipse 108" cx="16.123" cy="16.123" r="16.123" transform="translate(704.607 2982.986)" fill="#2f2e41"/>
      <ellipse id="Elipse_109" data-name="Elipse 109" cx="14.291" cy="11.176" rx="14.291" ry="11.176" transform="translate(692.882 2981.887)" fill="#2f2e41"/>
      <ellipse id="Elipse_110" data-name="Elipse 110" cx="2.242" cy="3.364" rx="2.242" ry="3.364" transform="matrix(0.776, -0.631, 0.631, 0.776, 706.676, 3009.375)" fill="#fbbebe"/>
      <path id="Caminho_383" data-name="Caminho 383" d="M694.5,749.748c0,7.811-4.643,10.538-10.371,10.538-.133,0-.265,0-.4,0-.265-.006-.529-.018-.788-.036-5.17-.366-9.185-3.233-9.185-10.5,0-7.516,9.6-17,10.328-17.7h0l.042-.041S694.5,741.938,694.5,749.748Z" transform="translate(0.346 2403.468)" fill="#6c63ff"/>
      <path id="Caminho_384" data-name="Caminho 384" d="M690.916,759.091l3.793-5.3-3.8,5.882-.01.608c-.265-.006-.529-.018-.788-.036l.409-7.814,0-.061.007-.011.039-.739-3.812-5.9,3.824,5.343.01.157.308-5.9-3.264-6.093,3.3,5.057.322-12.241v0L691.2,741.7l3.249-3.827-3.263,4.658-.086,5.286,3.034-5.073-3.047,5.851-.048,2.939,4.4-7.061-4.42,8.087Z" transform="translate(-6.817 2403.467)" fill="#3f3d56"/>
    </g>
  </g>
</svg>
